STARTFONT 2.3
FONT -FontForge-Lobster-Book-R-Normal--20-200-72-72-P-117-ISO10646-1
SIZE 20 72 72  4
FONTBOUNDINGBOX 41 31 -10 -10
COMMENT "Generated by fontforge, http://fontforge.sourceforge.net"
COMMENT "Copyright 2010 The Lobster Project Authors (https://github.com/impallari/The-Lobster-Font), with Reserved Font Name "Lobster"."
STARTPROPERTIES 41
FOUNDRY "FontForge"
FAMILY_NAME "Lobster"
WEIGHT_NAME "Book"
SLANT "R"
SETWIDTH_NAME "Normal"
ADD_STYLE_NAME ""
PIXEL_SIZE 20
POINT_SIZE 200
RESOLUTION_X 72
RESOLUTION_Y 72
SPACING "P"
AVERAGE_WIDTH 117
CHARSET_REGISTRY "ISO10646"
CHARSET_ENCODING "1"
FONTNAME_REGISTRY ""
CHARSET_COLLECTIONS "ISO8859-2 ISO8859-5 ISO8859-9 ISO8859-4 ISO10646-1"
BITS_PER_PIXEL 4
FONT_NAME "Lobster-Regular"
FACE_NAME "Lobster Regular"
COPYRIGHT "Copyright 2010 The Lobster Project Authors (https://github.com/impallari/The-Lobster-Font), with Reserved Font Name "Lobster"."
FONT_VERSION "2.100"
FONT_ASCENT 16
FONT_DESCENT 4
UNDERLINE_POSITION -2
UNDERLINE_THICKNESS 1
X_HEIGHT 10
CAP_HEIGHT 14
DEFAULT_CHAR 1
RAW_ASCENT 800
RAW_DESCENT 200
NORM_SPACE 4
RELATIVE_WEIGHT 40
RELATIVE_SETWIDTH 50
SUPERSCRIPT_X 0
SUPERSCRIPT_Y 7
SUPERSCRIPT_SIZE 12
SUBSCRIPT_X 0
SUBSCRIPT_Y 1
SUBSCRIPT_SIZE 12
AVG_LOWERCASE_WIDTH 94
AVG_UPPERCASE_WIDTH 122
ENDPROPERTIES
CHARS 1148
STARTCHAR NULL.dup1
ENCODING 0
SWIDTH 600 0
DWIDTH 12 0
BBX 1 1 0 0
BITMAP
00
ENDCHAR
STARTCHAR nonmarkingreturn
ENCODING 13
SWIDTH 600 0
DWIDTH 12 0
BBX 1 1 0 0
BITMAP
00
ENDCHAR
STARTCHAR space
ENCODING 32
SWIDTH 217 0
DWIDTH 4 0
BBX 1 1 0 0
BITMAP
00
ENDCHAR
STARTCHAR exclam
ENCODING 33
SWIDTH 257 0
DWIDTH 5 0
BBX 7 15 0 0
BITMAP
00037950
000AFF30
000CFE00
000EFA00
002FF500
004FF100
006FC000
009F8000
00BF3000
00DE0000
00750000
00000000
1CE50000
5FFB0000
1CE50000
ENDCHAR
STARTCHAR quotedbl
ENCODING 34
SWIDTH 353 0
DWIDTH 7 0
BBX 8 5 1 10
BITMAP
01FE1EF2
05F83FA0
0AF28F40
0EA0CC00
4F32F500
ENDCHAR
STARTCHAR numbersign
ENCODING 35
SWIDTH 659 0
DWIDTH 13 0
BBX 11 13 1 1
BITMAP
0000B700B700
0002F601F600
0004F304F300
0007E007F000
0CFFFFFFFFB0
033F933EA320
002F501F6000
005F304F3000
9FFFFFFFFD00
23CB33CB3200
00F700E80000
03F402F40000
04A104A10000
ENDCHAR
STARTCHAR dollar
ENCODING 36
SWIDTH 548 0
DWIDTH 11 0
BBX 11 21 0 -3
BITMAP
000000078000
0000000A6000
0000000C4000
00005BEFC600
0008FB4C8F60
001FF5786F90
004FF8B4BE40
002FFEE10000
0009FFE10000
0001DFFC1000
00002EFF9000
00000DFFF300
1AEA2E9FF900
7FE66A3FFA00
AF70961FF800
8F70C36FE200
2EE8F9FF5000
029EFD920000
000870000000
000B50000000
000D20000000
ENDCHAR
STARTCHAR percent
ENCODING 37
SWIDTH 796 0
DWIDTH 16 0
BBX 15 15 1 0
BITMAP
008DE600009D0000
09F7AF2002F50000
3FA07F400BB00000
9F407F504F300000
DF109F40CA000000
ED00CF15F2000000
ED02FA0D80000000
CF2AE27E106DEB10
4EFD41E606FA6F70
012009D01ED02FA0
00002F506F703FA0
0000AB009F406F70
0004F3009F30BF20
000CA0007F88F700
005F20001AED6000
ENDCHAR
STARTCHAR ampersand
ENCODING 38
SWIDTH 682 0
DWIDTH 14 0
BBX 14 15 0 0
BITMAP
000029EEB30000
0003EF84DE1000
000CFA00AF4000
001FF602EF3000
002FF601750000
000CFC10000000
0005FFB10001A1
009FF8028ACEF2
09FF901EFFFF90
3FFF105FBBB400
9FFC00150B5000
AFFD00005E1000
9FFF5017F60000
2EFFFEFF700000
02ADFD93000000
ENDCHAR
STARTCHAR quotesingle
ENCODING 39
SWIDTH 196 0
DWIDTH 4 0
BBX 5 5 1 10
BITMAP
01FE10
06F700
0BE100
1F7000
271000
ENDCHAR
STARTCHAR parenleft
ENCODING 40
SWIDTH 437 0
DWIDTH 9 0
BBX 8 21 3 -5
BITMAP
00000001
000002B7
00004E70
0005F800
003EC000
00DF3000
06FB0000
0DF50000
4FE10000
8FC00000
CF900000
DF600000
FF500000
EF400000
DF500000
AF600000
6F800000
1EB00000
08F10000
01C70000
00260000
ENDCHAR
STARTCHAR parenright
ENCODING 41
SWIDTH 413 0
DWIDTH 8 0
BBX 9 21 -2 -5
BITMAP
0000010000
00005B0000
00000E8000
000009E100
000005F700
000003FC00
000001FF10
000000FF20
000001FF40
000002FF30
000003FF20
000006FE00
000009FA00
00000EF500
00004FD000
0000AF6000
0003FB0000
001CE10000
00AD200000
1BB2000000
2600000000
ENDCHAR
STARTCHAR asterisk
ENCODING 42
SWIDTH 515 0
DWIDTH 10 0
BBX 8 8 1 7
BITMAP
0108F200
1E6AE6E6
1EFDEFE7
018FFA10
3CFEEFE2
2EA9D6F5
000AF040
000BB000
ENDCHAR
STARTCHAR plus
ENCODING 43
SWIDTH 442 0
DWIDTH 9 0
BBX 8 7 0 3
BITMAP
0000F900
0003F600
0006F300
7FFFFFFE
588ED886
002F7000
005F4000
ENDCHAR
STARTCHAR comma
ENCODING 44
SWIDTH 216 0
DWIDTH 4 0
BBX 4 6 0 -3
BITMAP
2DD2
7FF6
3EF3
06B0
1C20
2200
ENDCHAR
STARTCHAR hyphen
ENCODING 45
SWIDTH 290 0
DWIDTH 6 0
BBX 5 2 0 4
BITMAP
6FFF90
233310
ENDCHAR
STARTCHAR period
ENCODING 46
SWIDTH 263 0
DWIDTH 5 0
BBX 4 3 0 0
BITMAP
1CE5
5FFB
1CE5
ENDCHAR
STARTCHAR slash
ENCODING 47
SWIDTH 311 0
DWIDTH 6 0
BBX 6 20 0 -5
BITMAP
0000AC
0000D9
0001F6
0004F2
0008E0
000BB0
000E80
002F50
005F10
008D00
00CA00
00F700
03F400
06F100
09C000
0C9000
1F6000
4F3000
7E0000
AB0000
ENDCHAR
STARTCHAR zero
ENCODING 48
SWIDTH 546 0
DWIDTH 11 0
BBX 12 15 0 0
BITMAP
00003AEFC400
0006FF76FF30
004FF800CFB0
01EFE100AFE0
07FF8000AFF1
0DFF3000BFF0
2FFE0000CFE0
5FFB0000EFC0
7FF90002FF80
8FF70006FF40
8FF6000AFD00
6FF7002FF700
3FF9009FC000
0BFE58FD2000
019EFD810000
ENDCHAR
STARTCHAR one
ENCODING 49
SWIDTH 317 0
DWIDTH 6 0
BBX 7 15 0 0
BITMAP
00000120
00149E40
0BFFFF10
023FFC00
003FF900
007FF600
00AFF200
00EFE000
02FFB000
05FF8000
09FF4000
0CFF1000
1FFD0000
4FF90000
7FF60000
ENDCHAR
STARTCHAR two
ENCODING 50
SWIDTH 492 0
DWIDTH 10 0
BBX 11 15 -1 0
BITMAP
00018DFD8100
001DD56FFC00
007F600BFF40
009F7009FF60
006FE10AFF40
0004301EFC00
000000AFE200
000007FD2000
00007FA10000
0007F6000000
007E40000000
04F843001700
0DFFFFFDFD00
3FFFFFFFFA00
284359DEA100
ENDCHAR
STARTCHAR three
ENCODING 51
SWIDTH 514 0
DWIDTH 10 0
BBX 10 15 0 0
BITMAP
0004BEFC60
005FD46EF7
00CF500AFD
00DF700BFD
005D802FF8
000001CFC1
00006DFA10
00001BFF70
000001DFF5
2BFB008FFA
9FD5006FFA
DF70007FF6
CF6000DFD1
6FD54BFD20
05BEEC7100
ENDCHAR
STARTCHAR four
ENCODING 52
SWIDTH 476 0
DWIDTH 10 0
BBX 10 15 0 0
BITMAP
0000AE7000
0000AFF000
0000CFE000
0001FF7240
0008FC0AB0
002ED21F70
00BE306F40
07D200BF33
4FCEECFFE8
EFFFFFFFF3
42015EFC40
00001FF400
00006FF100
0000BFC000
0002FF9000
ENDCHAR
STARTCHAR five
ENCODING 53
SWIDTH 517 0
DWIDTH 10 0
BBX 10 15 0 0
BITMAP
0003210136
000FFFFFFE
003FDDFFF7
007F401210
00AF100000
00DC000000
01FDCEFB30
04C647FFD1
0000009FF6
0387005FF9
3FFA205FF8
9FB0008FF5
9F9001EFD0
5FE66CFD30
05CEEC7100
ENDCHAR
STARTCHAR six
ENCODING 54
SWIDTH 500 0
DWIDTH 10 0
BBX 11 15 0 0
BITMAP
00003AEEC400
0006FF74DE10
005FF600AF20
01EFB001EC00
08FF40002000
0EFE00000000
4FFA7DFD5000
7FFD849FF300
9FFA001FF800
AFF5000EF900
AFF4000EF800
8FF4003FF300
5FF7009FA000
0CFE57FB1000
019EFC700000
ENDCHAR
STARTCHAR seven
ENCODING 55
SWIDTH 464 0
DWIDTH 9 0
BBX 10 15 1 0
BITMAP
2AEE931253
AFFFFFFFE1
C63588DF70
200003FC00
00001DF300
0000BF8000
0009FD1000
005FF50000
01EFC00000
09FF500000
1FFE000000
5FFA000000
7FF9000000
5FFA000000
0AEA000000
ENDCHAR
STARTCHAR eight
ENCODING 56
SWIDTH 499 0
DWIDTH 10 0
BBX 10 15 0 0
BITMAP
00029EFD70
003EFA4AF9
00CFE002FF
00FFD004FE
00EFF30AF7
008FFD8F80
000CFFF600
003BFFFE30
08FC3CFFD1
7FF202EFF7
DFB0008FFA
FF90005FF8
CFC0009FF2
4FF848FF50
03AEFD9200
ENDCHAR
STARTCHAR nine
ENCODING 57
SWIDTH 489 0
DWIDTH 10 0
BBX 10 15 0 0
BITMAP
0004BEEB20
008FA4BFE1
06FD003FF7
1EF7001FFA
4FF3001FFC
6FF1003FFC
5FF2007FFB
1EF914DFFA
05EFFB8FF6
000210AFF2
000000EFC0
4D7006FF40
AF302EF900
8F97EFA000
19EFC60000
ENDCHAR
STARTCHAR colon
ENCODING 58
SWIDTH 267 0
DWIDTH 5 0
BBX 5 8 0 1
BITMAP
00AE70
02FFE0
00AE80
000000
000000
0AE700
2FFE00
0AE800
ENDCHAR
STARTCHAR semicolon
ENCODING 59
SWIDTH 276 0
DWIDTH 6 0
BBX 4 10 1 -2
BITMAP
09E8
1FFF
09E8
0000
2720
EFB0
EFC0
4F70
2C10
A200
ENDCHAR
STARTCHAR less
ENCODING 60
SWIDTH 358 0
DWIDTH 7 0
BBX 7 8 0 1
BITMAP
000003A0
0003AFC0
03AFD600
8FE60000
6EE81000
019FE700
0002BE00
00000200
ENDCHAR
STARTCHAR equal
ENCODING 61
SWIDTH 515 0
DWIDTH 10 0
BBX 10 7 0 2
BITMAP
0022222221
02FFFFFFF3
06FFFFFFF0
0000000000
0222222210
1FFFFFFF50
4FFFFFFF20
ENDCHAR
STARTCHAR greater
ENCODING 62
SWIDTH 362 0
DWIDTH 7 0
BBX 7 8 0 1
BITMAP
08600000
0AFD4000
005CFB30
0000BFE0
006DFA30
4DFA3000
CA300000
20000000
ENDCHAR
STARTCHAR question
ENCODING 63
SWIDTH 441 0
DWIDTH 9 0
BBX 8 15 1 0
BITMAP
03BEEC50
4FA4AFF4
CF103FF9
EF303FF8
9F908FE2
0103FE40
002DD300
00CD2000
06F30000
0C900000
08400000
00000000
9E900000
FFF10000
9E900000
ENDCHAR
STARTCHAR at
ENCODING 64
SWIDTH 688 0
DWIDTH 14 0
BBX 14 15 -1 -3
BITMAP
0000028CFFD810
00006EE8447ED1
0008FC200004F9
005FC1000000DD
01EE208ECD80CF
07F809FA7F60DD
0CF23FC08F22FA
1FD09F50DC08F4
2FB0AF55FA4F90
2FA06FF89FF800
1FB00210031000
0CF200000A4000
04FD4115CF3000
004CFFFFB30000
00001210000000
ENDCHAR
STARTCHAR A
ENCODING 65
SWIDTH 668 0
DWIDTH 13 0
BBX 14 17 0 -2
BITMAP
00000000018DFA
000000002DEFF9
00000002D98FF6
0000001DB0BFF2
0000009F20EFE0
000005F802FFB0
05BEFFFA56FF80
7FC5AF948EFF50
BF72FF200CFF10
3729FA000FFD00
001FF5003FFA00
007FE0006FF700
00CFA000AFF400
01FF7000DFF100
04FF3001FFC000
03FF2000000000
009E3000000000
ENDCHAR
STARTCHAR B
ENCODING 66
SWIDTH 641 0
DWIDTH 13 0
BBX 13 15 0 0
BITMAP
00016BDFEA3000
005ED7447EF300
07F939B707FA00
4FC08FF505FA00
AF50BFF10BF500
BF20EFD2AF7000
6F22FFFFFFA100
0116FF938FFA00
0009FF400DFF00
000CFF100AFF10
001FFC000BFF00
004FF9000EFB00
007FF6307FF500
00AFF6FEFFA000
00DFE1BFD80000
ENDCHAR
STARTCHAR C
ENCODING 67
SWIDTH 497 0
DWIDTH 10 0
BBX 11 15 0 0
BITMAP
00003AEFD700
0006FFC46F60
004FFD100EA0
01DFF5004F90
06FFD0005810
0CFF70000000
1FFF30000000
5FFF00000000
7FFC00000000
9FFB00000000
9FFB00000000
8FFD00000430
5FFF70018B00
0CFFFEEFB100
019DFEB50000
ENDCHAR
STARTCHAR D
ENCODING 68
SWIDTH 663 0
DWIDTH 13 0
BBX 13 15 0 0
BITMAP
00017BDFEB4000
006ED7448FF700
08F838A506FF30
5FB09FF401FF90
BF40CFF100DFC0
DF11FFD000DFD0
9F04FFA000EFC0
0517FF6001FFB0
000BFF3004FF80
000EFF0007FF40
002FFC000CFE00
005FF8003FF700
009FF500BFD100
00CFF84AFE3000
01FFE9DFB30000
ENDCHAR
STARTCHAR E
ENCODING 69
SWIDTH 459 0
DWIDTH 9 0
BBX 10 15 0 0
BITMAP
00003AEEA1
0004FF74E9
000EF900BC
004FF402E9
005FF40261
001EFA0000
0009FF9000
02CFF70000
0CFF800000
6FFE100000
BFFB000000
CFFA000026
BFFE3016C1
4FFFFEFC10
05CEEB5000
ENDCHAR
STARTCHAR F
ENCODING 70
SWIDTH 459 0
DWIDTH 9 0
BBX 12 15 0 0
BITMAP
0016BDEFFFFE
03DBBFFDEFF6
2EA09FF40110
8F40CFF10000
BF20FFD00000
BF13FFB22100
4D27FFFFF500
000AFF755100
000DFF000000
001FFC000000
004FF9000000
007FF6000000
00BFF3000000
00EFE0000000
02FFB0000000
ENDCHAR
STARTCHAR G
ENCODING 71
SWIDTH 578 0
DWIDTH 12 0
BBX 12 20 0 -5
BITMAP
00004ADEEA20
001AFFB54DD1
00CFF90009F4
08FFC0000DF3
1EFF40002A70
5FFD00000000
8FF900002430
9FF80000AFB0
8FF70001EF80
4FFA0008FF50
0CFF516FFF10
02BFFF9CFD00
0001210FFA00
0002203FF600
00AFF97FF300
06F714AFD000
09F101EF7000
06F719FC0000
008FFFB10000
000121000000
ENDCHAR
STARTCHAR H
ENCODING 72
SWIDTH 665 0
DWIDTH 13 0
BBX 14 15 0 0
BITMAP
00017BEE002FFC
006DAFFB005FF8
08F45FF8008FF5
5F909FF500CFF2
AF40CFF100EFE0
BF20FFD225FFB0
4D33FFFFFFFF80
0006FF955BFF40
0009FF400CFF10
000DFF101FFD00
001FFC004FFA00
004FF9007FF700
007FF600AFF300
00AFF300DFF100
00DFE001FFC000
ENDCHAR
STARTCHAR I
ENCODING 73
SWIDTH 375 0
DWIDTH 8 0
BBX 8 15 0 0
BITMAP
00017CEC
007ECFF9
09F47FF6
6F80AFF3
CF20DFF0
CF01FFC0
6F15FF90
0108FF50
000BFF20
000EFE00
002FFB00
006FF800
009FF400
00CFF100
01FFD000
ENDCHAR
STARTCHAR J
ENCODING 74
SWIDTH 536 0
DWIDTH 11 0
BBX 12 20 0 -5
BITMAP
000000039DF7
000001AEDFF4
00001DC1CFF1
0000BF21FFC0
0002FC04FF90
0003FA07FF60
0001CA0BFF30
0000020EFE00
0000002FFC00
0000006FF800
0000009FF500
000000CFF200
000001FFE000
002204FFB000
1CFF97FF7000
7F714BFF3000
9F101EFC0000
6F618FF30000
0AFFFC400000
001210000000
ENDCHAR
STARTCHAR K
ENCODING 75
SWIDTH 601 0
DWIDTH 12 0
BBX 14 15 0 0
BITMAP
00028CEC004FC1
008EBFF902ED10
0BE37FF60CD200
8F60AFF29E2000
CF20DFE6E30000
BF02FFDE400000
2915FFFEEB3000
0008FF41EFB000
000BFF10CFD000
000EFD00EFC000
003FFA03FF8000
006FF707FF5000
009FF40AFF1000
00CFF10CFE0000
01FFD007FF4000
ENDCHAR
STARTCHAR L
ENCODING 76
SWIDTH 379 0
DWIDTH 8 0
BBX 14 20 0 -5
BITMAP
00027CEC000000
007EBFF9000000
09E47FF6000000
6F70AFF3000000
CF20DFE0000000
CF02FFB0000000
5E15FF80000000
0008FF50000000
000CFF10000000
000FFD00000000
003FFA00000000
006FF700000000
00AFF300000000
00DFF000000000
01FFF920000000
0003BFE7000000
000005EFD50001
0000003DFFFDE2
00000001BFFFC0
0000000007DE40
ENDCHAR
STARTCHAR M
ENCODING 77
SWIDTH 787 0
DWIDTH 16 0
BBX 15 15 1 0
BITMAP
00018CEF4001EFF0
006E9CFF3006FFD0
06F61FFF200CFFB0
2FB07FFF203FFF90
7F60CFFF10AFFF70
8F43FFFF01FFFF50
2C58FCFF07FDFF30
000DACFE0DBDFF00
004F5DFD4F5FFD00
00AE0DFDAD2FFB00
01E90EFEF74FF900
06F30FFFF16FF700
0BD00FFFA08FF500
2F701FFF40BFF300
7F202FFC00DFF100
ENDCHAR
STARTCHAR N
ENCODING 78
SWIDTH 668 0
DWIDTH 13 0
BBX 15 15 0 0
BITMAP
0006BEFB0000AF40
02CEAFFF1000DF10
1DE36FFF4001FC00
7F709FFF8004F900
CF30DFFFB007F600
CF21FEEFE00BF200
7F44FBAFF30EE000
0338F76FF62FB000
000BF43FF95F8000
000EF00EFD8F4000
002FC00BFFCF1000
006F8007FFFD0000
009F5004FFFA0000
00CF1001FFF60000
01FD0000CFF30000
ENDCHAR
STARTCHAR O
ENCODING 79
SWIDTH 665 0
DWIDTH 13 0
BBX 14 15 0 0
BITMAP
000038CEFDA200
002AFA644AFE20
03ED34CE30DFA0
1EE24FF5009FE0
8F71EFC0008FF1
AF48FF50009FF1
5F3EFE1000BFF0
015FFA0000EFD0
008FF70002FF90
00BFF40008FF40
00CFF3000DFD00
00CFF2007FF500
00AFF503EF9000
004FFEAEFA0000
0005CEEB500000
ENDCHAR
STARTCHAR P
ENCODING 80
SWIDTH 573 0
DWIDTH 11 0
BBX 12 15 0 0
BITMAP
00017CEED810
006EB6449FD1
08F638A50AF8
5F909FF406FC
BF30CFF106FC
DF01FFD00AF9
8F04FF902FF2
0217FF60BF60
000BFF9DD500
000EFE530000
002FFB000000
005FF8000000
009FF5000000
00CFF1000000
01FFD0000000
ENDCHAR
STARTCHAR Q
ENCODING 81
SWIDTH 665 0
DWIDTH 13 0
BBX 14 17 0 -2
BITMAP
000038CEFDA200
002AFA644AFE20
03DD34CE30DFA0
1DE24FF6009FE0
7F81DFD0008FF1
AF48FF60009FF1
7F3EFF1000AFF0
045FFB0000DFD0
008FF80002FFA0
00BFF50006FF50
00CFF3000CFE10
00CFF2004FF700
00AFFBC9DFC000
004FFA6FFD2000
0005CEEDFA0000
00000002FFD910
000000005DE700
ENDCHAR
STARTCHAR R
ENCODING 82
SWIDTH 601 0
DWIDTH 12 0
BBX 12 15 0 0
BITMAP
00027CEFD920
008FC7447EE3
0AF64AC608F9
7F80AFF308F9
CF20DFE01DF3
CF01FFB3BF60
4B14FFFFFD30
0008FF75FFC0
000BFF20CFD0
000EFD00EFB0
002FFA02FF80
006FF706FF50
009FF40AFF10
00CFF10CFE00
01FFD007FF40
ENDCHAR
STARTCHAR S
ENCODING 83
SWIDTH 570 0
DWIDTH 11 0
BBX 11 15 0 0
BITMAP
000029DFD810
0003EFB47FA0
000CFF100EF0
000EFE003FE0
000CFF504A40
0005FFE30000
0000AFFE2000
00000CFFD100
002521DFF900
07FFE14FFF10
1FF8000DFF40
4FF0000CFF20
3FF2002FFB00
0AFC67EFD200
007CEEC70000
ENDCHAR
STARTCHAR T
ENCODING 84
SWIDTH 481 0
DWIDTH 10 0
BBX 15 15 0 0
BITMAP
0016BDEEC8411640
03DC65FFFFFFFF20
1EC004FFECEFE700
8F5007FF90010000
BF100AFF50000000
DF000EFF20000000
9F002FFE00000000
05105FFA00000000
00008FF700000000
0000BFF400000000
0000EFF100000000
0002FFC000000000
0005FF9000000000
0008FF5000000000
000BFF2000000000
ENDCHAR
STARTCHAR U
ENCODING 85
SWIDTH 716 0
DWIDTH 14 0
BBX 17 15 -1 0
BITMAP
000028CEF6000AFF20
0019E8CFF3000EFE00
01CD30EFE0002FFB00
0AF503FFA0005FF700
1FE007FF50009FF400
0FC00AFF1000CFF100
07E10EFC0000FFD000
00113FF80003FFA000
00007FF40007FF6000
0000AFF1000AFF3000
0000DFD0000EFD0000
0000DFC0006FF70000
0000BFE203EFD10000
00005FFEDFFD200000
000004BEFD81000000
ENDCHAR
STARTCHAR V
ENCODING 86
SWIDTH 615 0
DWIDTH 12 0
BBX 14 15 0 0
BITMAP
00017CEE0000D8
007E9FFE0003F2
09F40FFF0008C0
6F800FFF000D60
CF200FFF003F10
CF000EFF008A00
6F100EFF10D500
01000EFF14E000
00000DFF198000
00000DFF1E3000
00000CFF5C0000
00000CFFB70000
00000CFFF10000
00000BFFB00000
00000BFF500000
ENDCHAR
STARTCHAR W
ENCODING 87
SWIDTH 962 0
DWIDTH 19 0
BBX 21 15 0 0
BITMAP
00017CEE0000DFD0000E70
007E9FFE0003FFD0004F10
09F40FFF0008FFD0009B00
6F800FFF000DFFE000E500
CF200FFF003FFFE004E000
CF000EFF008BFFE00A9000
6F100EFF10D5FFE00E3000
01000EFF14E0FFF05D0000
00000DFF1990EFF0A70000
00000DFF1E30EFF1E20000
00000CFF5C00EFF5B00000
00000CFFB700DFFB600000
00000CFFF100DFFE100000
00000BFFB000DFF9000000
00000BFF5000CFF4000000
ENDCHAR
STARTCHAR X
ENCODING 88
SWIDTH 620 0
DWIDTH 12 0
BBX 13 15 0 0
BITMAP
00017CEF102F30
007E9FFF40BA00
09F40CFF74F200
6F8009FFAC8000
CF2006FFFE1000
CF0003FFF60000
6F1000EFF40000
010000BFF70000
000000AFFA0000
000003FFFE0000
00000C9FFF2000
00005D1DFF5000
0000D50AFF8000
0007C007FFB000
001E3004FFE000
ENDCHAR
STARTCHAR Y
ENCODING 89
SWIDTH 620 0
DWIDTH 12 0
BBX 14 15 0 0
BITMAP
00017CEF10008B
007E9FFF4001E4
09F40BFF8006D0
6F8007FFC00C60
CF2004FFF13E10
CF0000EFF49800
6F1000BFF9E200
0100007FFFA000
0000003FFF3000
0000004FFE0000
0000007FFB0000
000000AFF80000
000000EFF40000
000002FFF10000
000005FFD00000
ENDCHAR
STARTCHAR Z
ENCODING 90
SWIDTH 542 0
DWIDTH 11 0
BBX 11 15 0 0
BITMAP
006DFFFFFFC0
02FD434EFF40
03FD007FFC00
005201EFF400
000007FFC000
00001EFF4000
00007FFC0000
0001EFF40000
0007FFC00000
001EFF400000
008FFC000000
01EFF4004300
08FFC002FE00
1EFF7335FC00
8FFFFFFFB200
ENDCHAR
STARTCHAR bracketleft
ENCODING 91
SWIDTH 400 0
DWIDTH 8 0
BBX 10 20 -1 -5
BITMAP
00001FFFF3
00004FC330
00007F9000
0000AF6000
0000DF3000
0001FE0000
0005FB0000
0008F80000
000BF50000
000EF20000
002FE00000
005FA00000
009F700000
00CF400000
00FF100000
03FD000000
06F9000000
09F6000000
0CF6310000
1FFFF30000
ENDCHAR
STARTCHAR backslash
ENCODING 92
SWIDTH 362 0
DWIDTH 7 0
BBX 7 20 0 -5
BITMAP
1F600000
0D900000
09C00000
06F10000
03F30000
00F70000
00CA0000
009D0000
005F1000
002F4000
000E8000
000BB000
0008E000
0005F200
0001F500
0000D800
0000AC00
00007F00
00004F30
00001F60
ENDCHAR
STARTCHAR bracketright
ENCODING 93
SWIDTH 400 0
DWIDTH 8 0
BBX 10 20 -2 -5
BITMAP
00001FFFF3
0000134FE0
0000004FB0
0000007F80
000000BF50
000000EF20
000002FE00
000005FB00
000008F700
00000BF400
00000EF100
00003FD000
00006FA000
00009F7000
0000CF3000
0001FF1000
0004FC0000
0007F90000
033BF60000
1FFFF30000
ENDCHAR
STARTCHAR asciicircum
ENCODING 94
SWIDTH 421 0
DWIDTH 8 0
BBX 6 4 1 11
BITMAP
000150
002DE1
04EBD5
6A303A
ENDCHAR
STARTCHAR underscore
ENCODING 95
SWIDTH 444 0
DWIDTH 9 0
BBX 8 2 0 -1
BITMAP
1FFFFFFE
13333332
ENDCHAR
STARTCHAR grave
ENCODING 96
SWIDTH 201 0
DWIDTH 4 0
BBX 4 4 0 11
BITMAP
5FA0
0EC0
08E0
02F1
ENDCHAR
STARTCHAR a
ENCODING 97
SWIDTH 526 0
DWIDTH 11 0
BBX 13 10 -1 0
BITMAP
0003BEEAFF7000
004FFA4DFF4000
01EFD00CFF1000
08FF600FFD0000
0DFF103FF90000
2FFC007FF60000
3FFB00AFF30620
3FFC03FFF22C00
0DFFDEAFFEE400
03CEB32CEB4000
ENDCHAR
STARTCHAR b
ENCODING 98
SWIDTH 444 0
DWIDTH 9 0
BBX 10 14 -1 0
BITMAP
0007AB0000
001FFC0000
004FF90000
008FF50000
00BFFBED30
00EFE57FC0
02FFA00EF1
06FF700EF2
09FF401FF0
0CFF104FC0
0FFC009F70
2FFC04FE10
0EFFEFF300
04CFEA3000
ENDCHAR
STARTCHAR c
ENCODING 99
SWIDTH 384 0
DWIDTH 8 0
BBX 10 10 -1 0
BITMAP
0003BEE900
004FFA7F40
01EFD04F40
07FF702600
0DFF200000
2FFD000000
3FFB000011
3FFB000290
0DFE547A10
03BEEB5000
ENDCHAR
STARTCHAR d
ENCODING 100
SWIDTH 525 0
DWIDTH 11 0
BBX 13 14 -1 0
BITMAP
0000000049B400
00000000BFF200
00000000EFE000
00000002FFB000
0003BEEAFF8000
004FFB4DFF5000
01EFD00CFF2000
08FF700FFE0000
0DFF203FFB0000
2FFD006FF80000
3FFB009FF50100
3FFB00DFF20A10
0DFE49FFF67600
03CFD64DEC5000
ENDCHAR
STARTCHAR e
ENCODING 101
SWIDTH 384 0
DWIDTH 8 0
BBX 10 10 -1 0
BITMAP
0003BEEA00
004FF97F40
01EFC04F40
08FF50BE10
0DFF39F500
2FFFFC4000
3FFC100021
3FFB000390
0DFF547A10
03BEEB5000
ENDCHAR
STARTCHAR f
ENCODING 102
SWIDTH 267 0
DWIDTH 5 0
BBX 13 20 -5 -5
BITMAP
000000007DEB10
00000008FF6990
0000001FFB0360
0000005FF80000
0000008FF50000
000000BFFFA000
000000EFF32000
000003FFC00000
000006FF900000
000009FF500000
00000CFF200000
00000FFE000000
00003FFB000000
00007FF7000000
0000AFF4000000
007DFFF1000000
0BD6EFC0000000
2F23FF80000000
1E5BFE20000000
04DEB300000000
ENDCHAR
STARTCHAR g
ENCODING 103
SWIDTH 507 0
DWIDTH 10 0
BBX 12 15 -1 -5
BITMAP
0003BEEAFF70
004FFA4DFF40
01EFD00CFF10
08FF501FFD00
0DFF104FF900
2FFC007FF600
3FFB00BFF308
3FFD04FFE068
0DFFEFFFC4C1
03CFC8FFEA10
00018EFF6000
002E9CFF2000
00990EFD0000
009A8FF60000
002CED600000
ENDCHAR
STARTCHAR h
ENCODING 104
SWIDTH 505 0
DWIDTH 10 0
BBX 12 14 -1 0
BITMAP
00079B000000
001FFC000000
004FF8000000
007FF5000000
00BFF9DEA100
00EFF78FF600
02FFB04FF800
05FF606FF700
09FF309FF400
0CFF00CFF100
0FFC00FFD003
3FF902FFA039
7FF600EFD4B1
AFF3005DEB20
ENDCHAR
STARTCHAR i
ENCODING 105
SWIDTH 267 0
DWIDTH 5 0
BBX 8 14 -1 0
BITMAP
000AE700
003FFD00
000BE700
00000000
00BFF200
00EFE000
03FFB000
06FF7000
09FF4000
0CFF1000
1FFD0071
2FFC05A0
1FFFEE20
06EE9200
ENDCHAR
STARTCHAR j
ENCODING 106
SWIDTH 240 0
DWIDTH 5 0
BBX 10 19 -4 -5
BITMAP
000001CE50
000005FFB0
000001CE50
0000000000
00000BFF20
00000EFE00
00002FFB00
00006FF800
00009FF500
0000CFF200
0000FFE023
0003FFB084
0007FF83A0
000AFFB910
029FFF2000
5EAFFC0000
E54FF80000
E6BFE20000
5DEB300000
ENDCHAR
STARTCHAR k
ENCODING 107
SWIDTH 518 0
DWIDTH 10 0
BBX 13 14 -1 0
BITMAP
0008BC00000000
001FFC00000000
004FF900000000
008FF500000000
00BFF204EA1000
00EFE07E500000
02FFBAE5000000
06FFFFFFB00000
09FFC6DFF30000
0CFF10AFF40000
1FFD00CFF10610
3FFA00EFE03B00
7FF700DFFDE200
AFF3004CEC3000
ENDCHAR
STARTCHAR l
ENCODING 108
SWIDTH 267 0
DWIDTH 5 0
BBX 8 14 -1 0
BITMAP
00058A00
001FFC00
004FF900
007FF600
00BFF200
00EFE000
02FFB000
05FF7000
09FF4000
0CFF1000
0FFD0061
2FFC16B0
1FFFFE20
06EEA200
ENDCHAR
STARTCHAR m
ENCODING 109
SWIDTH 752 0
DWIDTH 15 0
BBX 17 10 -1 0
BITMAP
00BFF9DFC38EEA0000
00EFF79FFF69FF5000
03FFB05FFA05FF7000
06FF608FF507FF6000
09FF30BFF20AFF3000
0CFF00EFE00DFF0000
1FFC02FFB01FFC0030
4FF905FF803FF90480
7FF608FF501FFC4B10
AFF30BFF2006DEA200
ENDCHAR
STARTCHAR n
ENCODING 110
SWIDTH 505 0
DWIDTH 10 0
BBX 12 10 -1 0
BITMAP
00BFF9DEA100
00EFF78FF600
03FFB04FF800
06FF606FF700
09FF309FF400
0CFF00CFF100
1FFC00FFD003
4FF902FFA039
7FF600EFD4B1
AFF3005DEB20
ENDCHAR
STARTCHAR o
ENCODING 111
SWIDTH 439 0
DWIDTH 9 0
BBX 13 10 -1 0
BITMAP
0003AEE9100000
003EFA4F700000
01EFD12EA01910
07FF707FEAA300
0DFF202FA00000
2FFD003F700000
4FFB007F200000
3FFB00DB000000
0DFE4AD2000000
03BEE920000000
ENDCHAR
STARTCHAR p
ENCODING 112
SWIDTH 468 0
DWIDTH 9 0
BBX 11 16 -2 -5
BITMAP
000488300000
000BFF9DEB10
000EFF76FF90
002FFA00EFC0
005FF700EFC0
009FF401FFB0
00CFF104FF80
00FFD009FF40
03FFA04FFC00
07FFECFFE300
0AFFAEEB3000
0DFE00000000
1FFB00000000
5FF800000000
8FF500000000
884000000000
ENDCHAR
STARTCHAR q
ENCODING 113
SWIDTH 486 0
DWIDTH 10 0
BBX 11 15 -1 -5
BITMAP
0003BEEAFF70
004FFA4DFF40
01EFD00CFF10
08FF501FFC00
0DFF104FF900
2FFC007FF600
3FFB00BFF300
3FFD04FFE000
0DFFEFFFB000
03CFC8FF8000
000008FF5000
00000CFF2000
00000FFD0000
00003FFA0000
000049510000
ENDCHAR
STARTCHAR r
ENCODING 114
SWIDTH 376 0
DWIDTH 8 0
BBX 9 10 -1 0
BITMAP
00BFF5CE60
00EFFCDFB0
03FFB04D50
06FF700000
09FF400000
0CFF100000
1FFD000000
4FFA000000
7FF7000000
AFF3000000
ENDCHAR
STARTCHAR s
ENCODING 115
SWIDTH 382 0
DWIDTH 8 0
BBX 10 11 -1 0
BITMAP
0000245000
0005FFD000
000AFFE000
001CFFF000
0077DFF100
01D1CFF200
0880BFF300
5FB0AFF452
9A40BFFC60
6C47FFC300
08EFD70000
ENDCHAR
STARTCHAR t
ENCODING 116
SWIDTH 267 0
DWIDTH 5 0
BBX 8 13 -1 0
BITMAP
001CEC00
005FF800
008FF500
05FFFF60
01EFF310
01FFC000
05FF8000
08FF5000
0CFF2000
0FFD0061
2FFC04B0
1FFFDE20
06EEA200
ENDCHAR
STARTCHAR u
ENCODING 117
SWIDTH 505 0
DWIDTH 10 0
BBX 12 10 -1 0
BITMAP
00BFF20CFF10
00EFE01FFD00
03FFB04FFA00
06FF707FF600
09FF40AFF300
0CFF10DFF000
1FFD02FFC008
2FFC0AFFB087
1FFFFAEFFEC0
06EE906EE810
ENDCHAR
STARTCHAR v
ENCODING 118
SWIDTH 414 0
DWIDTH 8 0
BBX 9 10 -1 0
BITMAP
00BFF24E90
00EFE06FE0
03FFB004E0
06FF7006C0
09FF400A80
0CFF101F40
1FFD009D00
2FFC06F400
1FFFEF8000
05DFC60000
ENDCHAR
STARTCHAR w
ENCODING 119
SWIDTH 661 0
DWIDTH 13 0
BBX 14 10 -1 0
BITMAP
00BFF20CFF15E8
00EFE01FFD07FD
03FFB04FFA005D
06FF707FF6007B
09FF40AFF300B7
0CFF10DFF002F3
1FFD02FFC00AC0
2FFC0AFFB07F40
1FFFFBFFFEF700
06EE916EFC5000
ENDCHAR
STARTCHAR x
ENCODING 120
SWIDTH 522 0
DWIDTH 10 0
BBX 12 11 0 0
BITMAP
00000004E900
002BEC25FE00
01B5FFA05D00
0830CFD1D700
1A00AFFAB000
66008FFC1000
A2007FF40000
A003EFF60021
003E7FF800B1
02E60CFD4940
2D7002CEB300
ENDCHAR
STARTCHAR y
ENCODING 121
SWIDTH 486 0
DWIDTH 10 0
BBX 12 15 -1 -5
BITMAP
00BFF20CFF10
00EFE01FFD00
03FFB04FFA00
06FF707FF600
09FF40AFF300
0CFF10DFF000
1FFD02FFC044
2FFC0AFF80C2
1FFFFFFF6970
06EE9CFFD600
0004BFFE0000
007C6FFB0000
00F17FF70000
01FAEFE10000
006EEA200000
ENDCHAR
STARTCHAR z
ENCODING 122
SWIDTH 428 0
DWIDTH 9 0
BBX 9 10 0 0
BITMAP
01CFFFFF40
0BF45FFB00
0BD0AFF200
0004FF9000
000CFE1000
006FF70000
01EFD00000
08FF51C700
2FFD45F900
BFFFFFB100
ENDCHAR
STARTCHAR braceleft
ENCODING 123
SWIDTH 352 0
DWIDTH 7 0
BBX 8 20 0 -5
BITMAP
00002AEE
0000DF93
0005FD00
0008F900
000BF700
000CF500
000DF400
000EF200
006FB000
0EFA0000
03CF2000
00BF4000
00DF2000
02FE0000
07FA0000
0BF70000
0EF50000
1FF50000
0DFA0000
03BE7000
ENDCHAR
STARTCHAR bar
ENCODING 124
SWIDTH 532 0
DWIDTH 11 0
BBX 3 20 4 -5
BITMAP
9F40
9F40
9F40
9F40
9F40
9F40
9F40
9F40
9F40
9F40
9F40
9F40
9F40
9F40
9F40
9F40
9F40
9F40
9F40
9F40
ENDCHAR
STARTCHAR braceright
ENCODING 125
SWIDTH 352 0
DWIDTH 7 0
BBX 8 20 -2 -5
BITMAP
0000BE91
00003EF8
00000AFB
000009FA
00000BF7
00000EF3
00003FD0
00006FA0
00009F70
00007F70
00001DFB
0001DE52
0006FB00
0008F900
000AF800
000CF600
000EF400
003FE100
04CF9000
3FD80000
ENDCHAR
STARTCHAR asciitilde
ENCODING 126
SWIDTH 431 0
DWIDTH 9 0
BBX 8 2 1 11
BITMAP
19EFDA87
78ADFE81
ENDCHAR
STARTCHAR uni00A0
ENCODING 160
SWIDTH 217 0
DWIDTH 4 0
BBX 1 1 0 0
BITMAP
00
ENDCHAR
STARTCHAR exclamdown
ENCODING 161
SWIDTH 219 0
DWIDTH 4 0
BBX 7 15 -2 -5
BITMAP
0002DD30
0007FF90
0002DD30
00000000
00038200
000AF300
000EF100
003FD000
007FB000
00CF8000
01FF6000
05FF4000
09FF1000
0EFE0000
2A850000
ENDCHAR
STARTCHAR cent
ENCODING 162
SWIDTH 384 0
DWIDTH 8 0
BBX 9 15 0 -1
BITMAP
0000097000
00000C3000
00039FD800
008FCB9F40
08FA878F40
2FF2B45800
8FC0E10000
BF93D00000
CF96900000
AFB9600000
4FFE338000
06EFFE5000
006A200000
0096000000
0061000000
ENDCHAR
STARTCHAR sterling
ENCODING 163
SWIDTH 455 0
DWIDTH 9 0
BBX 11 15 0 0
BITMAP
000004CFE700
00005FF5DF30
0001EF90BF30
0006FF40BA00
000AFF100000
000DFC000000
001FF9000000
2FFFFFFF3000
139FF5330000
00BFE0000000
00EF90000000
03FD20000000
09FFFC636B00
4FFFFFFFFB00
65225AEEB200
ENDCHAR
STARTCHAR currency
ENCODING 164
SWIDTH 500 0
DWIDTH 10 0
BBX 8 8 1 3
BITMAP
13000022
5E8EE9D6
0AD54CB0
0E3001F1
0F2001F2
0AB21AC0
3EBFFCE4
34012043
ENDCHAR
STARTCHAR yen
ENCODING 165
SWIDTH 558 0
DWIDTH 11 0
BBX 11 15 1 0
BITMAP
0BFF80001E40
07FFC0006D00
04FFF100D600
00EFF404E100
00BFF80A8000
007FFB1E2000
004FFE7A0000
000FFFE30000
000BFFC00000
0AFFFFFFF100
001EFF300000
2FFFFFFF9000
138FFC331000
009FF9000000
00DFF6000000
ENDCHAR
STARTCHAR brokenbar
ENCODING 166
SWIDTH 532 0
DWIDTH 11 0
BBX 3 20 4 -5
BITMAP
9F40
9F40
9F40
9F40
9F40
9F40
9F40
9F40
9F40
0000
0000
9F40
9F40
9F40
9F40
9F40
9F40
9F40
9F40
9F40
ENDCHAR
STARTCHAR section
ENCODING 167
SWIDTH 542 0
DWIDTH 11 0
BBX 11 16 0 -1
BITMAP
000006CEE900
00009FE55F60
0003FF500E70
0005FF304C10
001AFFA00000
00CEBFF90000
03FD1BFFC100
04FF908FFA00
00CFFA09FF10
001CFFA1FF10
0001CFF5FC00
2CC32FFEE300
AF810CFD1000
CF100CF90000
AF614FE20000
19DED9200000
ENDCHAR
STARTCHAR dieresis
ENCODING 168
SWIDTH 392 0
DWIDTH 8 0
BBX 7 3 1 11
BITMAP
01001100
BF62EE10
9E52DC10
ENDCHAR
STARTCHAR copyright
ENCODING 169
SWIDTH 587 0
DWIDTH 12 0
BBX 10 11 1 1
BITMAP
005CEEA300
08E7448E40
4D28EE73D1
B58C44D486
E0D3002139
E0D400003A
C39C22A277
6C1BFFA2D2
0AC4336E60
007EFFD500
0000220000
ENDCHAR
STARTCHAR ordfeminine
ENCODING 170
SWIDTH 345 0
DWIDTH 7 0
BBX 7 7 0 8
BITMAP
009ECF50
07F7AF10
0CC0AD00
0F80EA00
2F84F900
0DF9EE10
01201100
ENDCHAR
STARTCHAR guillemotleft
ENCODING 171
SWIDTH 589 0
DWIDTH 12 0
BBX 11 7 0 2
BITMAP
000001400040
00017D506D80
018D826D9200
5E813D920000
3CA32BC40000
006EA34DC400
000186006800
ENDCHAR
STARTCHAR logicalnot
ENCODING 172
SWIDTH 444 0
DWIDTH 9 0
BBX 8 5 0 1
BITMAP
6FFFFFFD
23333BFA
00000DF6
00001FF3
00002AA0
ENDCHAR
STARTCHAR uni00AD
ENCODING 173
SWIDTH 290 0
DWIDTH 6 0
BBX 5 2 0 4
BITMAP
6FFF90
233310
ENDCHAR
STARTCHAR registered
ENCODING 174
SWIDTH 553 0
DWIDTH 11 0
BBX 11 11 0 1
BITMAP
0018DFD81000
01CC635BC100
0997FFC28A00
1E17838A0D20
4A07715B0940
4A07FFE40850
2D0783D10C20
0B7760596B00
02E93128E200
002AFFFA2000
000012100000
ENDCHAR
STARTCHAR macron
ENCODING 175
SWIDTH 446 0
DWIDTH 9 0
BBX 7 2 1 11
BITMAP
6FFFFFE0
23333320
ENDCHAR
STARTCHAR degree
ENCODING 176
SWIDTH 314 0
DWIDTH 6 0
BBX 6 8 0 6
BITMAP
008ED2
07F6C8
0E9099
2F50A8
4F30E4
3F57D0
0CFE30
002000
ENDCHAR
STARTCHAR plusminus
ENCODING 177
SWIDTH 479 0
DWIDTH 10 0
BBX 9 11 0 2
BITMAP
0000053000
00003F6000
00006F3000
0488CF8870
0AFFFFFFA0
0001F80000
0004F50000
0007E10000
0000000000
5FFFFFFA00
1333333100
ENDCHAR
STARTCHAR uni00B2
ENCODING 178
SWIDTH 328 0
DWIDTH 7 0
BBX 6 10 1 5
BITMAP
06EE90
2F5BF4
3F28F4
030BC0
005C10
03B100
2C1000
BFC380
94AFB0
000200
ENDCHAR
STARTCHAR uni00B3
ENCODING 179
SWIDTH 336 0
DWIDTH 7 0
BBX 6 9 1 6
BITMAP
03CEA0
0DA7F6
0E83F6
012BA0
005D70
8D19F3
E708F5
C71DD0
2AC910
ENDCHAR
STARTCHAR acute
ENCODING 180
SWIDTH 316 0
DWIDTH 6 0
BBX 5 4 2 11
BITMAP
007710
05F800
0CA000
5D1000
ENDCHAR
STARTCHAR uni00B5
ENCODING 181
SWIDTH 505 0
DWIDTH 10 0
BBX 13 14 -2 -4
BITMAP
000BFF20CFF100
000EFE01FFD000
003FFB04FFA000
006FF707FF7000
009FF40AFF3000
00CFF10DFF0000
01FFD02FFC0070
04FFC09FFB0670
07FFFDBEFFDC00
0AFFE916EE9100
0DFF0000000000
1FFC0000000000
4FC60000000000
11000000000000
ENDCHAR
STARTCHAR paragraph
ENCODING 182
SWIDTH 542 0
DWIDTH 11 0
BBX 10 16 1 -1
BITMAP
0029DFD810
03EFFFEDB0
0DFFFFB9F1
5FFFFF8AF2
8FFFFF5EF0
7FFFFF3FC0
4FFFFD5F80
0BFFFA9F50
008EFFFF20
000AF4ED00
000EF3FA00
002FC6F700
005F8AF300
008F5DF000
00CF3FC000
00FD5F8000
ENDCHAR
STARTCHAR periodcentered
ENCODING 183
SWIDTH 434 0
DWIDTH 9 0
BBX 5 4 2 3
BITMAP
1BE800
7FFF20
7FFF20
1BE800
ENDCHAR
STARTCHAR cedilla
ENCODING 184
SWIDTH 227 0
DWIDTH 5 0
BBX 5 6 0 -5
BITMAP
01A000
067000
0CEF70
326FA0
7FFC20
012000
ENDCHAR
STARTCHAR uni00B9
ENCODING 185
SWIDTH 229 0
DWIDTH 5 0
BBX 4 9 1 6
BITMAP
1383
EFF2
2CD0
0FA0
3F70
6F40
AF10
DD00
A700
ENDCHAR
STARTCHAR ordmasculine
ENCODING 186
SWIDTH 329 0
DWIDTH 7 0
BBX 6 7 0 8
BITMAP
009EC0
08F6BA
0EB0B4
2F70D1
2F83B0
0CFD20
002000
ENDCHAR
STARTCHAR guillemotright
ENCODING 187
SWIDTH 586 0
DWIDTH 12 0
BBX 11 7 0 2
BITMAP
032000500000
05E700DB2000
002BD407E810
00006E602BD0
0005BD428D90
28DA45BD7100
77202A400000
ENDCHAR
STARTCHAR onequarter
ENCODING 188
SWIDTH 749 0
DWIDTH 15 0
BBX 14 15 1 0
BITMAP
138300000CA000
EFF200005F2000
2CD00000D80000
0FA00007E10000
3F70001E700000
6F40008D000000
AF1002F5000000
DD000AC009C1B8
A7003F3009F5F7
0000BA000C98F3
0005F2004C1CE0
000D9000CEEFF6
006E1000003F80
01E70000006F50
08D00000009F20
ENDCHAR
STARTCHAR onehalf
ENCODING 189
SWIDTH 745 0
DWIDTH 15 0
BBX 14 15 1 0
BITMAP
138300000CA000
EFF200005F2000
2CD00000D80000
0FA00007E10000
3F70001E700000
6F40008D000000
AF1002F5000000
DD000AC003CFC2
A7003F300C97F9
0000BA000C73F8
0005F2000118D1
000D9000005C20
006E100006B100
01E700004E4342
08D000009FFFD3
ENDCHAR
STARTCHAR threequarters
ENCODING 190
SWIDTH 836 0
DWIDTH 17 0
BBX 16 15 1 0
BITMAP
03CEA000001E6000
0DA7F600009D0000
0E83F60002F40000
012BA0000BB00000
005D70004F300000
8D19F300CA000000
E708F506E2000000
C71DD01D800C93B5
2AC9107E100CB8F3
000001E6001F5CE0
000009D000891FA0
00002F5002EEEFE3
0000AB0000007F40
0004F3000000AF10
000CA0000000DD00
ENDCHAR
STARTCHAR questiondown
ENCODING 191
SWIDTH 439 0
DWIDTH 9 0
BBX 9 15 -1 -5
BITMAP
000004EC10
00000AFF60
000004EC10
0000000000
0000008200
000002F200
00000AC000
00008F3000
001AF50000
01CF800000
0BFD05FE10
2FF800CF50
3FF800BF30
0DFE46FA00
02AEEC6000
ENDCHAR
STARTCHAR Agrave
ENCODING 192
SWIDTH 668 0
DWIDTH 13 0
BBX 14 22 0 -2
BITMAP
0000000002FD00
0000000000DF10
00000000008F30
00000000004F50
00000000000000
00000000018DFA
000000002DEFF9
00000002D98FF6
0000001DB0BFF2
0000009F20EFE0
000005F802FFB0
05BEFFFA56FF80
7FC5AF948EFF50
BF72FF200CFF10
3729FA000FFD00
001FF5003FFA00
007FE0006FF700
00CFA000AFF400
01FF7000DFF100
04FF3001FFC000
03FF2000000000
009E3000000000
ENDCHAR
STARTCHAR Aacute
ENCODING 193
SWIDTH 668 0
DWIDTH 13 0
BBX 16 22 0 -2
BITMAP
0000000000000682
0000000000003FB0
000000000000BE10
000000000004F500
0000000000000000
00000000018DFA00
000000002DEFF900
00000002D98FF600
0000001DB0BFF200
0000009F20EFE000
000005F802FFB000
05BEFFFA56FF8000
7FC5AF948EFF5000
BF72FF200CFF1000
3729FA000FFD0000
001FF5003FFA0000
007FE0006FF70000
00CFA000AFF40000
01FF7000DFF10000
04FF3001FFC00000
03FF200000000000
009E300000000000
ENDCHAR
STARTCHAR Acircumflex
ENCODING 194
SWIDTH 668 0
DWIDTH 13 0
BBX 16 22 0 -2
BITMAP
0000000000000510
0000000000008F60
00000000001BEBC0
0000000002B710B2
0000000000000000
00000000018DFA00
000000002DEFF900
00000002D98FF600
0000001DB0BFF200
0000009F20EFE000
000005F802FFB000
05BEFFFA56FF8000
7FC5AF948EFF5000
BF72FF200CFF1000
3729FA000FFD0000
001FF5003FFA0000
007FE0006FF70000
00CFA000AFF40000
01FF7000DFF10000
04FF3001FFC00000
03FF200000000000
009E300000000000
ENDCHAR
STARTCHAR Atilde
ENCODING 195
SWIDTH 668 0
DWIDTH 13 0
BBX 16 21 0 -2
BITMAP
0000000000575000
000000002DFFFD88
000000003139EE91
0000000000000000
00000000018DFA00
000000002DEFF900
00000002D98FF600
0000001DB0BFF200
0000009F20EFE000
000005F802FFB000
05BEFFFA56FF8000
7FC5AF948EFF5000
BF72FF200CFF1000
3729FA000FFD0000
001FF5003FFA0000
007FE0006FF70000
00CFA000AFF40000
01FF7000DFF10000
04FF3001FFC00000
03FF200000000000
009E300000000000
ENDCHAR
STARTCHAR Adieresis
ENCODING 196
SWIDTH 668 0
DWIDTH 13 0
BBX 16 21 0 -2
BITMAP
0000000000100110
000000000BF52FE1
0000000009E42DC0
0000000000000000
00000000018DFA00
000000002DEFF900
00000002D98FF600
0000001DB0BFF200
0000009F20EFE000
000005F802FFB000
05BEFFFA56FF8000
7FC5AF948EFF5000
BF72FF200CFF1000
3729FA000FFD0000
001FF5003FFA0000
007FE0006FF70000
00CFA000AFF40000
01FF7000DFF10000
04FF3001FFC00000
03FF200000000000
009E300000000000
ENDCHAR
STARTCHAR Aring
ENCODING 197
SWIDTH 668 0
DWIDTH 13 0
BBX 14 21 0 -2
BITMAP
00000000001BE5
00000000005A5A
00000000003FF6
00000000000110
00000000018DFA
000000002DEFF9
00000002D98FF6
0000001DB0BFF2
0000009F20EFE0
000005F802FFB0
05BEFFFA56FF80
7FC5AF948EFF50
BF72FF200CFF10
3729FA000FFD00
001FF5003FFA00
007FE0006FF700
00CFA000AFF400
01FF7000DFF100
04FF3001FFC000
03FF2000000000
009E3000000000
ENDCHAR
STARTCHAR AE
ENCODING 198
SWIDTH 764 0
DWIDTH 15 0
BBX 19 17 0 -2
BITMAP
00000000018DEA412810
000000002DDFFEFFF800
00000002D98FF6122000
0000001DB0BFF3000000
000000AE20EFF0000000
000005F802FFC0000000
05CFFFF946FF92210000
7FD5AF959EFFFFF60000
CF72FF200CFF65510000
493AFA000FFD00000000
001FF5003FFA00000000
008FE0006FF700000000
00CFA000AFF511110000
02FF7000DFFFFFF80000
04FF3001FFFFFFF50000
03FF2000000000000000
009E2000000000000000
ENDCHAR
STARTCHAR Ccedilla
ENCODING 199
SWIDTH 497 0
DWIDTH 10 0
BBX 11 19 0 -4
BITMAP
00003AEFD700
0006FFC46F60
003FFD100EA0
00DFF5004F90
06FFC0005810
0CFF70000000
1FFF30000000
5FFE00000000
7FFC00000000
9FFB00000000
9FFB00000000
8FFE00000630
5FFF8113AB00
0DFFFFFFB100
02AEFFC60000
0000A3000000
0001EFE20000
000319F10000
0019BA400000
ENDCHAR
STARTCHAR Egrave
ENCODING 200
SWIDTH 459 0
DWIDTH 9 0
BBX 10 20 0 0
BITMAP
00000CF300
000008F500
000003F800
000000EA00
0000000000
00003AEEA1
0004FF74E9
000EF900BC
004FF402E9
005FF40261
001EFA0000
0009FF9000
02CFF70000
0CFF800000
6FFE100000
BFFB000000
CFFA000026
BFFE3016C1
4FFFFEFC10
05CEEB5000
ENDCHAR
STARTCHAR Eacute
ENCODING 201
SWIDTH 459 0
DWIDTH 9 0
BBX 11 20 0 0
BITMAP
00000000CF30
00000005F700
0000000DC000
000000282000
000000000000
00003AEEA100
0004FF74E900
000EF900BC00
004FF402E900
005FF4026100
001EFA000000
0009FF900000
02CFF7000000
0CFF80000000
6FFE10000000
BFFB00000000
CFFA00002600
BFFE3016C100
4FFFFEFC1000
05CEEB500000
ENDCHAR
STARTCHAR Ecircumflex
ENCODING 202
SWIDTH 459 0
DWIDTH 9 0
BBX 10 20 0 0
BITMAP
00000005D0
0000008FF3
00001AB488
0000530006
0000000000
00003AEEA1
0004FF74E9
000EF900BC
004FF402E9
005FF40261
001EFA0000
0009FF9000
02CFF70000
0CFF800000
6FFE100000
BFFB000000
CFFA000026
BFFE3016C1
4FFFFEFC10
05CEEB5000
ENDCHAR
STARTCHAR Edieresis
ENCODING 203
SWIDTH 459 0
DWIDTH 9 0
BBX 11 19 0 0
BITMAP
00001DD15E70
00002EE17F90
000001100200
000000000000
00003AEEA100
0004FF74E900
000EF900BC00
004FF402E900
005FF4026100
001EFA000000
0009FF900000
02CFF7000000
0CFF80000000
6FFE10000000
BFFB00000000
CFFA00002600
BFFE3016C100
4FFFFEFC1000
05CEEB500000
ENDCHAR
STARTCHAR Igrave
ENCODING 204
SWIDTH 375 0
DWIDTH 8 0
BBX 8 20 0 0
BITMAP
00008F70
00004F90
00000EC0
00000AE0
00000000
00017CEC
007ECFF9
09F47FF6
6F80AFF3
CF20DFF0
CF01FFC0
6F15FF90
0108FF50
000BFF20
000EFE00
002FFB00
006FF800
009FF400
00CFF100
01FFD000
ENDCHAR
STARTCHAR Iacute
ENCODING 205
SWIDTH 375 0
DWIDTH 8 0
BBX 10 20 0 0
BITMAP
0000000385
0000000CE2
0000005F60
000000DB00
0000000000
00017CEC00
007ECFF900
09F47FF600
6F80AFF300
CF20DFF000
CF01FFC000
6F15FF9000
0108FF5000
000BFF2000
000EFE0000
002FFB0000
006FF80000
009FF40000
00CFF10000
01FFD00000
ENDCHAR
STARTCHAR Icircumflex
ENCODING 206
SWIDTH 375 0
DWIDTH 8 0
BBX 10 20 0 0
BITMAP
0000000510
0000008F60
00001BEBB0
0002B710B2
0000000000
00017CEC00
007ECFF900
09F47FF600
6F80AFF300
CF20DFF000
CF01FFC000
6F15FF9000
0108FF5000
000BFF2000
000EFE0000
002FFB0000
006FF80000
009FF40000
00CFF10000
01FFD00000
ENDCHAR
STARTCHAR Idieresis
ENCODING 207
SWIDTH 375 0
DWIDTH 8 0
BBX 10 19 0 0
BITMAP
0000110020
0002EE17F9
0001DC16E7
0000000000
00017CEC00
007ECFF900
09F47FF600
6F80AFF300
CF20DFF000
CF01FFC000
6F15FF9000
0108FF5000
000BFF2000
000EFE0000
002FFB0000
006FF80000
009FF40000
00CFF10000
01FFD00000
ENDCHAR
STARTCHAR Eth
ENCODING 208
SWIDTH 663 0
DWIDTH 13 0
BBX 13 15 0 0
BITMAP
00017CEFDA4000
006EC7436EF900
08F8379504FF50
5FA09FF400FFA0
BF30CFF100DFD0
DF10FFD000DFD0
9F03FFA000EFC0
044FFFFE01FFB0
001CFF4203FF80
000EFE0007FF40
002FFB000CFE00
005FF8003FF700
009FF500BFD100
00CFF84AFE3000
01FFE9DFB30000
ENDCHAR
STARTCHAR Ntilde
ENCODING 209
SWIDTH 686 0
DWIDTH 14 0
BBX 15 18 0 0
BITMAP
00000018DFDA7700
000000446ADC8100
0000000000000000
0006BEFB0000AF40
02CEAFFF1000DF10
1DE36FFF4001FC00
7F709FFF8004F900
CF30DFFFB007F600
CF21FEEFE00BF200
7F44FBAFF30EE000
0338F76FF62FB000
000BF43FF95F8000
000EF00EFD8F4000
002FC00BFFCF1000
006F8007FFFD0000
009F5004FFFA0000
00CF1001FFF60000
01FD0000CFF30000
ENDCHAR
STARTCHAR Ograve
ENCODING 210
SWIDTH 665 0
DWIDTH 13 0
BBX 14 20 0 0
BITMAP
000000CF300000
0000008F500000
0000003F800000
0000000EA00000
00000000000000
000038CEFDA200
002AFA644AFE20
03ED34CE30DFA0
1EE24FF5009FE0
8F71EFC0008FF1
AF48FF50009FF1
5F3EFE1000BFF0
015FFA0000EFD0
008FF70002FF90
00BFF40008FF40
00CFF3000DFD00
00CFF2007FF500
00AFF503EF9000
004FFEAEFA0000
0005CEEB500000
ENDCHAR
STARTCHAR Oacute
ENCODING 211
SWIDTH 665 0
DWIDTH 13 0
BBX 14 20 0 0
BITMAP
0000000007F800
000000000DD100
000000006F5000
00000000CB0000
00000000000000
000038CEFDA200
002AFA644AFE20
03ED34CE30DFA0
1EE24FF5009FE0
8F71EFC0008FF1
AF48FF50009FF1
5F3EFE1000BFF0
015FFA0000EFD0
008FF70002FF90
00BFF40008FF40
00CFF3000DFD00
00CFF2007FF500
00AFF503EF9000
004FFEAEFA0000
0005CEEB500000
ENDCHAR
STARTCHAR Ocircumflex
ENCODING 212
SWIDTH 665 0
DWIDTH 13 0
BBX 14 20 0 0
BITMAP
000000001C4000
00000001CF8000
0000002DD9D000
000002B600B200
00000000000000
000038CEFDA200
002AFA644AFE20
03ED34CE30DFA0
1EE24FF5009FE0
8F71EFC0008FF1
AF48FF50009FF1
5F3EFE1000BFF0
015FFA0000EFD0
008FF70002FF90
00BFF40008FF40
00CFF3000DFD00
00CFF2007FF500
00AFF503EF9000
004FFEAEFA0000
0005CEEB500000
ENDCHAR
STARTCHAR Otilde
ENCODING 213
SWIDTH 665 0
DWIDTH 13 0
BBX 14 19 0 0
BITMAP
00000004774112
000000AFFFFFE2
000002227DFB20
00000000000000
000038CEFDA200
002AFA644AFE20
03ED34CE30DFA0
1EE24FF5009FE0
8F71EFC0008FF1
AF48FF50009FF1
5F3EFE1000BFF0
015FFA0000EFD0
008FF70002FF90
00BFF40008FF40
00CFF3000DFD00
00CFF2007FF500
00AFF503EF9000
004FFEAEFA0000
0005CEEB500000
ENDCHAR
STARTCHAR Odieresis
ENCODING 214
SWIDTH 665 0
DWIDTH 13 0
BBX 14 19 0 0
BITMAP
000001DD15E700
000002EE17F900
00000011002000
00000000000000
000038CEFDA200
002AFA644AFE20
03ED34CE30DFA0
1EE24FF5009FE0
8F71EFC0008FF1
AF48FF50009FF1
5F3EFE1000BFF0
015FFA0000EFD0
008FF70002FF90
00BFF40008FF40
00CFF3000DFD00
00CFF2007FF500
00AFF503EF9000
004FFEAEFA0000
0005CEEB500000
ENDCHAR
STARTCHAR multiply
ENCODING 215
SWIDTH 414 0
DWIDTH 8 0
BBX 7 7 1 3
BITMAP
77006900
BF76FC10
1BFFC100
06FF8000
6FCCF700
CC11CD10
11001100
ENDCHAR
STARTCHAR Oslash
ENCODING 216
SWIDTH 658 0
DWIDTH 13 0
BBX 13 16 0 -1
BITMAP
000000005B0000
00005ADEFD6000
006EDEFFF9FA00
09F87FF8E1FF30
5FA2FFC3C0EF80
AF3AFF5690FF90
7F3FFE0961FF90
026FF90C34FF70
009FF51E07FF30
00CFF23B0CFE00
00DFF0783FF700
00EFE0A5BFD100
00BFF1D9FF4000
006FFBFFE40000
0006CFD6100000
00000870000000
ENDCHAR
STARTCHAR Ugrave
ENCODING 217
SWIDTH 716 0
DWIDTH 14 0
BBX 17 20 -1 0
BITMAP
000000000BF4000000
0000000007F6000000
0000000002F8000000
0000000000DB000000
000000000000000000
000027CEE4000CFF10
0008E8DFF1001FFC00
01BE31FFC0004FF900
09F504FF80007FF600
0FE008FF3000AFF200
1FC00CFE0000EFE000
09D01FFA0002FFB000
00004FF60005FF8000
00008FF20009FF4000
0000BFE0000DFE0000
0000DFC0003FFA0000
0000FFB0009FF40000
0000EFE105FFB00000
00009FFFFFFD100000
000019DFEC71000000
ENDCHAR
STARTCHAR Uacute
ENCODING 218
SWIDTH 716 0
DWIDTH 14 0
BBX 17 20 -1 0
BITMAP
000000000007F80000
00000000000ED10000
00000000006F500000
0000000000DB000000
000000000000000000
000027CEE4000CFF10
0008E8DFF1001FFC00
01BE31FFC0004FF900
09F504FF80007FF600
0FE008FF3000AFF200
1FC00CFE0000EFE000
09D01FFA0002FFB000
00004FF60005FF8000
00008FF20009FF4000
0000BFE0000DFE0000
0000DFC0003FFA0000
0000FFB0009FF40000
0000EFE105FFB00000
00009FFFFFFD100000
000019DFEC71000000
ENDCHAR
STARTCHAR Ucircumflex
ENCODING 219
SWIDTH 716 0
DWIDTH 14 0
BBX 17 20 -1 0
BITMAP
000000000003D00000
00000000004EF40000
0000000004EBB80000
000000005B401C0000
000000000000000000
000027CEE4000CFF10
0008E8DFF1001FFC00
01BE31FFC0004FF900
09F504FF80007FF600
0FE008FF3000AFF200
1FC00CFE0000EFE000
09D01FFA0002FFB000
00004FF60005FF8000
00008FF20009FF4000
0000BFE0000DFE0000
0000DFC0003FFA0000
0000FFB0009FF40000
0000EFE105FFB00000
00009FFFFFFD100000
000019DFEC71000000
ENDCHAR
STARTCHAR Udieresis
ENCODING 220
SWIDTH 716 0
DWIDTH 14 0
BBX 17 19 -1 0
BITMAP
000000003EA08E5000
000000004FC0AF6000
000000000100020000
000000000000000000
000027CEE4000CFF10
0008E8DFF1001FFC00
01BE31FFC0004FF900
09F504FF80007FF600
0FE008FF3000AFF200
1FC00CFE0000EFE000
09D01FFA0002FFB000
00004FF60005FF8000
00008FF20009FF4000
0000BFE0000DFE0000
0000DFC0003FFA0000
0000FFB0009FF40000
0000EFE105FFB00000
00009FFFFFFD100000
000019DFEC71000000
ENDCHAR
STARTCHAR Yacute
ENCODING 221
SWIDTH 620 0
DWIDTH 12 0
BBX 14 20 0 0
BITMAP
00000000000484
00000000000DE2
00000000006F60
0000000000DA00
00000000000000
00017CEF10008B
007E9FFF4001E4
09F40BFF8006D0
6F8007FFC00C60
CF2004FFF13E10
CF0000EFF49800
6F1000BFF9E200
0100007FFFA000
0000003FFF3000
0000004FFE0000
0000007FFB0000
000000AFF80000
000000EFF40000
000002FFF10000
000005FFD00000
ENDCHAR
STARTCHAR Thorn
ENCODING 222
SWIDTH 583 0
DWIDTH 12 0
BBX 12 16 0 0
BITMAP
000000020000
00001DFC0000
00004FF90000
00019FFFE920
005EFFF68FD1
07F9DFF10AF8
4FB1FFC006FC
AF44FF9006FC
DF17FF6009FA
AF0BFF301EF5
161EFE009FC0
002FFB29FD20
005FFFFF9100
009FF8200000
00CFF2000000
01FFD0000000
ENDCHAR
STARTCHAR germandbls
ENCODING 223
SWIDTH 480 0
DWIDTH 10 0
BBX 11 19 -2 -5
BITMAP
000003BEE800
00003EF69F40
0000CFC06F50
0004FF808F10
0009FF40DA00
000CFF14F200
001FFC0BA000
004FF909F800
007FF601EF30
00AFF300BF80
00EFE000AFB0
02FFB000DF90
05FF8549FE20
08FF58FEA300
0CFF10000000
0FFD00000000
3FFA00000000
6FF700000000
784100000000
ENDCHAR
STARTCHAR agrave
ENCODING 224
SWIDTH 526 0
DWIDTH 11 0
BBX 13 15 -1 0
BITMAP
000008F7000000
000004FA000000
000000EC000000
000000AE000000
00000000000000
0003BEEAFF7000
004FFA4DFF4000
01EFD00CFF1000
08FF600FFD0000
0DFF103FF90000
2FFC007FF60000
3FFB00AFF30620
3FFC03FFF22C00
0DFFDEAFFEE400
03CEB32CEB4000
ENDCHAR
STARTCHAR aacute
ENCODING 225
SWIDTH 526 0
DWIDTH 11 0
BBX 13 15 -1 0
BITMAP
00000008F80000
0000001ED00000
0000007F400000
000000C9000000
00000000000000
0003BEEAFF7000
004FFA4DFF4000
01EFD00CFF1000
08FF600FFD0000
0DFF103FF90000
2FFC007FF60000
3FFB00AFF30620
3FFC03FFF22C00
0DFFDEAFFEE400
03CEB32CEB4000
ENDCHAR
STARTCHAR acircumflex
ENCODING 226
SWIDTH 526 0
DWIDTH 11 0
BBX 13 15 -1 0
BITMAP
00000004D00000
0000005FF40000
000006E9A80000
000059201A0000
00000000000000
0003BEEAFF7000
004FFA4DFF4000
01EFD00CFF1000
08FF600FFD0000
0DFF103FF90000
2FFC007FF60000
3FFB00AFF30620
3FFC03FFF22C00
0DFFDEAFFEE400
03CEB32CEB4000
ENDCHAR
STARTCHAR atilde
ENCODING 227
SWIDTH 526 0
DWIDTH 11 0
BBX 13 14 -1 0
BITMAP
00003BEE955300
0002BCFFFF9000
00010027840000
00000000000000
0003BEEAFF7000
004FFA4DFF4000
01EFD00CFF1000
08FF600FFD0000
0DFF103FF90000
2FFC007FF60000
3FFB00AFF30620
3FFC03FFF22C00
0DFFDEAFFEE400
03CEB32CEB4000
ENDCHAR
STARTCHAR adieresis
ENCODING 228
SWIDTH 526 0
DWIDTH 11 0
BBX 13 14 -1 0
BITMAP
00003EB08E5000
00004FD09F7000
00000100020000
00000000000000
0003BEEAFF7000
004FFA4DFF4000
01EFD00CFF1000
08FF600FFD0000
0DFF103FF90000
2FFC007FF60000
3FFB00AFF30620
3FFC03FFF22C00
0DFFDEAFFEE400
03CEB32CEB4000
ENDCHAR
STARTCHAR aring
ENCODING 229
SWIDTH 526 0
DWIDTH 11 0
BBX 13 14 -1 0
BITMAP
000000AE600000
000004B5B00000
000002EF700000
00000012000000
0003BEEAFF7000
004FFA4DFF4000
01EFD00CFF1000
08FF600FFD0000
0DFF103FF90000
2FFC007FF60000
3FFB00AFF30620
3FFC03FFF22C00
0DFFDEAFFEE400
03CEB32CEB4000
ENDCHAR
STARTCHAR ae
ENCODING 230
SWIDTH 650 0
DWIDTH 13 0
BBX 15 10 -1 0
BITMAP
0004BEEC58DFC200
003C53AFFFD4E900
0000005FFF30E900
0000007FFA06F400
006CEFFFF66FA000
0AFF94EFFFE70000
1FFC02FFF2000130
2FFB08FFF1001A10
0EFFEEBFF836B200
04DFC31AEEC71000
ENDCHAR
STARTCHAR ccedilla
ENCODING 231
SWIDTH 384 0
DWIDTH 8 0
BBX 10 14 -1 -4
BITMAP
0003BEEA00
004FF97F40
01EFC05F30
07FF500200
0DFF100000
2FFC000000
3FFB000091
3FFE214C60
0DFFFFF700
03BEFB3000
0000B10000
0002FEC000
00041BE000
0029BA3000
ENDCHAR
STARTCHAR egrave
ENCODING 232
SWIDTH 384 0
DWIDTH 8 0
BBX 10 15 -1 0
BITMAP
0000AF5000
00006F7000
00002F9000
00000CC000
0000000000
0003BEEA00
004FF97F40
01EFC04F40
08FF50BE10
0DFF39F500
2FFFFC4000
3FFC100021
3FFB000390
0DFF547A10
03BEEB5000
ENDCHAR
STARTCHAR eacute
ENCODING 233
SWIDTH 384 0
DWIDTH 8 0
BBX 10 15 -1 0
BITMAP
0000001EE2
0000006F70
000000DC00
000005E400
0000000000
0003BEEA00
004FF97F40
01EFC04F40
08FF50BE10
0DFF39F500
2FFFFC4000
3FFC100021
3FFB000390
0DFF547A10
03BEEB5000
ENDCHAR
STARTCHAR ecircumflex
ENCODING 234
SWIDTH 384 0
DWIDTH 8 0
BBX 10 15 -1 0
BITMAP
0000004D00
000005FF30
00005F9B80
0006A201B0
0000000000
0003BEEA00
004FF97F40
01EFC04F40
08FF50BE10
0DFF39F500
2FFFFC4000
3FFC100021
3FFB000390
0DFF547A10
03BEEB5000
ENDCHAR
STARTCHAR edieresis
ENCODING 235
SWIDTH 384 0
DWIDTH 8 0
BBX 10 14 -1 0
BITMAP
0005E80BE3
0007FA0DF4
0000200010
0000000000
0003BEEA00
004FF97F40
01EFC04F40
08FF50BE10
0DFF39F500
2FFFFC4000
3FFC100021
3FFB000390
0DFF547A10
03BEEB5000
ENDCHAR
STARTCHAR igrave
ENCODING 236
SWIDTH 267 0
DWIDTH 5 0
BBX 8 15 -1 0
BITMAP
00BF4000
007F7000
002F9000
000DB000
00000000
00BFF200
00EFE000
03FFB000
06FF7000
09FF4000
0CFF1000
1FFD0071
2FFC05A0
1FFFEE20
06EE9200
ENDCHAR
STARTCHAR iacute
ENCODING 237
SWIDTH 267 0
DWIDTH 5 0
BBX 8 15 -1 0
BITMAP
00003FC0
0000AF30
0002F800
0007B100
00000000
00BFF200
00EFE000
03FFB000
06FF7000
09FF4000
0CFF1000
1FFD0071
2FFC05A0
1FFFEE20
06EE9200
ENDCHAR
STARTCHAR icircumflex
ENCODING 238
SWIDTH 267 0
DWIDTH 5 0
BBX 8 15 -1 0
BITMAP
00005C00
0006FF20
008E7B70
06710180
00000000
00BFF200
00EFE000
03FFB000
06FF7000
09FF4000
0CFF1000
1FFD0071
2FFC05A0
1FFFEE20
06EE9200
ENDCHAR
STARTCHAR idieresis
ENCODING 239
SWIDTH 267 0
DWIDTH 5 0
BBX 8 14 -1 0
BITMAP
06E71DC1
07F92EE1
00200110
00000000
00BFF200
00EFE000
03FFB000
06FF7000
09FF4000
0CFF1000
1FFD0071
2FFC05A0
1FFFEE20
06EE9200
ENDCHAR
STARTCHAR eth
ENCODING 240
SWIDTH 526 0
DWIDTH 11 0
BBX 13 15 -1 0
BITMAP
00000039600000
0000003FF8AA00
0000049EFF7300
00000A88FF2000
00000004FF5000
0003BEEAFF6000
004FFB4DFF4000
01EFD00CFF2000
08FF700EFE0000
0DFF203FFB0000
2FFD006FF80000
3FFB008FF50100
3FFB00DFF20A10
0DFE49FFF67600
03CFD74DEC5000
ENDCHAR
STARTCHAR ntilde
ENCODING 241
SWIDTH 505 0
DWIDTH 10 0
BBX 12 14 -1 0
BITMAP
00019EEB6550
000ABEFFFC10
001000475000
000000000000
00BFF9DEB100
00EFF78FF700
03FFB04FF800
06FF606FF600
09FF309FF300
0CFF00CFE000
1FFC00FFB018
4FF902FFA087
7FF600EFFDD1
AFF3005DEA20
ENDCHAR
STARTCHAR ograve
ENCODING 242
SWIDTH 433 0
DWIDTH 9 0
BBX 12 15 -1 0
BITMAP
00004FB00000
00000EE00000
00000AF10000
000006F30000
000000000000
0004BEE80000
005FF96F5000
02EFC03F8029
09FF509FDA92
0EFE104F9000
4FFC005F5000
5FF9008F1000
5FF901E90000
1EFD4BC10000
04CED9100000
ENDCHAR
STARTCHAR oacute
ENCODING 243
SWIDTH 439 0
DWIDTH 9 0
BBX 13 15 -1 0
BITMAP
0000000DF20000
0000006F800000
000000CD000000
000004E4000000
00000000000000
0003AEE9100000
003EFA4F700000
01EFD12EA01910
07FF707FEAA300
0DFF202FA00000
2FFD003F700000
4FFB007F200000
3FFB00DB000000
0DFE4AD2000000
03BEE920000000
ENDCHAR
STARTCHAR ocircumflex
ENCODING 244
SWIDTH 433 0
DWIDTH 9 0
BBX 12 15 -1 0
BITMAP
0000006B0000
000007FF1000
00008E8D5000
000891039000
000000000000
0004BEE80000
005FF96F5000
02EFC03F8029
09FF509FDA92
0EFE104F9000
4FFC005F5000
5FF9008F1000
5FF901E90000
1EFD4BC10000
04CED9100000
ENDCHAR
STARTCHAR otilde
ENCODING 245
SWIDTH 433 0
DWIDTH 9 0
BBX 12 14 -1 0
BITMAP
0019EEB64500
009CFFFFD200
011016971000
000000000000
0004BEE80000
005FF96F5000
02EFC03F8029
09FF509FDA92
0EFE104F9000
4FFC005F5000
5FF9008F1000
5FF901E90000
1EFD4BC10000
04CED9100000
ENDCHAR
STARTCHAR odieresis
ENCODING 246
SWIDTH 433 0
DWIDTH 9 0
BBX 12 14 -1 0
BITMAP
0009E42DC000
000BF62FE100
000010011000
000000000000
0004BEE80000
005FF96F5000
02EFC03F8029
09FF509FDA92
0EFE104F9000
4FFC005F5000
5FF9008F1000
5FF901E90000
1EFD4BC10000
04CED9100000
ENDCHAR
STARTCHAR divide
ENCODING 247
SWIDTH 415 0
DWIDTH 8 0
BBX 8 10 0 2
BITMAP
0002CE40
0006FFA0
0002CE40
00000000
1FFFFFFE
13333332
00000000
003DD200
009FF700
004ED200
ENDCHAR
STARTCHAR oslash
ENCODING 248
SWIDTH 428 0
DWIDTH 9 0
BBX 12 11 -2 -1
BITMAP
000029DEA2D2
0004EFA5FE30
001EFD00DB00
009FF609FB00
00EFF18BFA00
02FFC7B6F700
04FFEC1BF200
02FFF17F9000
00CFFEFC1000
02DCFD810000
1D4000000000
ENDCHAR
STARTCHAR ugrave
ENCODING 249
SWIDTH 505 0
DWIDTH 10 0
BBX 12 15 -1 0
BITMAP
00002FD00000
00000DF00000
000008F20000
000004F50000
000000000000
00BFF20CFF10
00EFE01FFD00
03FFB04FFA00
06FF707FF600
09FF40AFF300
0CFF10DFF000
1FFD02FFC008
2FFC0AFFB087
1FFFFAEFFEC0
06EE906EE810
ENDCHAR
STARTCHAR uacute
ENCODING 250
SWIDTH 505 0
DWIDTH 10 0
BBX 12 15 -1 0
BITMAP
0000000AF600
0000002FB000
0000009F2000
000001C60000
000000000000
00BFF20CFF10
00EFE01FFD00
03FFB04FFA00
06FF707FF600
09FF40AFF300
0CFF10DFF000
1FFD02FFC008
2FFC0AFFB087
1FFFFAEFFEC0
06EE906EE810
ENDCHAR
STARTCHAR ucircumflex
ENCODING 251
SWIDTH 505 0
DWIDTH 10 0
BBX 12 15 -1 0
BITMAP
0000001B5000
000001CFA000
00002DB6E000
0002A4007300
000000000000
00BFF20CFF10
00EFE01FFD00
03FFB04FFA00
06FF707FF600
09FF40AFF300
0CFF10DFF000
1FFD02FFC008
2FFC0AFFB087
1FFFFAEFFEC0
06EE906EE810
ENDCHAR
STARTCHAR udieresis
ENCODING 252
SWIDTH 505 0
DWIDTH 10 0
BBX 12 14 -1 0
BITMAP
0001DC16E700
0002FE18F900
000011002000
000000000000
00BFF20CFF10
00EFE01FFD00
03FFB04FFA00
06FF707FF600
09FF40AFF300
0CFF10DFF000
1FFD02FFC008
2FFC0AFFB087
1FFFFAEFFEC0
06EE906EE810
ENDCHAR
STARTCHAR yacute
ENCODING 253
SWIDTH 505 0
DWIDTH 10 0
BBX 12 20 -1 -5
BITMAP
0000000AF600
0000002FB000
0000009E2000
000001C60000
000000000000
00BFF20CFF10
00EFE01FFD00
03FFB04FFA00
06FF707FF600
09FF40AFF300
0CFF10DFF000
1FFD02FFC044
2FFC0AFF80C2
1FFFFFFF6970
06EE9CFFD600
0004BFFE0000
007C6FFB0000
00F17FF70000
01FAEFE10000
006EEA200000
ENDCHAR
STARTCHAR thorn
ENCODING 254
SWIDTH 473 0
DWIDTH 9 0
BBX 11 20 -2 -5
BITMAP
000059B30000
0000DFF00000
0001FFB00000
0004FF800000
0008FF400000
000BFF8DEB10
000EFF76FF80
002FFA00EFC0
006FF700EFC0
009FF400FFB0
00CFF103FF90
01FFD009FF40
03FF902EFC00
07FFA4DFE200
0AFFAEEA2000
0DFE00000000
1FFC00000000
5FF800000000
8FF500000000
884000000000
ENDCHAR
STARTCHAR ydieresis
ENCODING 255
SWIDTH 505 0
DWIDTH 10 0
BBX 12 19 -1 -5
BITMAP
0004E90AE400
0006FB0CF500
000020001000
000000000000
00BFF20CFF10
00EFE01FFD00
03FFB04FFA00
06FF707FF600
09FF40AFF300
0CFF10DFF000
1FFD02FFC044
2FFC0AFF80C2
1FFFFFFF6970
06EE9CFFD600
0004BFFE0000
007C6FFB0000
00F17FF70000
01FAEFE10000
006EEA200000
ENDCHAR
STARTCHAR Amacron
ENCODING 256
SWIDTH 668 0
DWIDTH 13 0
BBX 16 20 0 -2
BITMAP
000000000EFFFFF8
0000000003333331
0000000000000000
00000000018DFA00
000000002DEFF900
00000002D98FF600
0000001DB0BFF200
0000009F20EFE000
000005F802FFB000
05BEFFFA56FF8000
7FC5AF948EFF5000
BF72FF200CFF1000
3729FA000FFD0000
001FF5003FFA0000
007FE0006FF70000
00CFA000AFF40000
01FF7000DFF10000
04FF3001FFC00000
03FF200000000000
009E300000000000
ENDCHAR
STARTCHAR amacron
ENCODING 257
SWIDTH 526 0
DWIDTH 11 0
BBX 13 14 -1 0
BITMAP
00008FFFFFD000
00002333332000
00000000000000
00000000000000
0003BEEAFF7000
004FFA4DFF4000
01EFD00CFF1000
08FF600FFD0000
0DFF103FF90000
2FFC007FF60000
3FFB00AFF30620
3FFC03FFF22C00
0DFFDEAFFEE400
03CEB32CEB4000
ENDCHAR
STARTCHAR Abreve
ENCODING 258
SWIDTH 668 0
DWIDTH 13 0
BBX 17 21 0 -2
BITMAP
000000000BF1006F50
0000000007F803EC00
0000000000AFFE9100
000000000000200000
00000000018DFA0000
000000002DEFF90000
00000002D98FF60000
0000001DB0BFF20000
0000009F20EFE00000
000005F802FFB00000
05BEFFFA56FF800000
7FC5AF948EFF500000
BF72FF200CFF100000
3729FA000FFD000000
001FF5003FFA000000
007FE0006FF7000000
00CFA000AFF4000000
01FF7000DFF1000000
04FF3001FFC0000000
03FF20000000000000
009E30000000000000
ENDCHAR
STARTCHAR abreve
ENCODING 259
SWIDTH 526 0
DWIDTH 11 0
BBX 13 15 -1 0
BITMAP
0000ED0009F200
0000AF505F9000
00002CFFD70000
00000011000000
00000000000000
0003BEEAFF7000
004FFA4DFF4000
01EFD00CFF1000
08FF600FFD0000
0DFF103FF90000
2FFC007FF60000
3FFB00AFF30620
3FFC03FFF22C00
0DFFDEAFFEE400
03CEB32CEB4000
ENDCHAR
STARTCHAR Aogonek
ENCODING 260
SWIDTH 668 0
DWIDTH 13 0
BBX 14 20 0 -5
BITMAP
00000000018DFA
000000002DEFF9
00000002D98FF6
0000001DB0BFF2
0000009F20EFE0
000005F802FFB0
05BEFFFA56FF80
7FC5AF948EFF50
BF71EF200CFF10
3729FB000FFD00
001EF6003FFA00
006FF1006FF700
00BFB000AFF400
01FF7000DFF100
03FF4001FFC000
04FF2001C70000
01EF1008E00000
0027200BF26000
00000006FE5000
00000000210000
ENDCHAR
STARTCHAR aogonek
ENCODING 261
SWIDTH 526 0
DWIDTH 11 0
BBX 13 15 -1 -5
BITMAP
0003BEEAFF7000
004FFB4DFF4000
01EFD00CFF1000
08FF700EFD0000
0DFF203FFA0000
2FFD006FF70000
3FFB008FF40110
3FFB00DFF20B10
0DFE49EFF77800
03CFD64DFFA000
00000006F50000
0000001E900000
0000003F914000
0000000CFB1000
00000000200000
ENDCHAR
STARTCHAR Cacute
ENCODING 262
SWIDTH 497 0
DWIDTH 10 0
BBX 11 20 0 0
BITMAP
00000000BF50
00000003F900
0000000BD100
000000183000
000000000000
00003AEFD700
0006FFC46F60
004FFD100EA0
01DFF5004F90
06FFD0005810
0CFF70000000
1FFF30000000
5FFF00000000
7FFC00000000
9FFB00000000
9FFB00000000
8FFD00000430
5FFF70018B00
0CFFFEEFB100
019DFEB50000
ENDCHAR
STARTCHAR cacute
ENCODING 263
SWIDTH 384 0
DWIDTH 8 0
BBX 10 15 -1 0
BITMAP
00000008F7
0000001ED0
0000007F40
000000DA00
0000000000
0003BEE900
004FFA7F40
01EFD04F40
07FF702600
0DFF200000
2FFD000000
3FFB000011
3FFB000290
0DFE547A10
03BEEB5000
ENDCHAR
STARTCHAR Ccircumflex
ENCODING 264
SWIDTH 497 0
DWIDTH 10 0
BBX 11 20 0 0
BITMAP
00000005D000
0000008FF300
00001AB48800
000053000600
000000000000
00003AEFD700
0006FFC46F60
004FFD100EA0
01DFF5004F90
06FFD0005810
0CFF70000000
1FFF30000000
5FFF00000000
7FFC00000000
9FFB00000000
9FFB00000000
8FFD00000430
5FFF70018B00
0CFFFEEFB100
019DFEB50000
ENDCHAR
STARTCHAR ccircumflex
ENCODING 265
SWIDTH 384 0
DWIDTH 8 0
BBX 10 15 -1 0
BITMAP
0000003D00
000004EF40
00005FAB80
0005A301B0
0000000000
0003BEE900
004FFA7F40
01EFD04F40
07FF702600
0DFF200000
2FFD000000
3FFB000011
3FFB000290
0DFE547A10
03BEEB5000
ENDCHAR
STARTCHAR Cdotaccent
ENCODING 266
SWIDTH 497 0
DWIDTH 10 0
BBX 11 20 0 0
BITMAP
00000004ED20
0000000AFF70
00000004ED20
000000000000
000000000000
00003AEFD700
0006FFC46F60
004FFD100EA0
01DFF5004F90
06FFD0005810
0CFF70000000
1FFF30000000
5FFF00000000
7FFC00000000
9FFB00000000
9FFB00000000
8FFD00000430
5FFF70018B00
0CFFFEEFB100
019DFEB50000
ENDCHAR
STARTCHAR cdotaccent
ENCODING 267
SWIDTH 384 0
DWIDTH 8 0
BBX 10 15 -1 0
BITMAP
000003DD20
000009FF70
000004ED20
0000000000
0000000000
0003BEE900
004FFA7F40
01EFD04F40
07FF702600
0DFF200000
2FFD000000
3FFB000011
3FFB000290
0DFE547A10
03BEEB5000
ENDCHAR
STARTCHAR Ccaron
ENCODING 268
SWIDTH 497 0
DWIDTH 10 0
BBX 12 20 0 0
BITMAP
000001C106B3
000000ACDC10
0000004FA000
000000060000
000000000000
00003AEFD700
0006FFC46F60
004FFD100EA0
01DFF5004F90
06FFD0005810
0CFF70000000
1FFF30000000
5FFF00000000
7FFC00000000
9FFB00000000
9FFB00000000
8FFD00000430
5FFF70018B00
0CFFFEEFB100
019DFEB50000
ENDCHAR
STARTCHAR ccaron
ENCODING 269
SWIDTH 384 0
DWIDTH 8 0
BBX 11 15 -1 0
BITMAP
00000C104B40
000009BBE400
000005FE3000
000001D20000
000000000000
0003BEEA0000
004FFA7F4000
01EFD04F3000
07FF60130000
0DFF10000000
2FFD00000000
3FFB00005100
3FFC00088000
0DFFCBE90000
03BEEB400000
ENDCHAR
STARTCHAR Dcaron
ENCODING 270
SWIDTH 663 0
DWIDTH 13 0
BBX 13 20 0 0
BITMAP
000000B103B500
0000008BAE4000
0000004FE40000
0000000D300000
00000000000000
00017BDFEB4000
006ED7448FF700
08F838A506FF30
5FB09FF401FF90
BF40CFF100DFC0
DF11FFD000DFD0
9F04FFA000EFC0
0517FF6001FFB0
000BFF3004FF80
000EFF0007FF40
002FFC000CFE00
005FF8003FF700
009FF500BFD100
00CFF84AFE3000
01FFE9DFB30000
ENDCHAR
STARTCHAR dcaron
ENCODING 271
SWIDTH 525 0
DWIDTH 11 0
BBX 15 15 -1 0
BITMAP
0000000000008E50
0000000038A49F90
00000000BFF31F40
00000000EFE07800
00000002FFB01000
0003BEEAFF800000
004FFB4DFF500000
01EFD00CFF200000
08FF700FFE000000
0DFF203FFB000000
2FFD006FF8000000
3FFB009FF5010000
3FFB00DFF20A1000
0DFE49FFF6760000
03CFD64DEC500000
ENDCHAR
STARTCHAR Dcroat
ENCODING 272
SWIDTH 663 0
DWIDTH 13 0
BBX 13 15 0 0
BITMAP
00017CEFDA4000
006EC7436EF900
08F8379504FF50
5FA09FF400FFA0
BF30CFF100DFD0
DF10FFD000DFD0
9F03FFA000EFC0
044FFFFE01FFB0
001CFF4203FF80
000EFE0007FF40
002FFB000CFE00
005FF8003FF700
009FF500BFD100
00CFF84AFE3000
01FFE9DFB30000
ENDCHAR
STARTCHAR dcroat
ENCODING 273
SWIDTH 525 0
DWIDTH 11 0
BBX 13 14 -1 0
BITMAP
0000000048A400
00000000BFF300
000000AFFFFF80
00000025FFC310
0003BEE9FF9000
004FFB4DFF5000
01EFD00CFF2000
08FF700FFE0000
0DFF203FFB0000
2FFD006FF80000
3FFB009FF50100
3FFB00DFF20A10
0DFE49FFF67600
03CFD64DEC5000
ENDCHAR
STARTCHAR Emacron
ENCODING 274
SWIDTH 459 0
DWIDTH 9 0
BBX 12 18 0 0
BITMAP
00005FFFFFF1
000013333330
000000000000
00003AEEA100
0004FF74E900
000EF900BC00
004FF402E900
005FF4026100
001EFA000000
0009FF900000
02CFF7000000
0CFF80000000
6FFE10000000
BFFB00000000
CFFA00002600
BFFE3016C100
4FFFFEFC1000
05CEEB500000
ENDCHAR
STARTCHAR emacron
ENCODING 275
SWIDTH 384 0
DWIDTH 8 0
BBX 10 14 -1 0
BITMAP
003FFFFFF3
0013333330
0000000000
0000000000
0003BEEA00
004FF97F40
01EFC04F40
08FF50BE10
0DFF39F500
2FFFFC4000
3FFC100021
3FFB000390
0DFF547A10
03BEEB5000
ENDCHAR
STARTCHAR Ebreve
ENCODING 276
SWIDTH 459 0
DWIDTH 9 0
BBX 12 19 0 0
BITMAP
00007F7017F7
00001AFFFD60
000000121000
000000000000
00003AEEA100
0004FF74E900
000EF900BC00
004FF402E900
005FF4026100
001EFA000000
0009FF900000
02CFF7000000
0CFF80000000
6FFE10000000
BFFB00000000
CFFA00002600
BFFE3016C100
4FFFFEFC1000
05CEEB500000
ENDCHAR
STARTCHAR ebreve
ENCODING 277
SWIDTH 384 0
DWIDTH 8 0
BBX 10 15 -1 0
BITMAP
007F4002F9
004FB12CE2
0007FFFA20
0000020000
0000000000
0003BEEA00
004FF97F40
01EFC04F40
08FF50BE10
0DFF39F500
2FFFFC4000
3FFC100021
3FFB000390
0DFF547A10
03BEEB5000
ENDCHAR
STARTCHAR Edotaccent
ENCODING 278
SWIDTH 459 0
DWIDTH 9 0
BBX 10 20 0 0
BITMAP
0000003DD3
0000008FF9
0000003DD3
0000000000
0000000000
00003AEEA1
0004FF74E9
000EF900BC
004FF402E9
005FF40261
001EFA0000
0009FF9000
02CFF70000
0CFF800000
6FFE100000
BFFB000000
CFFA000026
BFFE3016C1
4FFFFEFC10
05CEEB5000
ENDCHAR
STARTCHAR edotaccent
ENCODING 279
SWIDTH 384 0
DWIDTH 8 0
BBX 10 15 -1 0
BITMAP
000004EC10
00000BFF60
000005EC10
0000000000
0000000000
0003BEEA00
004FF97F40
01EFC04F40
08FF50BE10
0DFF39F500
2FFFFC4000
3FFC100021
3FFB000390
0DFF547A10
03BEEB5000
ENDCHAR
STARTCHAR Eogonek
ENCODING 280
SWIDTH 459 0
DWIDTH 9 0
BBX 10 20 0 -5
BITMAP
0003AEED70
004FFB45E9
00DFD000BE
01FF9001ED
01FFC003A5
008FF60000
000AFF9000
01AFFB2000
0CFFA00000
7FFE100000
BFFC000000
BFFD000015
8FFF8001A4
1DFFFDCF70
029EFEF700
00000B8000
00005F2000
00008F4420
00003FF700
0000011000
ENDCHAR
STARTCHAR eogonek
ENCODING 281
SWIDTH 384 0
DWIDTH 8 0
BBX 10 15 -1 -5
BITMAP
0003BEEA00
004FF97F40
01EFC04F40
08FF50BE10
0DFF39F500
2FFFFC4000
3FFB100031
3FFC0005B0
0DFFA9CD20
03BEFFB100
0000C90000
0006F10000
0009F34100
0004FF7000
0000110000
ENDCHAR
STARTCHAR Ecaron
ENCODING 282
SWIDTH 459 0
DWIDTH 9 0
BBX 12 20 0 0
BITMAP
000000B205B4
0000008CDD20
0000002FB100
000000060000
000000000000
00003AEEA100
0004FF74E900
000EF900BC00
004FF402E900
005FF4026100
001EFA000000
0009FF900000
02CFF7000000
0CFF80000000
6FFE10000000
BFFB00000000
CFFA00002600
BFFE3016C100
4FFFFEFC1000
05CEEB500000
ENDCHAR
STARTCHAR ecaron
ENCODING 283
SWIDTH 384 0
DWIDTH 8 0
BBX 11 15 -1 0
BITMAP
00000C004B40
00000AABE300
000006FD2000
000001C20000
000000000000
0003BEEA0000
004FF97F4000
01EFC04F4000
08FF60AD0000
0DFF29E30000
2FFFD9200000
3FFB00004100
3FFB00048000
0DFF54890000
03BEEB400000
ENDCHAR
STARTCHAR Gcircumflex
ENCODING 284
SWIDTH 578 0
DWIDTH 12 0
BBX 12 25 0 -5
BITMAP
000000005C00
00000006FF20
0000007E8C60
000007910290
000000000000
00004ADEEB30
001AFFB54DE2
00CFF9000AF5
08FFC0002EC1
1EFF40000000
5FFD00000000
8FF900006B90
9FF80000BFA0
8FF70002FF70
4FFA0009FF40
0CFF517FFF10
02BFFF9CFC00
0001210FF900
0002203FF600
00AFF97FF200
06F714AFC000
09F101EF6000
06F719FC0000
008FFFA10000
000121000000
ENDCHAR
STARTCHAR gcircumflex
ENCODING 285
SWIDTH 507 0
DWIDTH 10 0
BBX 12 20 -1 -5
BITMAP
00000004D000
0000005FF400
000006E9A800
000059201A00
000000000000
0003BEEAFF70
004FFA4DFF40
01EFD00CFF10
08FF501FFD00
0DFF104FF900
2FFC007FF600
3FFB00BFF308
3FFD04FFE068
0DFFEFFFC4C1
03CFC8FFEA10
00018EFF6000
002E9CFF2000
00990EFD0000
009A8FF60000
002CED600000
ENDCHAR
STARTCHAR Gbreve
ENCODING 286
SWIDTH 578 0
DWIDTH 12 0
BBX 13 24 0 -5
BITMAP
000005F7001EB0
000002FC11AF30
0000006EFFB300
00000000210000
00004ADEEA2000
001AFFB54DD100
00CFF90009F400
08FFC0000DF300
1EFF40002A7000
5FFD0000000000
8FF90000243000
9FF80000AFB000
8FF70001EF8000
4FFA0008FF5000
0CFF516FFF1000
02BFFF9CFD0000
0001210FFA0000
0002203FF60000
00AFF97FF30000
06F714AFD00000
09F101EF700000
06F719FC000000
008FFFB1000000
00012100000000
ENDCHAR
STARTCHAR gbreve
ENCODING 287
SWIDTH 507 0
DWIDTH 10 0
BBX 12 20 -1 -5
BITMAP
0000ED0009F2
0000AF505F90
00002CFFD700
000000110000
000000000000
0003BEEAFF70
004FFA4DFF40
01EFD00CFF10
08FF501FFD00
0DFF104FF900
2FFC007FF600
3FFB00BFF308
3FFD04FFE068
0DFFEFFFC4C1
03CFC8FFEA10
00018EFF6000
002E9CFF2000
00990EFD0000
009A8FF60000
002CED600000
ENDCHAR
STARTCHAR Gdotaccent
ENCODING 288
SWIDTH 578 0
DWIDTH 12 0
BBX 12 24 0 -5
BITMAP
0000000BE600
0000003FFD00
0000000BE700
000000000000
00004ADEEA20
001AFFB54DD1
00CFF90009F4
08FFC0000DF3
1EFF40002A70
5FFD00000000
8FF900002430
9FF80000AFB0
8FF70001EF80
4FFA0008FF50
0CFF516FFF10
02BFFF9CFD00
0001210FFA00
0002203FF600
00AFF97FF300
06F714AFD000
09F101EF7000
06F719FC0000
008FFFB10000
000121000000
ENDCHAR
STARTCHAR gdotaccent
ENCODING 289
SWIDTH 507 0
DWIDTH 10 0
BBX 12 20 -1 -5
BITMAP
0000005EC100
000000BFF500
0000005EC100
000000000000
000000000000
0003BEEAFF70
004FFA4DFF40
01EFD00CFF10
08FF501FFD00
0DFF104FF900
2FFC007FF600
3FFB00BFF308
3FFD04FFE068
0DFFEFFFC4C1
03CFC8FFEA10
00018EFF6000
002E9CFF2000
00990EFD0000
009A8FF60000
002CED600000
ENDCHAR
STARTCHAR Gcommaaccent
ENCODING 290
SWIDTH 578 0
DWIDTH 12 0
BBX 11 20 0 -5
BITMAP
000029EEC400
0005FFB4BF20
005FFB006F70
01EFF300AF70
09FFA001BB10
1FFF40000000
6FFE00000000
AFFB00000000
BFF90000BF90
DFF70000EF60
DFF70005FF20
BFF8000BFD00
7FFC004FFA00
1DFF76EFF600
02AEEB8FF300
000000000000
0000CE100000
0000BF200000
000069000000
000060000000
ENDCHAR
STARTCHAR gcommaaccent
ENCODING 291
SWIDTH 507 0
DWIDTH 10 0
BBX 12 20 -1 -5
BITMAP
000000093000
0000007D0000
000000AF6000
000000271000
000000000000
0003BEEAFF70
004FFA4DFF40
01EFD00CFF10
08FF501FFD00
0DFF104FF900
2FFC007FF600
3FFB00BFF308
3FFD04FFE068
0DFFEFFFC4C1
03CFC8FFEA10
00018EFF6000
002E9CFF2000
00990EFD0000
009A8FF60000
002CED600000
ENDCHAR
STARTCHAR Hcircumflex
ENCODING 292
SWIDTH 665 0
DWIDTH 13 0
BBX 14 20 0 0
BITMAP
00000000002400
0000000004EB00
000000007FBF10
00000009920660
00000000000000
00017BEE002FFC
006DAFFB005FF8
08F45FF8008FF5
5F909FF500CFF2
AF40CFF100EFE0
BF20FFD225FFB0
4D33FFFFFFFF80
0006FF955BFF40
0009FF400CFF10
000DFF101FFD00
001FFC004FFA00
004FF9007FF700
007FF600AFF300
00AFF300DFF100
00DFE001FFC000
ENDCHAR
STARTCHAR hcircumflex
ENCODING 293
SWIDTH 505 0
DWIDTH 10 0
BBX 12 18 -1 0
BITMAP
000004D10000
00006FF50000
0009C57A0000
004400060000
0008AC000000
001FFC000000
004FF8000000
008FF5000000
00BFF9DEA100
00EFF78FF600
02FFB04FF800
06FF606FF700
09FF309FF400
0CFF00CFF100
0FFC00FFD003
3FF902FFA039
7FF600EFD4B1
AFF3005DEB20
ENDCHAR
STARTCHAR Hbar
ENCODING 294
SWIDTH 665 0
DWIDTH 13 0
BBX 15 15 0 0
BITMAP
00017BEE001FFC00
006ECFFC004FF900
08F74FF9007FF600
5FA07FF600AFF300
AF49FFFFFFFFFFA0
AF20EFE002FFC000
3B32FFFFFFFF9000
0005FF833BFF5000
0009FF300DFF2000
000CFF001FFE0000
000FFC004FFA0000
003FF9007FF70000
007FF600AFF40000
00AFF300DFF10000
00DFE001FFC00000
ENDCHAR
STARTCHAR hbar
ENCODING 295
SWIDTH 505 0
DWIDTH 10 0
BBX 12 14 -1 0
BITMAP
00069B000000
001FFC000000
0AFFFFF80000
028FF7310000
00AFF9DEB100
00DFF78FF700
02FFB04FF800
05FF606FF600
08FF309FF300
0CFF00CFE000
0FFC00FFB019
3FF902FFB096
7FF600EFFFD0
AFF3005DEA10
ENDCHAR
STARTCHAR Itilde
ENCODING 296
SWIDTH 375 0
DWIDTH 8 0
BBX 11 19 0 0
BITMAP
000037620010
0008FFFFA840
001316CFC400
000000000000
00017CEC0000
007ECFF90000
09F47FF60000
6F80AFF30000
CF20DFF00000
CF01FFC00000
6F15FF900000
0108FF500000
000BFF200000
000EFE000000
002FFB000000
006FF8000000
009FF4000000
00CFF1000000
01FFD0000000
ENDCHAR
STARTCHAR itilde
ENCODING 297
SWIDTH 267 0
DWIDTH 5 0
BBX 8 14 -1 0
BITMAP
009EC660
05BFFF50
01027400
00000000
00BFF200
00EFE000
03FFB000
06FF7000
09FF4000
0CFF1000
1FFD0071
2FFC05A0
1FFFEE20
06EE9200
ENDCHAR
STARTCHAR Imacron
ENCODING 298
SWIDTH 375 0
DWIDTH 8 0
BBX 10 18 0 0
BITMAP
000BFFFFFA
0003333331
0000000000
00017CEC00
007ECFF900
09F47FF600
6F80AFF300
CF20DFF000
CF01FFC000
6F15FF9000
0108FF5000
000BFF2000
000EFE0000
002FFB0000
006FF80000
009FF40000
00CFF10000
01FFD00000
ENDCHAR
STARTCHAR imacron
ENCODING 299
SWIDTH 267 0
DWIDTH 5 0
BBX 8 14 -1 0
BITMAP
06FFFFD0
02333320
00000000
00000000
00BFF200
00EFE000
03FFB000
06FF7000
09FF4000
0CFF1000
1FFD0071
2FFC05A0
1FFFEE20
06EE9200
ENDCHAR
STARTCHAR Ibreve
ENCODING 300
SWIDTH 375 0
DWIDTH 8 0
BBX 11 19 0 0
BITMAP
0007F5002F90
0003FB12CE20
00007EFFB200
000000210000
00017CEC0000
007ECFF90000
09F47FF60000
6F80AFF30000
CF20DFF00000
CF01FFC00000
6F15FF900000
0108FF500000
000BFF200000
000EFE000000
002FFB000000
006FF8000000
009FF4000000
00CFF1000000
01FFD0000000
ENDCHAR
STARTCHAR ibreve
ENCODING 301
SWIDTH 267 0
DWIDTH 5 0
BBX 8 15 -1 0
BITMAP
04F300E7
01F808E1
007FFC30
00001000
00000000
00BFF200
00EFE000
03FFB000
06FF7000
09FF4000
0CFF1000
1FFD0071
2FFC05A0
1FFFEE20
06EE9200
ENDCHAR
STARTCHAR Iogonek
ENCODING 302
SWIDTH 375 0
DWIDTH 8 0
BBX 8 25 0 -5
BITMAP
0006F900
0002FB00
0000DD00
00008F00
00000000
00017CEC
007EBFF9
09F47FF6
6F80AFF3
CF20DFF0
CF01FFC0
6F15FF90
0108FF50
000BFF20
000EFE00
002FFB00
006FF800
009FF400
00CFF100
01FFD000
01C40000
09E00000
0CF33600
05FFC200
00120000
ENDCHAR
STARTCHAR iogonek
ENCODING 303
SWIDTH 267 0
DWIDTH 5 0
BBX 8 19 -1 -5
BITMAP
000AE700
003FFD00
000BE700
00000000
00BFF200
00EFE000
03FFB000
06FF7000
09FF4000
0CFF1000
1FFD0071
2FFC05A0
0FFFEE20
07FE9200
2D300000
AD000000
CE236000
6FFC2000
01200000
ENDCHAR
STARTCHAR Idotaccent
ENCODING 304
SWIDTH 375 0
DWIDTH 8 0
BBX 9 19 0 0
BITMAP
000001CE40
000006FFA0
000002CE40
0000000000
00017CEC00
007ECFF900
09F47FF600
6F80AFF300
CF20DFF000
CF01FFC000
6F15FF9000
0108FF5000
000BFF2000
000EFE0000
002FFB0000
006FF80000
009FF40000
00CFF10000
01FFD00000
ENDCHAR
STARTCHAR dotlessi
ENCODING 305
SWIDTH 267 0
DWIDTH 5 0
BBX 8 10 -1 0
BITMAP
00BFF200
00EFE000
03FFB000
06FF7000
09FF4000
0CFF1000
1FFD0071
2FFC05A0
1FFFEE20
06EE9200
ENDCHAR
STARTCHAR IJ
ENCODING 306
SWIDTH 663 0
DWIDTH 13 0
BBX 14 20 0 -5
BITMAP
00017CEC0039C5
007EBFF900BFF2
09F47FF600EFE0
6F80AFF303FFB0
CF20DFF006FF80
CF01FFC009FF40
6F15FF800DFF10
0108FF501FFD00
000BFF204FFA00
000EFE007FF700
002FFB00BFF400
006FF700EFF100
009FF402FFC000
00CFF206FF9000
01FFFE39FF6000
009F522CFF2000
00BE002FFA0000
008F51AFE20000
001AFFFC300000
00001210000000
ENDCHAR
STARTCHAR ij
ENCODING 307
SWIDTH 507 0
DWIDTH 10 0
BBX 12 19 -1 -5
BITMAP
000AE7008E90
003FFD00FFF1
000BE7009E90
000000000000
00BFF206FF70
00EFE009FF40
03FFB00CFF10
06FF701FFD00
09FF404FF900
0CFF107FF600
1FFD00AFF308
2FFC00DFE068
1FFFE2FFC4C1
06EE65FFEA10
00017DFF6000
001D7CFF2000
00981FFD0000
009DCFF60000
002CED600000
ENDCHAR
STARTCHAR Jcircumflex
ENCODING 308
SWIDTH 536 0
DWIDTH 11 0
BBX 13 25 0 -5
BITMAP
00000000005B00
0000000006FF10
000000007F9D50
00000008A20390
00000000000000
000000039DF700
000001AEDFF400
00001DC1CFF100
0000BF21FFC000
0002FC04FF9000
0003FA07FF6000
0001CA0BFF3000
0000020EFE0000
0000002FFC0000
0000006FF80000
0000009FF50000
000000CFF20000
000001FFE00000
002204FFB00000
1CFF97FF700000
7F714BFF300000
9F101EFC000000
6F618FF3000000
0AFFFC40000000
00121000000000
ENDCHAR
STARTCHAR jcircumflex
ENCODING 309
SWIDTH 240 0
DWIDTH 5 0
BBX 10 20 -4 -5
BITMAP
0000000890
0000009FE0
00001BD6D4
0000860036
0000000000
00000BFF20
00000EFE00
00002FFB00
00006FF800
00009FF500
0000CFF200
0000FFE023
0003FFB084
0007FF83A0
000AFFB910
029FFF2000
5EAFFC0000
E54FF80000
E6BFE20000
5DEB300000
ENDCHAR
STARTCHAR Kcommaaccent
ENCODING 310
SWIDTH 601 0
DWIDTH 12 0
BBX 14 20 0 -5
BITMAP
00028CEC004FC1
008EBFF902ED10
0BE37FF60CD200
8F60AFF29E2000
CF20DFE6E30000
BF02FFDE400000
2915FFFEEB3000
0008FF41EFB000
000BFF10CFD000
000EFD00EFC000
003FFA03FF8000
006FF707FF5000
009FF40AFF1000
00CFF10CFE0000
01FFD007FF4000
00000000000000
00000CD1000000
00000BF1000000
00000790000000
00000600000000
ENDCHAR
STARTCHAR kcommaaccent
ENCODING 311
SWIDTH 518 0
DWIDTH 10 0
BBX 13 19 -1 -5
BITMAP
0008BC00000000
001FFC00000000
004FF900000000
008FF500000000
00BFF204EA1000
00EFE07E500000
02FFBAE5000000
06FFFFFFB00000
09FFC6DFF30000
0CFF10AFF40000
1FFD00CFF10610
3FFA00EFE03B00
7FF700DFFDE200
AFF3004CEC3000
00000000000000
0002EA00000000
0001EC00000000
0000B500000000
00015000000000
ENDCHAR
STARTCHAR kgreenlandic
ENCODING 312
SWIDTH 518 0
DWIDTH 10 0
BBX 13 10 -1 0
BITMAP
00BFF204EA1000
00EFE07E500000
03FFBAE5000000
06FFFFFFB00000
09FFC6DFF30000
0CFF10AFF40000
1FFD00CFF10610
4FFA00EFE03B00
7FF700DFFDE200
AFF3004CEC3000
ENDCHAR
STARTCHAR Lacute
ENCODING 313
SWIDTH 379 0
DWIDTH 8 0
BBX 14 25 0 -5
BITMAP
00000002860000
00000009F50000
0000002F900000
000000AD100000
00000000000000
00027CEC000000
007EBFF9000000
09E47FF6000000
6F70AFF3000000
CF20DFE0000000
CF02FFB0000000
5E15FF80000000
0008FF50000000
000CFF10000000
000FFD00000000
003FFA00000000
006FF700000000
00AFF300000000
00DFF000000000
01FFF920000000
0003BFE7000000
000005EFD50001
0000003DFFFDE2
00000001BFFFC0
0000000007DE40
ENDCHAR
STARTCHAR lacute
ENCODING 314
SWIDTH 267 0
DWIDTH 5 0
BBX 8 19 -1 0
BITMAP
00000187
000008F6
00001EB0
00008E20
00000000
0008AC00
001FFC00
004FF900
008FF500
00BFF200
00EFE000
02FFB000
06FF7000
09FF4000
0CFF1000
0FFD0061
2FFC16B0
1FFFFE20
06EEA200
ENDCHAR
STARTCHAR Lcommaaccent
ENCODING 315
SWIDTH 379 0
DWIDTH 8 0
BBX 14 20 0 -5
BITMAP
00027CEC000000
007EBFF9000000
09E47FF6000000
6F70AFF3000000
CF20DFE0000000
CF02FFB0000000
5E15FF80000000
0008FF50000000
000CFF10000000
000FFD00000000
003FFA00000000
006FF700000000
00AFF300000000
00DFF000000000
01FFF920000000
0003BFE7000000
03E705EFD50001
04FB003DFFFDE2
00C50001BFFFC0
0290000007DE40
ENDCHAR
STARTCHAR lcommaaccent
ENCODING 316
SWIDTH 267 0
DWIDTH 5 0
BBX 8 19 -1 -5
BITMAP
00058A00
001FFC00
004FF900
007FF600
00BFF200
00EFE000
02FFB000
05FF7000
09FF4000
0CFF1000
0FFD0061
2FFC16B0
1FFFFE20
06EEA200
00000000
0CD10000
0BF20000
06900000
06000000
ENDCHAR
STARTCHAR Lcaron
ENCODING 317
SWIDTH 379 0
DWIDTH 8 0
BBX 14 25 0 -5
BITMAP
00000240006200
000000D37D6000
0000009FE30000
0000004C200000
00000000000000
00027CEC000000
007EBFF9000000
09E47FF6000000
6F70AFF3000000
CF20DFE0000000
CF02FFB0000000
5E15FF80000000
0008FF50000000
000CFF10000000
000FFD00000000
003FFA00000000
006FF700000000
00AFF300000000
00DFF000000000
01FFF920000000
0003BFE7000000
000005EFD50001
0000003DFFFDE2
00000001BFFFC0
0000000007DE40
ENDCHAR
STARTCHAR lcaron
ENCODING 318
SWIDTH 267 0
DWIDTH 5 0
BBX 9 15 -1 0
BITMAP
0000002EB0
0005794FF0
001FFC0AB0
004FF92C20
007FF60100
00BFF30000
00EFE00000
02FFB00000
05FF800000
09FF400000
0CFF100000
0FFD007100
2FFC05A000
1FFFEE2000
06EE920000
ENDCHAR
STARTCHAR Ldot
ENCODING 319
SWIDTH 605 0
DWIDTH 12 0
BBX 14 20 0 -5
BITMAP
00016BEC000000
004DEFF9000000
05F86FF6000000
3FB0AFF3000000
AF40DFE0000000
DF11FFB0000000
BF05FF80000000
3B18FF50000000
000BFF20000000
000EFE007EA000
003FFA00EFF200
006FF7007EA000
00AFF400000000
00DFF100000000
01FFE610000000
0003BFD6000000
000005EFC50001
0000003DFFEDE2
00000001BFFFC0
0000000007DE40
ENDCHAR
STARTCHAR ldot
ENCODING 320
SWIDTH 353 0
DWIDTH 7 0
BBX 8 14 -1 0
BITMAP
0007AC00
001FFC00
004FF900
008FF500
00BFF200
00EFE000
03FFB4E8
06FF78FD
09FF43C6
0CFF1000
1FFD0000
2FFC0000
1FFFF100
06EE5000
ENDCHAR
STARTCHAR Lslash
ENCODING 321
SWIDTH 392 0
DWIDTH 8 0
BBX 14 20 0 -5
BITMAP
00027CEC000000
007EBFF9000000
09E47FF6000000
6F70AFF3000000
CF20DFF3B20000
CF02FFFE600000
5E15FFB1000000
001AFF50000000
01DFFF20000000
013EFD00000000
003FFA00000000
006FF700000000
00AFF300000000
00DFF000000000
01FFF920000000
0003BFE7000000
000005EFD50001
0000003DFFFDE2
00000001BFFFC0
0000000007DE40
ENDCHAR
STARTCHAR lslash
ENCODING 322
SWIDTH 286 0
DWIDTH 6 0
BBX 8 14 -1 0
BITMAP
00058A00
001FFC00
004FF900
007FF612
00AFF7D5
00EFFC40
02FFB000
2BFF8000
9DFF4000
0CFF1000
0FFD0061
2FFC16B0
1FFFFE20
06EEA200
ENDCHAR
STARTCHAR Nacute
ENCODING 323
SWIDTH 702 0
DWIDTH 14 0
BBX 15 20 0 0
BITMAP
0000000000038500
00000000000CF300
00000000005F7000
0000000000CB0000
0000000000000000
0006BEFB0000AF40
02CEAFFF1000DF10
1DE36FFF4001FC00
7F709FFF8004F900
CF30DFFFB007F600
CF21FEEFE00BF200
7F44FBAFF30EE000
0338F76FF62FB000
000BF43FF95F8000
000EF00EFD8F4000
002FC00BFFCF1000
006F8007FFFD0000
009F5004FFFA0000
00CF1001FFF60000
01FD0000CFF30000
ENDCHAR
STARTCHAR nacute
ENCODING 324
SWIDTH 505 0
DWIDTH 10 0
BBX 12 15 -1 0
BITMAP
00000002FD00
00000009F400
0000002F9000
0000006B1000
000000000000
00BFF9DEB100
00EFF78FF700
03FFB04FF800
06FF606FF600
09FF309FF300
0CFF00CFE000
1FFC00FFB018
4FF902FFA087
7FF600EFFDD1
AFF3005DEA20
ENDCHAR
STARTCHAR Ncommaaccent
ENCODING 325
SWIDTH 668 0
DWIDTH 13 0
BBX 15 20 0 -5
BITMAP
0006BEFB0000AF40
02CEAFFF1000DF10
1DE36FFF4001FC00
7F709FFF8004F900
CF30DFFFB007F600
CF21FEEFE00BF200
7F44FBAFF30EE000
0338F76FF62FB000
000BF43FF95F8000
000EF00EFD8F4000
002FC00BFFCF1000
006F8007FFFD0000
009F5004FFFA0000
00CF1001FFF60000
01FD0000CFF30000
0000000000000000
00000DD000000000
00000CE000000000
0000088000000000
0000060000000000
ENDCHAR
STARTCHAR ncommaaccent
ENCODING 326
SWIDTH 505 0
DWIDTH 10 0
BBX 12 15 -1 -5
BITMAP
00BFF9DEA100
00EFF78FF600
03FFB04FF800
06FF606FF700
09FF309FF400
0CFF00CFF100
1FFC00FFD003
4FF902FFA039
7FF600EFD4B1
AFF3005DEB20
000000000000
0009E2000000
0008F4000000
0004B0000000
000510000000
ENDCHAR
STARTCHAR Ncaron
ENCODING 327
SWIDTH 668 0
DWIDTH 13 0
BBX 15 20 0 0
BITMAP
0000000015000530
000000000C56D700
0000000008FE5000
0000000002D30000
0000000000000000
0006BEFB0000AF40
02CEAFFF1000DF10
1DE36FFF4001FC00
7F709FFF8004F900
CF30DFFFB007F600
CF21FEEFE00BF200
7F44FBAFF30EE000
0338F76FF62FB000
000BF43FF95F8000
000EF00EFD8F4000
002FC00BFFCF1000
006F8007FFFD0000
009F5004FFFA0000
00CF1001FFF60000
01FD0000CFF30000
ENDCHAR
STARTCHAR ncaron
ENCODING 328
SWIDTH 505 0
DWIDTH 10 0
BBX 12 15 -1 0
BITMAP
000049017B10
00000E9EB100
00000AF90000
000004800000
000000000000
00BFF9DEA100
00EFF78FF600
03FFB04FF800
06FF606FF700
09FF309FF400
0CFF00CFF100
1FFC00FFD003
4FF902FFA039
7FF600EFD4B1
AFF3005DEB20
ENDCHAR
STARTCHAR napostrophe
ENCODING 329
SWIDTH 505 0
DWIDTH 10 0
BBX 12 15 -1 0
BITMAP
01DC10000000
02EF20000000
008C00000000
01C200000000
000000000000
00BFF9DEA100
00EFF78FF600
03FFB04FF800
06FF606FF700
09FF309FF400
0CFF00CFF100
1FFC00FFD003
4FF902FFA039
7FF600EFD4B1
AFF3005DEB20
ENDCHAR
STARTCHAR Eng
ENCODING 330
SWIDTH 723 0
DWIDTH 14 0
BBX 15 19 1 -4
BITMAP
0006BEFA00009F50
02DFBFFF1000DF10
1DE36FFF4001FD00
9F709FFF7004F900
DF20DFFFA008F600
EF01FDEFD00BF300
9F25F9BFF20EE000
0428F67FF52FB000
000CF23FF86F7000
000FE00EFB9F4000
004FA00AFEDF1000
007F7006FFFC0000
00AF3002FFF90000
00EE0000CFF50000
02FB00008FF10000
000099008FB00000
0003F900DF400000
0001FA18F8000000
00005CED60000000
ENDCHAR
STARTCHAR eng
ENCODING 331
SWIDTH 505 0
DWIDTH 10 0
BBX 10 15 -1 -5
BITMAP
00BFF6CEB0
00EFFDEFF5
03FFD15FF6
06FF706FF5
09FF408FF3
0CFF10BFF0
1FFD00EFC0
4FF903FF90
7FF606FF50
AFF309FF20
0003AFFE00
005A3FFB00
00B06FF600
00C4DFD100
005DEB2000
ENDCHAR
STARTCHAR Omacron
ENCODING 332
SWIDTH 665 0
DWIDTH 13 0
BBX 14 18 0 0
BITMAP
000006FFFFFE00
00000233333200
00000000000000
000038CEFDA200
002AFA644AFE20
03ED34CE30DFA0
1EE24FF5009FE0
8F71EFC0008FF1
AF48FF50009FF1
5F3EFE1000BFF0
015FFA0000EFD0
008FF70002FF90
00BFF40008FF40
00CFF3000DFD00
00CFF2007FF500
00AFF503EF9000
004FFEAEFA0000
0005CEEB500000
ENDCHAR
STARTCHAR omacron
ENCODING 333
SWIDTH 433 0
DWIDTH 9 0
BBX 12 14 -1 0
BITMAP
000EFFFFF700
000333333100
000000000000
000000000000
0004BEE80000
005FF96F5000
02EFC03F8029
09FF509FDA92
0EFE104F9000
4FFC005F5000
5FF9008F1000
5FF901E90000
1EFD4BC10000
04CED9100000
ENDCHAR
STARTCHAR Obreve
ENCODING 334
SWIDTH 665 0
DWIDTH 13 0
BBX 14 19 0 0
BITMAP
000000DE0007F3
0000009F604EA0
0000001BFFE800
00000000120000
000038CEFDA200
002AFA644AFE20
03ED34CE30DFA0
1EE24FF5009FE0
8F71EFC0008FF1
AF48FF50009FF1
5F3EFE1000BFF0
015FFA0000EFD0
008FF70002FF90
00BFF40008FF40
00CFF3000DFD00
00CFF2007FF500
00AFF503EF9000
004FFEAEFA0000
0005CEEB500000
ENDCHAR
STARTCHAR obreve
ENCODING 335
SWIDTH 433 0
DWIDTH 9 0
BBX 12 15 -1 0
BITMAP
000CE0007F40
0008F604EA00
0001BFFE8000
000001200000
000000000000
0004BEE80000
005FF96F5000
02EFC03F8029
09FF509FDA92
0EFE104F9000
4FFC005F5000
5FF9008F1000
5FF901E90000
1EFD4BC10000
04CED9100000
ENDCHAR
STARTCHAR Ohungarumlaut
ENCODING 336
SWIDTH 665 0
DWIDTH 13 0
BBX 15 20 0 0
BITMAP
000000001EE1BF40
000000007F43F800
00000000D90AC000
00000005D12E2000
0000000000000000
000038CEFDA20000
002AFA644AFE2000
03ED34CE30DFA000
1EE24FF5009FE000
8F71EFC0008FF100
AF48FF50009FF100
5F3EFE1000BFF000
015FFA0000EFD000
008FF70002FF9000
00BFF40008FF4000
00CFF3000DFD0000
00CFF2007FF50000
00AFF503EF900000
004FFEAEFA000000
0005CEEB50000000
ENDCHAR
STARTCHAR ohungarumlaut
ENCODING 337
SWIDTH 433 0
DWIDTH 9 0
BBX 12 15 -1 0
BITMAP
000009F65FA0
00001EB0CD10
00007E14F400
0000E40A8000
000000000000
0004BEE80000
005FF96F5000
02EFC03F8029
09FF509FDA92
0EFE104F9000
4FFC005F5000
5FF9008F1000
5FF901E90000
1EFD4BC10000
04CED9100000
ENDCHAR
STARTCHAR OE
ENCODING 338
SWIDTH 846 0
DWIDTH 17 0
BBX 19 15 0 0
BITMAP
000038CEFECDFFFFFF20
002AFA786AFFCDFFF800
03ED38FC10DFA0011000
1EE27FF3009FE0000000
7F82EFB0008FF1000000
AF49FF50009FF2000000
7F3EFE0000AFF2210000
036FFB0000DFFFF80000
008FF70001FFB5510000
00BFF40006FF60000000
00CFF3000CFE10000000
00CFF2004FF700000000
00AFF401CFC211100000
004FFA4BFFFFFFF30000
0004CEFFFFFFFFF00000
ENDCHAR
STARTCHAR oe
ENCODING 339
SWIDTH 663 0
DWIDTH 13 0
BBX 16 10 -1 0
BITMAP
0004AEE705CFD600
006FF76F8FF97F10
02FF902FFFC02F10
09FF30BFFF605B00
0DFD008FFF12B200
0FFA002FFE761000
2FF8005FF9000052
1FF800BFFA000790
0CFD47FEFF97C900
03BEEB34CFEB4000
ENDCHAR
STARTCHAR Racute
ENCODING 340
SWIDTH 601 0
DWIDTH 12 0
BBX 12 20 0 0
BITMAP
000000001ED1
000000009F40
00000002F800
000000047000
000000000000
00027CEFD920
008FC7447EE3
0AF64AC608F9
7F80AFF308F9
CF20DFE01DF3
CF01FFB3BF60
4B14FFFFFD30
0008FF75FFC0
000BFF20CFD0
000EFD00EFB0
002FFA02FF80
006FF706FF50
009FF40AFF10
00CFF10CFE00
01FFD007FF40
ENDCHAR
STARTCHAR racute
ENCODING 341
SWIDTH 376 0
DWIDTH 8 0
BBX 9 15 -1 0
BITMAP
0000005FA0
000000CE20
000004F600
000009A000
0000000000
00BFF5CE60
00EFFCDFB0
03FFB04D50
06FF700000
09FF400000
0CFF100000
1FFD000000
4FFA000000
7FF7000000
AFF3000000
ENDCHAR
STARTCHAR Rcommaaccent
ENCODING 342
SWIDTH 601 0
DWIDTH 12 0
BBX 12 20 0 -5
BITMAP
00027CEFD920
008FC7447EE3
0AF64AC608F9
7F80AFF308F9
CF20DFE01DF3
CF01FFB3BF60
4B14FFFFFD30
0008FF75FFC0
000BFF20CFD0
000EFD00EFB0
002FFA02FF80
006FF706FF50
009FF40AFF10
00CFF10CFE00
01FFD007FF40
000000000000
00003E800000
00002EA00000
00000C300000
000024000000
ENDCHAR
STARTCHAR rcommaaccent
ENCODING 343
SWIDTH 376 0
DWIDTH 8 0
BBX 9 15 -1 -5
BITMAP
00BFF5CE60
00EFFCDFB0
03FFB04D50
06FF700000
09FF400000
0CFF100000
1FFD000000
4FFA000000
7FF7000000
AFF3000000
0000000000
01DC000000
00CE000000
0088000000
0060000000
ENDCHAR
STARTCHAR Rcaron
ENCODING 344
SWIDTH 601 0
DWIDTH 12 0
BBX 13 20 0 0
BITMAP
0000000C105B30
00000009CDC200
00000004FA1000
00000000600000
00000000000000
00027CEFD92000
008FC7447EE300
0AF64AC608F900
7F80AFF308F900
CF20DFE01DF300
CF01FFB3BF6000
4B14FFFFFD3000
0008FF75FFC000
000BFF20CFD000
000EFD00EFB000
002FFA02FF8000
006FF706FF5000
009FF40AFF1000
00CFF10CFE0000
01FFD007FF4000
ENDCHAR
STARTCHAR rcaron
ENCODING 345
SWIDTH 376 0
DWIDTH 8 0
BBX 10 15 -1 0
BITMAP
00057018A1
0001E9EA00
0000BF8000
0000570000
0000000000
00BFF5CE60
00EFFCDFB0
03FFB04D50
06FF700000
09FF400000
0CFF100000
1FFD000000
4FFA000000
7FF7000000
AFF3000000
ENDCHAR
STARTCHAR Sacute
ENCODING 346
SWIDTH 570 0
DWIDTH 11 0
BBX 11 20 0 0
BITMAP
000000004FB0
00000000CE20
00000005F500
000000056000
000000000000
000029DFD810
0003EFB47FA0
000CFF100EF0
000EFE003FE0
000CFF504A40
0005FFE30000
0000AFFE2000
00000CFFD100
002521DFF900
07FFE14FFF10
1FF8000DFF40
4FF0000CFF20
3FF2002FFB00
0AFC67EFD200
007CEEC70000
ENDCHAR
STARTCHAR sacute
ENCODING 347
SWIDTH 382 0
DWIDTH 8 0
BBX 10 15 -1 0
BITMAP
0000002FD0
0000009F40
000002F900
000007C100
0000356000
0005FFD000
000BFFE000
001CFFF000
0087DFF100
01E1CFF200
0890BFF300
5FB0AFF431
9C50BFFA70
6C47FFD400
08EFD80000
ENDCHAR
STARTCHAR Scircumflex
ENCODING 348
SWIDTH 570 0
DWIDTH 11 0
BBX 11 20 0 0
BITMAP
000000006C00
00000009FF20
000001BB4980
000005300050
000000000000
000029DFD810
0003EFB47FA0
000CFF100EF0
000EFE003FE0
000CFF504A40
0005FFE30000
0000AFFE2000
00000CFFD100
002521DFF900
07FFE14FFF10
1FF8000DFF40
4FF0000CFF20
3FF2002FFB00
0AFC67EFD200
007CEEC70000
ENDCHAR
STARTCHAR scircumflex
ENCODING 349
SWIDTH 382 0
DWIDTH 8 0
BBX 10 15 -1 0
BITMAP
000002D300
00002DF700
0003EA8C00
003A300910
0000356000
0005FFD000
000BFFE000
001CFFF000
0087DFF100
01E1CFF200
0890BFF300
5FB0AFF431
9C50BFFA70
6C47FFD400
08EFD80000
ENDCHAR
STARTCHAR Scedilla
ENCODING 350
SWIDTH 570 0
DWIDTH 11 0
BBX 11 20 0 -5
BITMAP
000029DFD810
0003EFB47FA0
000BFF100EF0
000EFE003FE0
000DFF504B50
0006FFE30000
0000AFFD2000
00001CFFD100
001412EFF900
06FFD15FFF10
1FFA200DFF40
4FF1000CFF20
3FF1001EFC00
0BFB45CFE200
018DFFD81000
0000A3000000
0001EEE30000
000129F70000
00194BF30000
0007ED500000
ENDCHAR
STARTCHAR scedilla
ENCODING 351
SWIDTH 382 0
DWIDTH 8 0
BBX 10 15 -1 -5
BITMAP
00029BB000
0008FFE000
000DFFF000
005AEFF000
00C4DFF200
05C0BFF300
3E90AFF400
9E90AFF691
6A14EFE700
08EFD81000
0094000000
00D6600000
02FFF50000
164BF40000
08ED600000
ENDCHAR
STARTCHAR Scaron
ENCODING 352
SWIDTH 570 0
DWIDTH 11 0
BBX 13 20 0 0
BITMAP
0000000C105B40
00000008CDD200
00000003FB1000
00000000600000
00000000000000
000029DFD81000
0003EFB47FA000
000CFF100EF000
000EFE003FE000
000CFF504A4000
0005FFE3000000
0000AFFE200000
00000CFFD10000
002521DFF90000
07FFE14FFF1000
1FF8000DFF4000
4FF0000CFF2000
3FF2002FFB0000
0AFC67EFD20000
007CEEC7000000
ENDCHAR
STARTCHAR scaron
ENCODING 353
SWIDTH 369 0
DWIDTH 7 0
BBX 10 15 -1 0
BITMAP
0001B005B3
0000BADC20
00007FB100
0000290000
0000467000
0006FFD000
000BFFE000
001CEFF000
0086DFF100
01D0CFF200
0880AFF300
5FB0AFF472
9A20CFFD50
6E9CFFB200
08EFD70000
ENDCHAR
STARTCHAR uni0162
ENCODING 354
SWIDTH 481 0
DWIDTH 10 0
BBX 15 20 0 -5
BITMAP
0016BDEEC8411640
03DC65FFFFFFFF20
1EC004FFECEFE700
8F5007FF90010000
BF100AFF50000000
DF000EFF20000000
9F002FFE00000000
05105FFA00000000
00008FF700000000
0000BFF400000000
0000EFF100000000
0002FFC000000000
0005FF9000000000
0008FF5000000000
000BFF2000000000
0000C10000000000
0004EC9000000000
00034DF200000000
00474DE100000000
001AFC3000000000
ENDCHAR
STARTCHAR uni0163
ENCODING 355
SWIDTH 267 0
DWIDTH 5 0
BBX 8 18 -1 -5
BITMAP
001CEC00
005FF800
008FF500
05FFFF60
01EFF310
01FFC000
05FF8000
08FF5000
0CFF2000
0FFD0061
2FFC04B0
1FFFDE20
07FEA200
03A00000
09DD6000
045FC000
756F9000
3DEA1000
ENDCHAR
STARTCHAR Tcaron
ENCODING 356
SWIDTH 481 0
DWIDTH 10 0
BBX 15 20 0 0
BITMAP
0000004200260000
0000004C39D20000
0000000EFB100000
0000000990000000
0000000000000000
0016BDEEC8411640
03DC65FFFFFFFF20
1EC004FFECEFE700
8F5007FF90010000
BF100AFF50000000
DF000EFF20000000
9F002FFE00000000
05105FFA00000000
00008FF700000000
0000BFF400000000
0000EFF100000000
0002FFC000000000
0005FF9000000000
0008FF5000000000
000BFF2000000000
ENDCHAR
STARTCHAR tcaron
ENCODING 357
SWIDTH 267 0
DWIDTH 5 0
BBX 10 15 -1 0
BITMAP
0000001DD1
0000001EF3
001ACB07D0
004FF90B30
008FF50000
05FFFF6000
01EFF31000
01FFC00000
05FF800000
08FF500000
0CFF200000
0FFD006100
2FFC04B000
1FFFDE2000
06EEA20000
ENDCHAR
STARTCHAR Tbar
ENCODING 358
SWIDTH 481 0
DWIDTH 10 0
BBX 15 15 0 0
BITMAP
0006BDEEC8411640
03DC64FFFFFFFF20
1DC004FFB6CFE700
7F5007FF70000000
BF100AFF40000000
DF000CFF10000000
AF000FFE00000000
17103FFB00000000
00006FF800000000
04FFFFFFFF800000
0133DFF433100000
0001FFD000000000
0004FF9000000000
0008FF6000000000
000BFF2000000000
ENDCHAR
STARTCHAR tbar
ENCODING 359
SWIDTH 267 0
DWIDTH 5 0
BBX 8 13 -1 0
BITMAP
001CEC00
005FF800
008FF500
05FFFF60
02EFE310
3FFFFF30
17FF9300
09FF5000
0CFF1000
0FFD0071
2FFC05B0
1FFFEE20
06EEA200
ENDCHAR
STARTCHAR Utilde
ENCODING 360
SWIDTH 716 0
DWIDTH 14 0
BBX 17 19 -1 0
BITMAP
000000000267520200
000000006FFFFFF500
00000001316CFC4000
000000000000000000
000027CEE4000CFF10
0008E8DFF1001FFC00
01BE31FFC0004FF900
09F504FF80007FF600
0FE008FF3000AFF200
1FC00CFE0000EFE000
09D01FFA0002FFB000
00004FF60005FF8000
00008FF20009FF4000
0000BFE0000DFE0000
0000DFC0003FFA0000
0000FFB0009FF40000
0000EFE105FFB00000
00009FFFFFFD100000
000019DFEC71000000
ENDCHAR
STARTCHAR utilde
ENCODING 361
SWIDTH 505 0
DWIDTH 10 0
BBX 12 14 -1 0
BITMAP
00019EEB6550
000ABEFFFC10
001000475000
000000000000
00BFF20CFF10
00EFE01FFD00
03FFB04FFA00
06FF707FF600
09FF40AFF300
0CFF10DFF000
1FFD02FFC008
2FFC0AFFB087
1FFFFAEFFEC0
06EE906EE810
ENDCHAR
STARTCHAR Umacron
ENCODING 362
SWIDTH 716 0
DWIDTH 14 0
BBX 17 18 -1 0
BITMAP
000000007FFFFFE000
000000002333332000
000000000000000000
000027CEE4000CFF10
0008E8DFF1001FFC00
01BE31FFC0004FF900
09F504FF80007FF600
0FE008FF3000AFF200
1FC00CFE0000EFE000
09D01FFA0002FFB000
00004FF60005FF8000
00008FF20009FF4000
0000BFE0000DFE0000
0000DFC0003FFA0000
0000FFB0009FF40000
0000EFE105FFB00000
00009FFFFFFD100000
000019DFEC71000000
ENDCHAR
STARTCHAR umacron
ENCODING 363
SWIDTH 505 0
DWIDTH 10 0
BBX 12 14 -1 0
BITMAP
0008FFFFFD00
000233333200
000000000000
000000000000
00BFF20CFF10
00EFE01FFD00
03FFB04FFA00
06FF707FF600
09FF40AFF300
0CFF10DFF000
1FFD02FFC008
2FFC0AFFB087
1FFFFAEFFEC0
06EE906EE810
ENDCHAR
STARTCHAR Ubreve
ENCODING 364
SWIDTH 716 0
DWIDTH 14 0
BBX 17 19 -1 0
BITMAP
000000007F5002F900
000000003FB12CE200
0000000007EFFA2000
000000000002100000
000027CEE4000CFF10
0008E8DFF1001FFC00
01BE31FFC0004FF900
09F504FF80007FF600
0FE008FF3000AFF200
1FC00CFE0000EFE000
09D01FFA0002FFB000
00004FF60005FF8000
00008FF20009FF4000
0000BFE0000DFE0000
0000DFC0003FFA0000
0000FFB0009FF40000
0000EFE105FFB00000
00009FFFFFFD100000
000019DFEC71000000
ENDCHAR
STARTCHAR ubreve
ENCODING 365
SWIDTH 505 0
DWIDTH 10 0
BBX 12 15 -1 0
BITMAP
0009F3004F70
0005F903DD10
00009FFE9100
000000200000
000000000000
00BFF20CFF10
00EFE01FFD00
03FFB04FFA00
06FF707FF600
09FF40AFF300
0CFF10DFF000
1FFD02FFC008
2FFC0AFFB087
1FFFFAEFFEC0
06EE906EE810
ENDCHAR
STARTCHAR Uring
ENCODING 366
SWIDTH 716 0
DWIDTH 14 0
BBX 17 19 -1 0
BITMAP
00000000006EB00000
0000000000D5C20000
0000000000BFC00000
000000000002000000
000027CEE4000CFF10
0008E8DFF1001FFC00
01BE31FFC0004FF900
09F504FF80007FF600
0FE008FF3000AFF200
1FC00CFE0000EFE000
09D01FFA0002FFB000
00004FF60005FF8000
00008FF20009FF4000
0000BFE0000DFE0000
0000DFC0003FFA0000
0000FFB0009FF40000
0000EFE105FFB00000
00009FFFFFFD100000
000019DFEC71000000
ENDCHAR
STARTCHAR uring
ENCODING 367
SWIDTH 505 0
DWIDTH 10 0
BBX 12 14 -1 0
BITMAP
000006EB0000
00000D5C1000
00000BFC0000
000000200000
00BFF20CFF10
00EFE01FFD00
03FFB04FFA00
06FF707FF600
09FF40AFF300
0CFF10DFF000
1FFD02FFC008
2FFC0AFFB087
1FFFFAEFFEC0
06EE906EE810
ENDCHAR
STARTCHAR Uhungarumlaut
ENCODING 368
SWIDTH 716 0
DWIDTH 14 0
BBX 17 20 -1 0
BITMAP
00000000001ED1CF30
00000000007F43F800
0000000000D80AC000
0000000006C02E2000
000000000000000000
000027CEE4000CFF10
0008E8DFF1001FFC00
01BE31FFC0004FF900
09F504FF80007FF600
0FE008FF3000AFF200
1FC00CFE0000EFE000
09D01FFA0002FFB000
00004FF60005FF8000
00008FF20009FF4000
0000BFE0000DFE0000
0000DFC0003FFA0000
0000FFB0009FF40000
0000EFE105FFB00000
00009FFFFFFD100000
000019DFEC71000000
ENDCHAR
STARTCHAR uhungarumlaut
ENCODING 369
SWIDTH 505 0
DWIDTH 10 0
BBX 12 15 -1 0
BITMAP
000007F84FB0
00000EC0AE20
00006E22F500
0000D6099000
000000000000
00BFF20CFF10
00EFE01FFD00
03FFB04FFA00
06FF707FF600
09FF40AFF300
0CFF10DFF000
1FFD02FFC008
2FFC0AFFB087
1FFFFAEFFEC0
06EE906EE810
ENDCHAR
STARTCHAR Uogonek
ENCODING 370
SWIDTH 716 0
DWIDTH 14 0
BBX 17 25 -1 -5
BITMAP
000000000BF4000000
0000000007F6000000
0000000002F8000000
0000000000DB000000
000000000000000000
000027CEE4000CFF10
0008E8DFF1001FFC00
01BE31FFC0004FF900
09F504FF80007FF600
0EE008FF4000AFF200
1FC00CFE0000EFE000
09D01FFA0002FFB000
00004FF60005FF8000
00008FF30009FF4000
0000BFE0000DFE1000
0000DFC0003FFA0000
0000FFB0009FF40000
0000EFE104FFC00000
0000AFFFEFFD200000
00001AEFED81000000
0000005D1000000000
000000E90000000000
000001FC1530000000
0000009FFA00000000
000000021000000000
ENDCHAR
STARTCHAR uogonek
ENCODING 371
SWIDTH 505 0
DWIDTH 10 0
BBX 12 15 -1 -5
BITMAP
00BFF20CFF10
00EFE01FFD00
03FFB04FFA00
06FF707FF600
09FF40AFF300
0CFF10DFF000
1FFD02FFC008
2FFC0AFFB087
1FFFFAEFFEC0
06EE906EF910
0000004D1000
000000E90000
000001FC2630
000000AFFA00
000000022000
ENDCHAR
STARTCHAR Wcircumflex
ENCODING 372
SWIDTH 962 0
DWIDTH 19 0
BBX 21 20 0 0
BITMAP
0000000000000033000000
00000000000005EA000000
0000000000007FBF100000
0000000000198208600000
0000000000000000000000
00017CEE0000DFD0000E70
007E9FFE0003FFD0004F10
09F40FFF0008FFD0009B00
6F800FFF000DFFE000E500
CF200FFF003FFFE004E000
CF000EFF008BFFE00A9000
6F100EFF10D5FFE00E3000
01000EFF14E0FFF05D0000
00000DFF1990EFF0A70000
00000DFF1E30EFF1E20000
00000CFF5C00EFF5B00000
00000CFFB700DFFB600000
00000CFFF100DFFE100000
00000BFFB000DFF9000000
00000BFF5000CFF4000000
ENDCHAR
STARTCHAR wcircumflex
ENCODING 373
SWIDTH 661 0
DWIDTH 13 0
BBX 14 15 -1 0
BITMAP
000000002D1000
00000002DF6000
0000002DDBA000
000003C601C000
00000100001000
00BFF20CFF15E8
00EFE01FFD07FD
03FFB04FFA005D
06FF707FF6007B
09FF40AFF300B7
0CFF10DFF002F3
1FFD02FFC00AC0
2FFC0AFFB07F40
1FFFFBFFFEF700
06EE916EFC5000
ENDCHAR
STARTCHAR Ycircumflex
ENCODING 374
SWIDTH 620 0
DWIDTH 12 0
BBX 14 20 0 0
BITMAP
00000000001500
0000000003DD00
000000005EBE30
00000008A30580
00000000000000
00017CEF10008B
007E9FFF4001E4
09F40BFF8006D0
6F8007FFC00C60
CF2004FFF13E10
CF0000EFF49800
6F1000BFF9E200
0100007FFFA000
0000003FFF3000
0000004FFE0000
0000007FFB0000
000000AFF80000
000000EFF40000
000002FFF10000
000005FFD00000
ENDCHAR
STARTCHAR ycircumflex
ENCODING 375
SWIDTH 505 0
DWIDTH 10 0
BBX 12 20 -1 -5
BITMAP
0000001C4000
000002DF8000
00003EA7D000
000293008200
000000000000
00BFF20CFF10
00EFE01FFD00
03FFB04FFA00
06FF707FF600
09FF40AFF300
0CFF10DFF000
1FFD02FFC044
2FFC0AFF80C2
1FFFFFFF6970
06EE9CFFD600
0004BFFE0000
007C6FFB0000
00F17FF70000
01FAEFE10000
006EEA200000
ENDCHAR
STARTCHAR Ydieresis
ENCODING 376
SWIDTH 620 0
DWIDTH 12 0
BBX 14 19 0 0
BITMAP
00000000100020
00000004FD0AF7
00000003EB08E5
00000000000000
00017CEF10008B
007E9FFF4001E4
09F40BFF8006D0
6F8007FFC00C60
CF2004FFF13E10
CF0000EFF49800
6F1000BFF9E200
0100007FFFA000
0000003FFF3000
0000004FFE0000
0000007FFB0000
000000AFF80000
000000EFF40000
000002FFF10000
000005FFD00000
ENDCHAR
STARTCHAR Zacute
ENCODING 377
SWIDTH 542 0
DWIDTH 11 0
BBX 11 20 0 0
BITMAP
000000000770
000000007F70
00000001EC00
00000007E200
000000000000
006DFFFFFFC0
02FD434EFF40
03FD007FFC00
005201EFF400
000007FFC000
00001EFF4000
00007FFC0000
0001EFF40000
0007FFC00000
001EFF400000
008FFC000000
01EFF4004300
08FFC002FE00
1EFF7335FC00
8FFFFFFFB200
ENDCHAR
STARTCHAR zacute
ENCODING 378
SWIDTH 428 0
DWIDTH 9 0
BBX 9 15 0 0
BITMAP
000000BF40
000004F900
00000BE100
00002C5000
0000000000
01CFFFFF40
0BF45FFB00
0BD0AFF200
0004FF9000
000CFE1000
006FF70000
01EFD00000
08FF51C700
2FFD45F900
BFFFFFB100
ENDCHAR
STARTCHAR Zdotaccent
ENCODING 379
SWIDTH 530 0
DWIDTH 11 0
BBX 11 19 0 0
BITMAP
000000010000
000000DF4000
000000BE3000
000000000000
006DFFFFFFC0
02FD434EFF40
03FD007FFC00
005201EFF400
000007FFC000
00001EFF4000
00007FFC0000
0001EFF40000
0007FFC00000
001EFF400000
008FFC000000
01EFF4004300
08FFC002FE00
1EFF7335FC00
8FFFFFFFB200
ENDCHAR
STARTCHAR zdotaccent
ENCODING 380
SWIDTH 428 0
DWIDTH 9 0
BBX 9 14 0 0
BITMAP
00005E8000
00007FA000
0000020000
0000000000
01CFFFFF40
0BF45FFB00
0BD0AFF200
0004FF9000
000CFE1000
006FF70000
01EFD00000
08FF51C700
2FFD45F900
BFFFFFB100
ENDCHAR
STARTCHAR Zcaron
ENCODING 381
SWIDTH 542 0
DWIDTH 11 0
BBX 12 20 0 0
BITMAP
000000600035
000000984BA1
0000004FF800
0000000D5000
000000000000
006DFFFFFFC0
02FD434EFF40
03FD007FFC00
005201EFF400
000007FFC000
00001EFF4000
00007FFC0000
0001EFF40000
0007FFC00000
001EFF400000
008FFC000000
01EFF4004300
08FFC002FE00
1EFF7335FC00
8FFFFFFFB200
ENDCHAR
STARTCHAR zcaron
ENCODING 382
SWIDTH 428 0
DWIDTH 9 0
BBX 10 15 0 0
BITMAP
0002B006B2
0000CADC20
00007FB100
0000290000
0000000000
01CFFFFF40
0BF45FFB00
0BD0AFF200
0004FF9000
000CFE1000
006FF70000
01EFD00000
08FF51C700
2FFD45F900
BFFFFFB100
ENDCHAR
STARTCHAR longs
ENCODING 383
SWIDTH 267 0
DWIDTH 5 0
BBX 13 20 -5 -5
BITMAP
000000007DEB10
00000008FF6990
0000001FFA0360
0000005FF70000
0000008FF40000
00000CFFF10000
000003EFD00000
000001FF900000
000005FF600000
000008FF300000
00000BFF000000
00000EFC000000
00003FF9000000
00006FF6000000
00009FF3000000
005BFFF0000000
09D5EFC0000000
1F23FF70000000
1E5BFE10000000
05DEB300000000
ENDCHAR
STARTCHAR uni018F
ENCODING 399
SWIDTH 544 0
DWIDTH 11 0
BBX 11 15 0 0
BITMAP
0017CEEC6000
00BFFFFFF900
01FA437FFF40
0050000AFF90
00000008FFB0
00000008FFB0
00005BDFFFA0
002CFB5EFF80
02EF801FFF40
0CFB005FFE00
5FF400AFF600
8FF002FFC000
7FE00AFE2000
3FF59FE30000
04CFD8100000
ENDCHAR
STARTCHAR florin
ENCODING 402
SWIDTH 267 0
DWIDTH 5 0
BBX 14 20 -5 -5
BITMAP
0000000005CFD3
000000006FE5FB
00000002EF83F9
00000009FF3271
0000000EFD0000
00000AFFFFFD00
0000029FF73200
000000CFF20000
000001FFC00000
000005FF800000
00000AFF400000
00000EFE000000
00003FFA000000
00008FF6000000
0000CFF1000000
0001FFB0000000
2606FF40000000
CE1CFC00000000
EC5FE200000000
6EEB2000000000
ENDCHAR
STARTCHAR Ohorn
ENCODING 416
SWIDTH 665 0
DWIDTH 13 0
BBX 15 18 0 0
BITMAP
0000000000002710
0000000000007F60
0000000000007F40
000038CEFD81BC00
002AFA644AFEE300
03ED34CE30DF8000
1EE24FF5009FD000
8F71EFC0008FF100
AF48FF50009FF100
5F3EFE1000BFF000
015FFA0000EFD000
008FF70002FF9000
00BFF40008FF5000
00CFF3000DFD0000
00CFF2007FF60000
00AFF503EF900000
004FFEAEFA000000
0005CEEB50000000
ENDCHAR
STARTCHAR ohorn
ENCODING 417
SWIDTH 439 0
DWIDTH 9 0
BBX 11 13 -1 0
BITMAP
000000000540
000000000FB0
000000001F80
00029DE99E10
004EFB5FD300
01EFD00DB000
09FF600DB000
0EFF101FA000
2FFC005F8000
4FFB00BF3000
2FFD06FA0000
0CFFEFC10000
02BED8100000
ENDCHAR
STARTCHAR Uhorn
ENCODING 431
SWIDTH 716 0
DWIDTH 14 0
BBX 19 19 -1 0
BITMAP
00000000000000002710
00000000000000007F50
00000000000000008F30
0000000000000001DB00
000027CEE4000CFFC100
0008E8DFF1001FFD0000
01BE31FFC0004FF90000
09F504FF80007FF60000
0FE008FF3000AFF30000
1FC00CFE0000EFE00000
09D01FFA0002FFB00000
00004FF60005FF800000
00008FF20009FF400000
0000BFE0000DFE100000
0000DFC0003FFA000000
0000FFB0009FF4000000
0000EFE105FFB0000000
00009FFFFFFD10000000
000019DFEC7100000000
ENDCHAR
STARTCHAR uhorn
ENCODING 432
SWIDTH 505 0
DWIDTH 10 0
BBX 12 13 -1 0
BITMAP
0000000000BC
0000000000DC
0000000003F6
00BFF20CFFA0
00EFE01FFD00
03FFB04FFA00
06FF707FF700
09FF40AFF300
0CFF10DFF000
1FFD02FFC008
2FFC0AFFB087
1FFFFAEFFEC0
06EE906EE810
ENDCHAR
STARTCHAR uni01B7
ENCODING 439
SWIDTH 555 0
DWIDTH 11 0
BBX 12 15 0 0
BITMAP
003CFFFFFFE2
00DF533AFF50
00DF204FF900
002302EFC100
00000CFE2000
00009FF50000
0000EFFC5000
000047FFF500
0000008FFD00
0000004FFF00
0340003FFF00
5FC0006FFB00
8F7000DFF400
5FC44BFF6000
06CEED920000
ENDCHAR
STARTCHAR uni01CD
ENCODING 461
SWIDTH 668 0
DWIDTH 13 0
BBX 17 22 0 -2
BITMAP
000000000005100260
000000000006A3AC20
000000000001FFA100
000000000000B70000
000000000000000000
00000000018DFA0000
000000002DEFF90000
00000002D98FF60000
0000001DB0BFF20000
0000009F20EFE00000
000005F802FFB00000
05BEFFFA56FF800000
7FC5AF948EFF500000
BF72FF200CFF100000
3729FA000FFD000000
001FF5003FFA000000
007FE0006FF7000000
00CFA000AFF4000000
01FF7000DFF1000000
04FF3001FFC0000000
03FF20000000000000
009E30000000000000
ENDCHAR
STARTCHAR uni01CE
ENCODING 462
SWIDTH 526 0
DWIDTH 11 0
BBX 13 15 -1 0
BITMAP
000002B006B200
000000D9DC1000
0000008FB10000
0000003A000000
00000000000000
0003BEEAFF7000
004FFA4DFF4000
01EFD00CFF1000
08FF600FFD0000
0DFF103FF90000
2FFC007FF60000
3FFB00AFF30620
3FFC03FFF22C00
0DFFDEAFFEE400
03CEB32CEB4000
ENDCHAR
STARTCHAR uni01CF
ENCODING 463
SWIDTH 375 0
DWIDTH 8 0
BBX 11 20 0 0
BITMAP
000005100260
000005B3AC20
000001EFA100
000000A80000
000000000000
00017CEC0000
007ECFF90000
09F47FF60000
6F80AFF30000
CF20DFF00000
CF01FFC00000
6F15FF900000
0108FF500000
000BFF200000
000EFE000000
002FFB000000
006FF8000000
009FF4000000
00CFF1000000
01FFD0000000
ENDCHAR
STARTCHAR uni01D0
ENCODING 464
SWIDTH 267 0
DWIDTH 5 0
BBX 9 15 -1 0
BITMAP
0058017A10
001E9EA000
000AF90000
0005700000
0000000000
00BFF20000
00EFE00000
03FFB00000
06FF700000
09FF400000
0CFF100000
1FFD007100
2FFC05A000
1FFFEE2000
06EE920000
ENDCHAR
STARTCHAR uni01D1
ENCODING 465
SWIDTH 665 0
DWIDTH 13 0
BBX 14 20 0 0
BITMAP
00000000A202A7
000000006C9F60
000000002FF600
000000000C5000
00000000000000
000038CEFDA200
002AFA644AFE20
03ED34CE30DFA0
1EE24FF5009FE0
8F71EFC0008FF1
AF48FF50009FF1
5F3EFE1000BFF0
015FFA0000EFD0
008FF70002FF90
00BFF40008FF40
00CFF3000DFD00
00CFF2007FF500
00AFF503EF9000
004FFEAEFA0000
0005CEEB500000
ENDCHAR
STARTCHAR uni01D2
ENCODING 466
SWIDTH 433 0
DWIDTH 9 0
BBX 12 15 -1 0
BITMAP
000049007B10
00000E8DC100
00000AFB1000
000005A00000
000000000000
0004BEE90000
005FF96F5000
02EFB03F904A
09FF408FEC81
0EFE003F8000
4FFB006F5000
5FF900BE1000
5FFA05F90000
1EFFCFC10000
04CED8100000
ENDCHAR
STARTCHAR uni01D3
ENCODING 467
SWIDTH 716 0
DWIDTH 14 0
BBX 17 20 -1 0
BITMAP
000000000093029800
00000000005D8F7000
00000000001FF60000
00000000000B600000
000000000000000000
000027CEE4000CFF10
0008E8DFF1001FFC00
01BE31FFC0004FF900
09F504FF80007FF600
0FE008FF3000AFF200
1FC00CFE0000EFE000
09D01FFA0002FFB000
00004FF60005FF8000
00008FF20009FF4000
0000BFE0000DFE0000
0000DFC0003FFA0000
0000FFB0009FF40000
0000EFE105FFB00000
00009FFFFFFD100000
000019DFEC71000000
ENDCHAR
STARTCHAR uni01D4
ENCODING 468
SWIDTH 505 0
DWIDTH 10 0
BBX 12 15 -1 0
BITMAP
00000C104B40
000009BBE300
000004FD2000
000000A10000
000000000000
00BFF20CFF10
00EFE01FFD00
03FFB04FFA00
06FF707FF600
09FF40AFF300
0CFF10DFF000
1FFD02FFC008
2FFC0AFFB087
1FFFFAEFFEC0
06EE906EE810
ENDCHAR
STARTCHAR uni01D5
ENCODING 469
SWIDTH 716 0
DWIDTH 14 0
BBX 17 20 -1 0
BITMAP
000000000EFFFFF700
000000000333333100
000000003EA01DC100
000000004FC02EE100
000000000100011000
000027CEE4000CFF10
0008E8DFF1001FFC00
01BE31FFC0004FF900
09F504FF80007FF600
0FE008FF3000AFF200
1FC00CFE0000EFE000
09D01FFA0002FFB000
00004FF60005FF8000
00008FF20009FF4000
0000BFE0000DFE0000
0000DFC0003FFA0000
0000FFB0009FF40000
0000EFE105FFB00000
00009FFFFFFD100000
000019DFEC71000000
ENDCHAR
STARTCHAR uni01D6
ENCODING 470
SWIDTH 505 0
DWIDTH 10 0
BBX 12 17 -1 0
BITMAP
0000DFFFFF80
000033333310
000000000000
0001DC16E700
0002FE18F900
000011002000
000000000000
00BFF20CFF10
00EFE01FFD00
03FFB04FFA00
06FF707FF600
09FF40AFF300
0CFF10DFF000
1FFD02FFC008
2FFC0AFFB087
1FFFFAEFFEC0
06EE906EE810
ENDCHAR
STARTCHAR uni01D7
ENCODING 471
SWIDTH 716 0
DWIDTH 14 0
BBX 17 20 -1 0
BITMAP
000000000003FC0000
00000003EB0BE4DC10
00000004FD4F62FE10
000000001056001100
000000000000000000
000027CEE4000CFF10
0008E8DFF1001FFC00
01BE31FFC0004FF900
09F504FF80007FF600
0FE008FF3000AFF200
1FC00CFE0000EFE000
09D01FFA0002FFB000
00004FF60005FF8000
00008FF20009FF4000
0000BFE0000DFE0000
0000DFC0003FFA0000
0000FFB0009FF40000
0000EFE105FFB00000
00009FFFFFFD100000
000019DFEC71000000
ENDCHAR
STARTCHAR uni01D8
ENCODING 472
SWIDTH 505 0
DWIDTH 10 0
BBX 12 19 -1 0
BITMAP
000000018700
00000008F600
0000001EB000
0000008E2000
000000000000
0001DC16E700
0002FE18F900
000011002000
000000000000
00BFF20CFF10
00EFE01FFD00
03FFB04FFA00
06FF707FF600
09FF40AFF300
0CFF10DFF000
1FFD02FFC008
2FFC0AFFB087
1FFFFAEFFEC0
06EE906EE810
ENDCHAR
STARTCHAR uni01D9
ENCODING 473
SWIDTH 716 0
DWIDTH 14 0
BBX 17 21 -1 0
BITMAP
000000000010001000
0000000000B12A7000
00000003EB9DE6DC00
00000004FD4E32FE10
000000002101002100
000000000000000000
000027CEE4000CFF10
0008E8DFF1001FFC00
01BE31FFC0004FF900
09F504FF80007FF600
0FE008FF3000AFF200
1FC00CFE0000EFE000
09D01FFA0002FFB000
00004FF60005FF8000
00008FF20009FF4000
0000BFE0000DFE0000
0000DFC0003FFA0000
0000FFB0009FF40000
0000EFE105FFB00000
00009FFFFFFD100000
000019DFEC71000000
ENDCHAR
STARTCHAR uni01DA
ENCODING 474
SWIDTH 505 0
DWIDTH 10 0
BBX 12 18 -1 0
BITMAP
000006702891
000001FAF700
000000BE5000
000000330000
0001DC16E700
0002FE18F900
000011002000
000000000000
00BFF20CFF10
00EFE01FFD00
03FFB04FFA00
06FF707FF600
09FF40AFF300
0CFF10DFF000
1FFD02FFC008
2FFC0AFFB087
1FFFFAEFFEC0
06EE906EE810
ENDCHAR
STARTCHAR uni01DB
ENCODING 475
SWIDTH 716 0
DWIDTH 14 0
BBX 17 20 -1 0
BITMAP
00000000007F800000
00000003EB3FA1DC10
00000004FD0DC2FE10
000000001009F01100
000000000000000000
000027CEE4000CFF10
0008E8DFF1001FFC00
01BE31FFC0004FF900
09F504FF80007FF600
0FE008FF3000AFF200
1FC00CFE0000EFE000
09D01FFA0002FFB000
00004FF60005FF8000
00008FF20009FF4000
0000BFE0000DFE0000
0000DFC0003FFA0000
0000FFB0009FF40000
0000EFE105FFB00000
00009FFFFFFD100000
000019DFEC71000000
ENDCHAR
STARTCHAR uni01DC
ENCODING 476
SWIDTH 505 0
DWIDTH 10 0
BBX 12 19 -1 0
BITMAP
00001FF00000
00000BF20000
000007F40000
000002F60000
000000000000
0001DC16E700
0002FE18F900
000011002000
000000000000
00BFF20CFF10
00EFE01FFD00
03FFB04FFA00
06FF707FF600
09FF40AFF300
0CFF10DFF000
1FFD02FFC008
2FFC0AFFB087
1FFFFAEFFEC0
06EE906EE810
ENDCHAR
STARTCHAR uni01E4
ENCODING 484
SWIDTH 601 0
DWIDTH 12 0
BBX 12 20 0 -5
BITMAP
00004ADEDA20
001AFFB54DD1
00CFF90009F4
08FFC0000DF4
1EFF40002B80
5FFD00000000
8FF900001220
9FF800009FC0
8FF701FFFFFA
4FFA0007FF50
0CFF516FFF20
02BFFF9CFD00
0001210FFA00
0002203FF700
00AFF97FF300
06F714AFD000
09F101EF7000
06F719FC0000
008FFFB10000
000121000000
ENDCHAR
STARTCHAR uni01E5
ENCODING 485
SWIDTH 507 0
DWIDTH 10 0
BBX 12 15 -1 -5
BITMAP
0003BEEAFF70
004FFA4DFF40
01EFD00CFF10
08FF501FFD00
0DFF104FF900
2FFC007FF600
3FFB00BFF308
3FFD04FFE069
0DFFEFFFC4D2
03CFC8FFFE30
00005CFF9100
000ACCFF4000
08FFFFFFF500
00AA8FF80000
003CFD800000
ENDCHAR
STARTCHAR Gcaron
ENCODING 486
SWIDTH 578 0
DWIDTH 12 0
BBX 13 25 0 -5
BITMAP
0000000B203A60
00000007B9F500
00000003FF5000
00000000D40000
00000000000000
00004ADEEA2000
001AFFB54DD100
00CFF90009F400
08FFC0000DF300
1EFF40002A7000
5FFD0000000000
8FF90000243000
9FF80000AFB000
8FF70001EF8000
4FFA0008FF5000
0CFF516FFF1000
02BFFF9CFD0000
0001210FFA0000
0002203FF60000
00AFF97FF30000
06F714AFD00000
09F101EF700000
06F719FC000000
008FFFB1000000
00012100000000
ENDCHAR
STARTCHAR gcaron
ENCODING 487
SWIDTH 507 0
DWIDTH 10 0
BBX 12 20 -1 -5
BITMAP
000002B006B2
000000D9DC10
0000008FB100
0000003A0000
000000000000
0003BEEAFF70
004FFA4DFF40
01EFD00CFF10
08FF501FFD00
0DFF104FF900
2FFC007FF600
3FFB00BFF308
3FFD04FFE068
0DFFEFFFC4C1
03CFC8FFEA10
00018EFF6000
002E9CFF2000
00990EFD0000
009A8FF60000
002CED600000
ENDCHAR
STARTCHAR uni01E8
ENCODING 488
SWIDTH 601 0
DWIDTH 12 0
BBX 14 20 0 0
BITMAP
00000000420026
000000004C39D3
000000000EFB10
00000000099000
00000000000000
00028CEC004FC1
008EBFF902ED10
0BE37FF60CD200
8F60AFF29E2000
CF20DFE6E30000
BF02FFDE400000
2915FFFEEB3000
0008FF41EFB000
000BFF10CFD000
000EFD00EFC000
003FFA03FF8000
006FF707FF5000
009FF40AFF1000
00CFF10CFE0000
01FFD007FF4000
ENDCHAR
STARTCHAR uni01E9
ENCODING 489
SWIDTH 518 0
DWIDTH 10 0
BBX 13 19 -1 0
BITMAP
00000051003600
0000007A3BC100
0000002FF90000
0000000B700000
00000000000000
0008BC00000000
001FFC00000000
004FF900000000
008FF500000000
00BFF204EA1000
00EFE07E500000
02FFBAE5000000
06FFFFFFB00000
09FFC6DFF30000
0CFF10AFF40000
1FFD00CFF10610
3FFA00EFE03B00
7FF700DFFDE200
AFF3004CEC3000
ENDCHAR
STARTCHAR uni01EA
ENCODING 490
SWIDTH 665 0
DWIDTH 13 0
BBX 14 25 0 -5
BITMAP
000001FF000000
000000BF200000
0000006F400000
0000002F700000
00000000000000
000038CEFDA200
002AFA644AFE20
03ED34CE30DFA0
1EE24FF5009FE0
8F71EFC0008FF1
AF48FF50009FF1
5F3EFE1000BFF0
015FFB0000EFD0
008FF70002FF90
00BFF40008FF40
00CFF3000DFC00
00CFF2007FF500
00AFF503EF9000
004FFDAEFA0000
0005DFEB500000
0000B700000000
0006F200000000
0008F627000000
0002EFE4000000
00000200000000
ENDCHAR
STARTCHAR uni01EB
ENCODING 491
SWIDTH 433 0
DWIDTH 9 0
BBX 12 15 -1 -5
BITMAP
0004BEE80000
005FF96F5000
02EFC03F8029
09FF509FDA92
0EFE104F9000
4FFC005F5000
5FF9008F1000
5FF901E90000
1FFD4BC10000
04DFD9100000
01D400000000
09E000000000
0BF336000000
05FFC2000000
001200000000
ENDCHAR
STARTCHAR uni01EE
ENCODING 494
SWIDTH 525 0
DWIDTH 11 0
BBX 12 20 0 0
BITMAP
000002400062
000000D47D60
0000009FE300
0000004C2000
000000000000
003CFFFFFFE2
00DF533AFF50
00DF204FF900
002302EFC100
00000CFE2000
00009FF50000
0000EFFC5000
000047FFF500
0000008FFD00
0000004FFF00
0340003FFF00
5FC0006FFB00
8F7000DFF400
5FC44BFF6000
06CEED920000
ENDCHAR
STARTCHAR uni01EF
ENCODING 495
SWIDTH 600 0
DWIDTH 12 0
BBX 10 20 0 -5
BITMAP
0001400062
0000D47D60
00009FE300
00004C2000
0000000000
07EFFFFC00
4F93AFF400
4F62FFA000
000BFE2000
005FF70000
00DFD00000
03FFA00013
007FF50085
001FFA03C0
000EFE8C20
005EFF5000
2DAFFD0000
C64FFA0000
E6BFF20000
5DFC400000
ENDCHAR
STARTCHAR uni01F4
ENCODING 500
SWIDTH 578 0
DWIDTH 12 0
BBX 12 25 0 -5
BITMAP
000000000EE2
000000006F70
00000000DC00
00000004D300
000000000000
00004ADEEB30
001AFFB54DE2
00CFF9000AF5
08FFC0002EC1
1EFF40000000
5FFD00000000
8FF900006B90
9FF80000BFA0
8FF70002FF70
4FFA0009FF40
0CFF517FFF10
02BFFF9CFC00
0001210FF900
0002203FF600
00AFF97FF200
06F714AFC000
09F101EF6000
06F719FC0000
008FFFA10000
000121000000
ENDCHAR
STARTCHAR uni01F5
ENCODING 501
SWIDTH 507 0
DWIDTH 10 0
BBX 12 20 -1 -5
BITMAP
00000008F800
0000001ED000
0000007F4000
000000C90000
000000000000
0003BEEAFF70
004FFA4DFF40
01EFD00CFF10
08FF501FFD00
0DFF104FF900
2FFC007FF600
3FFB00BFF308
3FFD04FFE068
0DFFEFFFC4C1
03CFC8FFEA10
00018EFF6000
002E9CFF2000
00990EFD0000
009A8FF60000
002CED600000
ENDCHAR
STARTCHAR Aringacute
ENCODING 506
SWIDTH 668 0
DWIDTH 13 0
BBX 16 22 0 -2
BITMAP
0000000000000384
0000000000001DB1
000000000005EE10
00000000000D6E20
00000000000CAD00
00000000006CFA00
000000001BEFF900
00000001D98FF600
0000001CB0BFF300
0000009F20EFE000
000005F802FFB000
05BEFFFA56FF8000
7FC5AF948EFF5000
BF72FF200CFF2000
3729FA000FFD0000
001FF5003FFA0000
007FE0006FF70000
00CFA000AFF40000
01FF7000DFF10000
04FF3001FFC00000
03FF200000000000
009E300000000000
ENDCHAR
STARTCHAR aringacute
ENCODING 507
SWIDTH 526 0
DWIDTH 11 0
BBX 13 16 -1 0
BITMAP
00000002F90000
00000009D10000
000000A8900000
00000492B00000
000002EF700000
00000012000000
0003BEEAFF7000
004FFA4DFF4000
01EFD00CFF1000
08FF600FFD0000
0DFF103FF90000
2FFC007FF60000
3FFB00AFF30620
3FFC03FFF22C00
0DFFDEAFFEE400
03CEB32CEB4000
ENDCHAR
STARTCHAR AEacute
ENCODING 508
SWIDTH 764 0
DWIDTH 15 0
BBX 19 22 0 -2
BITMAP
00000000000000583000
00000000000001EC0000
00000000000008E20000
0000000000001E300000
00000000000000000000
00000000018DEA412810
000000002DDFFEFFF800
00000002D98FF6122000
0000001DB0BFF3000000
000000AE20EFF0000000
000005F802FFC0000000
05CFFFF946FF92210000
7FD5AF959EFFFFF60000
CF72FF200CFF65510000
493AFA000FFD00000000
001FF5003FFA00000000
008FE0006FF700000000
00CFA000AFF511110000
02FF7000DFFFFFF80000
04FF3001FFFFFFF50000
03FF2000000000000000
009E2000000000000000
ENDCHAR
STARTCHAR aeacute
ENCODING 509
SWIDTH 650 0
DWIDTH 13 0
BBX 15 15 -1 0
BITMAP
0000000000AF5000
0000000002FB0000
0000000009E20000
000000001D600000
0000000000000000
0004BEEC58DFC200
003C53AFFFD4E900
0000005FFF30E900
0000007FFA06F400
006CEFFFF66FA000
0AFF94EFFFE70000
1FFC02FFF2000130
2FFB08FFF1001A10
0EFFEEBFF836B200
04DFC31AEEC71000
ENDCHAR
STARTCHAR Oslashacute
ENCODING 510
SWIDTH 658 0
DWIDTH 13 0
BBX 13 21 0 -1
BITMAP
0000000000AF50
0000000002FB00
0000000009F200
000000001E8000
00000000000000
000000005B0000
00005ADEFD6000
006EDEFFF9FA00
09F87FF8E1FF30
5FA2FFC3C0EF80
AF3AFF5690FF90
7F3FFE0961FF90
026FF90C34FF70
009FF51E07FF30
00CFF23B0CFE00
00DFF0783FF700
00EFE0A5BFD100
00BFF1D9FF4000
006FFBFFE40000
0006CFD6100000
00000870000000
ENDCHAR
STARTCHAR oslashacute
ENCODING 511
SWIDTH 428 0
DWIDTH 9 0
BBX 12 16 -2 -1
BITMAP
00000000AF60
00000002FB00
00000009F200
0000001D7000
000000000000
000029DEA2D2
0004EFA5FE30
001EFD00DB00
009FF609FB00
00EFF18BFA00
02FFC7B6F700
04FFEC1BF200
02FFF17F9000
00CFFEFC1000
02DCFD810000
1D4000000000
ENDCHAR
STARTCHAR uni0200
ENCODING 512
SWIDTH 668 0
DWIDTH 13 0
BBX 14 22 0 -2
BITMAP
00000009F56F90
00000001DC0AE1
000000003F41E7
0000000008B04E
00000000000000
00000000018DFA
000000002DEFF9
00000002D98FF6
0000001DB0BFF2
0000009F20EFE0
000005F802FFB0
05BEFFFA56FF80
7FC5AF948EFF50
BF72FF200CFF10
3729FA000FFD00
001FF5003FFA00
007FE0006FF700
00CFA000AFF400
01FF7000DFF100
04FF3001FFC000
03FF2000000000
009E3000000000
ENDCHAR
STARTCHAR uni0201
ENCODING 513
SWIDTH 526 0
DWIDTH 11 0
BBX 13 15 -1 0
BITMAP
003FC1DE100000
0008F34F700000
0000CA08D00000
00002E20C60000
00000000000000
0003BEEAFF7000
004FFA4DFF4000
01EFD00CFF1000
08FF600FFD0000
0DFF103FF90000
2FFC007FF60000
3FFB00AFF30620
3FFC03FFF22C00
0DFFDEAFFEE400
03CEB32CEB4000
ENDCHAR
STARTCHAR uni0202
ENCODING 514
SWIDTH 668 0
DWIDTH 13 0
BBX 17 21 0 -2
BITMAP
00000000005BEEC300
0000000007F945EE00
000000000A80007A10
000000000000000000
00000000018DFA0000
000000002DEFF90000
00000002D98FF60000
0000001DB0BFF20000
0000009F20EFE00000
000005F802FFB00000
05BEFFFA56FF800000
7FC5AF948EFF500000
BF72FF200CFF100000
3729FA000FFD000000
001FF5003FFA000000
007FE0006FF7000000
00CFA000AFF4000000
01FF7000DFF1000000
04FF3001FFC0000000
03FF20000000000000
009E30000000000000
ENDCHAR
STARTCHAR uni0203
ENCODING 515
SWIDTH 526 0
DWIDTH 11 0
BBX 13 14 -1 0
BITMAP
000018DFD80000
0001DE64AF6000
0005C4002C8000
00000000000000
0003BEEAFF7000
004FFA4DFF4000
01EFD00CFF1000
08FF600FFD0000
0DFF103FF90000
2FFC007FF60000
3FFB00AFF30620
3FFC03FFF22C00
0DFFDEAFFEE400
03CEB32CEB4000
ENDCHAR
STARTCHAR uni0204
ENCODING 516
SWIDTH 459 0
DWIDTH 9 0
BBX 10 20 0 0
BITMAP
008F74FB00
000CD08F20
0002E60C90
00006C03E1
0000000000
00003AEEA1
0004FF74E9
000EF900BC
004FF402E9
005FF40261
001EFA0000
0009FF9000
02CFF70000
0CFF800000
6FFE100000
BFFB000000
CFFA000026
BFFE3016C1
4FFFFEFC10
05CEEB5000
ENDCHAR
STARTCHAR uni0205
ENCODING 517
SWIDTH 384 0
DWIDTH 8 0
BBX 10 15 -1 0
BITMAP
07F84FB000
00BE18F300
002E60CA00
0005D02E20
0000000000
0003BEEA00
004FF97F40
01EFC04F40
08FF50BE10
0DFF39F500
2FFFFC4000
3FFB100031
3FFC000690
0DFFCADA00
03BEEB5000
ENDCHAR
STARTCHAR uni0206
ENCODING 518
SWIDTH 459 0
DWIDTH 9 0
BBX 12 19 0 0
BITMAP
000004BEFC40
00006FA45EE1
0000990006B2
000000000000
00003AEEA100
0004FF74E900
000EF900BC00
004FF402E900
005FF4026100
001EFA000000
0009FF900000
02CFF7000000
0CFF80000000
6FFE10000000
BFFB00000000
CFFA00002600
BFFE3016C100
4FFFFEFC1000
05CEEB500000
ENDCHAR
STARTCHAR uni0207
ENCODING 519
SWIDTH 384 0
DWIDTH 8 0
BBX 10 14 -1 0
BITMAP
0003AEEB30
005FA45ED0
00CC0009E2
0000000000
0003BEEA00
004FF97F40
01EFC04F40
08FF50BE10
0DFF39F500
2FFFFC4000
3FFC100021
3FFB000390
0DFF547A10
03BEEB5000
ENDCHAR
STARTCHAR uni0208
ENCODING 520
SWIDTH 375 0
DWIDTH 8 0
BBX 9 20 0 0
BITMAP
06F93FC000
00AE17F400
001E70BB00
0004E12E30
0000000000
00027CEC00
007EAFF900
09E37FF600
6F70AFF300
CF20DFF000
CF02FFC000
5D15FF9000
0008FF5000
000BFF2000
000EFE0000
003FFB0000
006FF80000
009FF40000
00CFF10000
01FFD00000
ENDCHAR
STARTCHAR uni0209
ENCODING 521
SWIDTH 267 0
DWIDTH 5 0
BBX 9 15 -2 0
BITMAP
9F56F90000
1DC0AE1000
03F41D8000
008B04E100
0000000000
000BFF2000
000EFE0000
003FFB0000
006FF70000
009FF40000
00CFF10000
01FFD00710
02FFC05A00
01FFFEE200
006EE92000
ENDCHAR
STARTCHAR uni020A
ENCODING 522
SWIDTH 375 0
DWIDTH 8 0
BBX 10 19 0 0
BITMAP
00007CFEA1
000BE737FA
002A500099
0000000000
00017CEC00
007ECFF900
09F47FF600
6F80AFF300
CF20DFF000
CF01FFC000
6F15FF9000
0108FF5000
000BFF2000
000EFE0000
002FFB0000
006FF80000
009FF40000
00CFF10000
01FFD00000
ENDCHAR
STARTCHAR uni020B
ENCODING 523
SWIDTH 267 0
DWIDTH 5 0
BBX 8 14 -1 0
BITMAP
007DEC20
09E64DB0
1C5006B0
00000000
00BFF200
00EFE000
03FFB000
06FF7000
09FF4000
0CFF1000
1FFD0071
2FFC05A0
1FFFEE20
06EE9200
ENDCHAR
STARTCHAR uni020C
ENCODING 524
SWIDTH 665 0
DWIDTH 13 0
BBX 14 20 0 0
BITMAP
0000DF29F50000
00003F81DC0000
000007E13F4000
000000B708B000
00000000000000
000038CEFDA200
002AFA644AFE20
03ED34CE30DFA0
1EE24FF5009FE0
8F71EFC0008FF1
AF48FF50009FF1
5F3EFE1000BFF0
015FFA0000EFD0
008FF70002FF90
00BFF40008FF40
00CFF3000DFD00
00CFF2007FF500
00AFF503EF9000
004FFEAEFA0000
0005CEEB500000
ENDCHAR
STARTCHAR uni020D
ENCODING 525
SWIDTH 433 0
DWIDTH 9 0
BBX 12 15 -1 0
BITMAP
09F65FA00000
00CD09F20000
003F51D80000
0007C03E1000
000000000000
0004BEE90000
005FF96F5000
02EFB03F904A
09FF408FEC81
0EFE003F8000
4FFB006F5000
5FF900BE1000
5FFA05F90000
1EFFCFC10000
04CED8100000
ENDCHAR
STARTCHAR uni020E
ENCODING 526
SWIDTH 665 0
DWIDTH 13 0
BBX 14 19 0 0
BITMAP
00000006CFEB20
0000009F836FC0
000001A60008A0
00000000000000
000038CEFDA200
002AFA644AFE20
03ED34CE30DFA0
1EE24FF5009FE0
8F71EFC0008FF1
AF48FF50009FF1
5F3EFE1000BFF0
015FFA0000EFD0
008FF70002FF90
00BFF40008FF40
00CFF3000DFD00
00CFF2007FF500
00AFF503EF9000
004FFEAEFA0000
0005CEEB500000
ENDCHAR
STARTCHAR uni020F
ENCODING 527
SWIDTH 433 0
DWIDTH 9 0
BBX 12 14 -1 0
BITMAP
00017DFD8000
001CE64AF600
006E5002E900
000000000000
0004BEE80000
005FF96F5000
02EFC03F8029
09FF509FDA92
0EFE104F9000
4FFC005F5000
5FF9008F1000
5FF901E90000
1EFD4BC10000
04CED9100000
ENDCHAR
STARTCHAR uni0210
ENCODING 528
SWIDTH 601 0
DWIDTH 12 0
BBX 12 20 0 0
BITMAP
005FA2ED0000
0009F26F5000
0001D90AC000
00003E11E400
000000000000
00027CEFD920
008FC7447EE3
0AF64AC608F9
7F80AFF308F9
CF20DFE01DF3
CF01FFB3BF60
4B14FFFFFD30
0008FF75FFC0
000BFF20CFD0
000EFD00EFB0
002FFA02FF80
006FF706FF50
009FF40AFF10
00CFF10CFE00
01FFD007FF40
ENDCHAR
STARTCHAR uni0211
ENCODING 529
SWIDTH 376 0
DWIDTH 8 0
BBX 9 15 -1 0
BITMAP
5FA2ED0000
0AF26F5000
01D80AC000
004E11E300
0000000000
00BFF5CE60
00EFFCDFB0
03FFB04D50
06FF700000
09FF400000
0CFF100000
1FFD000000
4FFA000000
7FF7000000
AFF3000000
ENDCHAR
STARTCHAR uni0212
ENCODING 530
SWIDTH 601 0
DWIDTH 12 0
BBX 12 19 0 0
BITMAP
000004BEFC40
00006FA45DE1
0000990005A2
000000000000
00027CEFD920
008FC7447EE3
0AF64AC608F9
7F80AFF308F9
CF20DFE01DF3
CF01FFB3BF60
4B14FFFFFD30
0008FF75FFC0
000BFF20CFD0
000EFD00EFB0
002FFA02FF80
006FF706FF50
009FF40AFF10
00CFF10CFE00
01FFD007FF40
ENDCHAR
STARTCHAR uni0213
ENCODING 531
SWIDTH 376 0
DWIDTH 8 0
BBX 10 14 -1 0
BITMAP
0003AEEC40
005FB45EE1
00AB0006C3
0000000000
00BFF5CE60
00EFFCDFB0
03FFB04D50
06FF700000
09FF400000
0CFF100000
1FFD000000
4FFA000000
7FF7000000
AFF3000000
ENDCHAR
STARTCHAR uni0214
ENCODING 532
SWIDTH 716 0
DWIDTH 14 0
BBX 17 20 -1 0
BITMAP
0000003FC1DE100000
00000007F34F700000
00000000CA08D00000
000000002E20C60000
000000000000000000
000027CEE4000CFF10
0008E8DFF1001FFC00
01BE31FFC0004FF900
09F504FF80007FF600
0FE008FF3000AFF200
1FC00CFE0000EFE000
09D01FFA0002FFB000
00004FF60005FF8000
00008FF20009FF4000
0000BFE0000DFE0000
0000DFC0003FFA0000
0000FFB0009FF40000
0000EFE105FFB00000
00009FFFFFFD100000
000019DFEC71000000
ENDCHAR
STARTCHAR uni0215
ENCODING 533
SWIDTH 505 0
DWIDTH 10 0
BBX 12 15 -1 0
BITMAP
04FB1EE00000
008F25F60000
000C909D0000
0003E11D4000
000000000000
00BFF20CFF10
00EFE01FFD00
03FFB04FFA00
06FF707FF600
09FF40AFF300
0CFF10DFF000
1FFD02FFC008
2FFC0AFFB087
1FFFFAEFFEC0
06EE906EE810
ENDCHAR
STARTCHAR uni0216
ENCODING 534
SWIDTH 716 0
DWIDTH 14 0
BBX 17 19 -1 0
BITMAP
0000000004BEFC3000
000000007F945EE000
00000000980006A200
000000000000000000
000027CEE4000CFF10
0008E8DFF1001FFC00
01BE31FFC0004FF900
09F504FF80007FF600
0FE008FF3000AFF200
1FC00CFE0000EFE000
09D01FFA0002FFB000
00004FF60005FF8000
00008FF20009FF4000
0000BFE0000DFE0000
0000DFC0003FFA0000
0000FFB0009FF40000
0000EFE105FFB00000
00009FFFFFFD100000
000019DFEC71000000
ENDCHAR
STARTCHAR uni0217
ENCODING 535
SWIDTH 505 0
DWIDTH 10 0
BBX 12 14 -1 0
BITMAP
00006CEEA200
0009F847FB00
002C7000AB00
000000000000
00BFF20CFF10
00EFE01FFD00
03FFB04FFA00
06FF707FF600
09FF40AFF300
0CFF10DFF000
1FFD02FFC008
2FFC0AFFB087
1FFFFAEFFEC0
06EE906EE810
ENDCHAR
STARTCHAR Scommaaccent
ENCODING 536
SWIDTH 570 0
DWIDTH 11 0
BBX 11 20 0 -5
BITMAP
000029DFD810
0003EFB47FA0
000CFF100EF0
000EFE003FE0
000CFF504A40
0005FFE30000
0000AFFE2000
00000CFFD100
002521DFF900
07FFE14FFF10
1FF8000DFF40
4FF0000CFF20
3FF2002FFB00
0AFC67EFD200
007CEEC70000
000000000000
0008E3000000
0007F5000000
0003C0000000
000510000000
ENDCHAR
STARTCHAR scommaaccent
ENCODING 537
SWIDTH 382 0
DWIDTH 8 0
BBX 10 16 -1 -5
BITMAP
0000245000
0005FFD000
000AFFE000
001CFFF000
0077DFF100
01D1CFF200
0880BFF300
5FB0AFF452
9A40BFFC60
6C47FFC300
08EFD70000
0000000000
00CD100000
00BF100000
0079000000
0060000000
ENDCHAR
STARTCHAR uni021A
ENCODING 538
SWIDTH 481 0
DWIDTH 10 0
BBX 15 20 0 -5
BITMAP
0016BDEEC8411640
03DC65FFFFFFFF20
1EC004FFECEFE700
8F5007FF90010000
BF100AFF50000000
DF000EFF20000000
9F002FFE00000000
05105FFA00000000
00008FF700000000
0000BFF400000000
0000EFF100000000
0002FFC000000000
0005FF9000000000
0008FF5000000000
000BFF2000000000
0000000000000000
0008E30000000000
0007F50000000000
0003C00000000000
0005100000000000
ENDCHAR
STARTCHAR uni021B
ENCODING 539
SWIDTH 267 0
DWIDTH 5 0
BBX 8 18 -1 -5
BITMAP
001CEC00
005FF800
008FF500
05FFFF60
01EFF310
01FFC000
05FF8000
08FF5000
0CFF2000
0FFD0061
2FFC04B0
1FFFDE20
06EEA200
00000000
0CD10000
0BF20000
06900000
06000000
ENDCHAR
STARTCHAR uni021E
ENCODING 542
SWIDTH 665 0
DWIDTH 13 0
BBX 14 20 0 0
BITMAP
00000000420026
000000004C39D3
000000000EFB10
00000000099000
00000000000000
00017BEE002FFC
006DAFFB005FF8
08F45FF8008FF5
5F909FF500CFF2
AF40CFF100EFE0
BF20FFD225FFB0
4D33FFFFFFFF80
0006FF955BFF40
0009FF400CFF10
000DFF101FFD00
001FFC004FFA00
004FF9007FF700
007FF600AFF300
00AFF300DFF100
00DFE001FFC000
ENDCHAR
STARTCHAR uni021F
ENCODING 543
SWIDTH 600 0
DWIDTH 12 0
BBX 13 19 -1 0
BITMAP
00000023001610
0000001E38D500
0000000AFD3000
00000005B10000
00000000000000
00079B00000000
001FFC00000000
004FF800000000
007FF500000000
00BFF9DEA10000
00EFF78FF60000
02FFB04FF80000
05FF606FF70000
09FF309FF40000
0CFF00CFF10000
0FFC00FFD00300
3FF902FFA03900
7FF600EFD4B100
AFF3005DEB2000
ENDCHAR
STARTCHAR uni0237
ENCODING 567
SWIDTH 240 0
DWIDTH 5 0
BBX 10 15 -4 -5
BITMAP
00000BFF20
00000EFE00
00002FFB00
00006FF800
00009FF500
0000CFF200
0000FFE023
0003FFB084
0007FF83A0
000AFFB910
029FFF2000
5EAFFC0000
E54FF80000
E6BFE20000
5DEB300000
ENDCHAR
STARTCHAR uni0259
ENCODING 601
SWIDTH 404 0
DWIDTH 8 0
BBX 8 10 0 0
BITMAP
03BEEC40
0D64CFF3
02005FF8
00004FFA
007DFFF9
1CE7AFF5
9F30DFE1
EB05FF60
EC5EF800
5DEB4000
ENDCHAR
STARTCHAR uni0292
ENCODING 658
SWIDTH 442 0
DWIDTH 9 0
BBX 10 15 0 -5
BITMAP
07EFFFFC00
4F93AFF400
4F62FFA000
000BFE2000
005FF70000
00DFD00000
03FFA00013
007FF50085
001FFA03C0
000EFE8C20
005EFF5000
2DAFFD0000
C64FFA0000
E6BFF20000
5DFC400000
ENDCHAR
STARTCHAR uni02BB
ENCODING 699
SWIDTH 241 0
DWIDTH 5 0
BBX 4 5 2 10
BITMAP
0060
0870
3F80
7FF2
3EC0
ENDCHAR
STARTCHAR uni02BC
ENCODING 700
SWIDTH 228 0
DWIDTH 5 0
BBX 3 5 3 10
BITMAP
BE30
DF60
5E10
A500
1000
ENDCHAR
STARTCHAR circumflex
ENCODING 710
SWIDTH 293 0
DWIDTH 6 0
BBX 6 4 0 11
BITMAP
000150
002DE1
04EBD5
6A303A
ENDCHAR
STARTCHAR caron
ENCODING 711
SWIDTH 294 0
DWIDTH 6 0
BBX 6 4 2 11
BITMAP
600044
A75C90
5FF700
0D4000
ENDCHAR
STARTCHAR uni02C9
ENCODING 713
SWIDTH 421 0
DWIDTH 8 0
BBX 8 2 2 11
BITMAP
6FFFFFF1
13333320
ENDCHAR
STARTCHAR uni02CA
ENCODING 714
SWIDTH 256 0
DWIDTH 5 0
BBX 4 4 2 11
BITMAP
0077
06F6
0D90
6C00
ENDCHAR
STARTCHAR uni02CB
ENCODING 715
SWIDTH 274 0
DWIDTH 5 0
BBX 3 4 3 11
BITMAP
AF40
4F70
0D90
07B0
ENDCHAR
STARTCHAR breve
ENCODING 728
SWIDTH 431 0
DWIDTH 9 0
BBX 8 4 1 10
BITMAP
35100153
7F813BF3
1AFFFB30
00021000
ENDCHAR
STARTCHAR dotaccent
ENCODING 729
SWIDTH 250 0
DWIDTH 5 0
BBX 4 3 1 12
BITMAP
6EB0
CFF4
6EB1
ENDCHAR
STARTCHAR ring
ENCODING 730
SWIDTH 156 0
DWIDTH 3 0
BBX 4 4 0 10
BITMAP
6EB0
E6E1
BFC0
0200
ENDCHAR
STARTCHAR ogonek
ENCODING 731
SWIDTH 291 0
DWIDTH 6 0
BBX 6 6 0 -5
BITMAP
001300
03D100
0D9000
1FB143
0AFFA0
003200
ENDCHAR
STARTCHAR tilde
ENCODING 732
SWIDTH 403 0
DWIDTH 8 0
BBX 9 2 0 11
BITMAP
02AEECA850
188ADFD700
ENDCHAR
STARTCHAR hungarumlaut
ENCODING 733
SWIDTH 436 0
DWIDTH 9 0
BBX 8 4 1 11
BITMAP
00AF56F9
02F90DC0
08D15F30
1E30C700
ENDCHAR
STARTCHAR gravecomb
ENCODING 768
SWIDTH 0 0
DWIDTH 0 0
BBX 4 4 -4 11
BITMAP
5FA0
0EC0
08E0
02F1
ENDCHAR
STARTCHAR acutecomb
ENCODING 769
SWIDTH 0 0
DWIDTH 0 0
BBX 4 4 -4 11
BITMAP
0286
09F3
2F60
A900
ENDCHAR
STARTCHAR uni0302
ENCODING 770
SWIDTH 0 0
DWIDTH 0 0
BBX 7 4 -6 11
BITMAP
00005200
0008F700
01AEBC00
2B710B20
ENDCHAR
STARTCHAR tildecomb
ENCODING 771
SWIDTH 0 0
DWIDTH 0 0
BBX 9 2 -8 11
BITMAP
02BEECA850
188BEFD600
ENDCHAR
STARTCHAR uni0304
ENCODING 772
SWIDTH 0 0
DWIDTH 0 0
BBX 7 2 -6 11
BITMAP
CFFFFF90
33333310
ENDCHAR
STARTCHAR uni0306
ENCODING 774
SWIDTH 0 0
DWIDTH 0 0
BBX 8 4 -7 10
BITMAP
25300055
3FC228F8
07EFFD60
00021000
ENDCHAR
STARTCHAR uni0307
ENCODING 775
SWIDTH 0 0
DWIDTH 0 0
BBX 4 3 -3 12
BITMAP
1CE5
5FFB
1CE5
ENDCHAR
STARTCHAR uni0308
ENCODING 776
SWIDTH 0 0
DWIDTH 0 0
BBX 7 3 -6 11
BITMAP
01000200
4FC0AF60
3EB08E50
ENDCHAR
STARTCHAR hookabovecomb
ENCODING 777
SWIDTH 0 0
DWIDTH 0 0
BBX 5 5 -5 10
BITMAP
4DFB10
155F60
012E20
0B8100
021000
ENDCHAR
STARTCHAR uni030A
ENCODING 778
SWIDTH 0 0
DWIDTH 0 0
BBX 4 4 -3 10
BITMAP
1CE4
7B98
5FF4
0210
ENDCHAR
STARTCHAR uni030B
ENCODING 779
SWIDTH 0 0
DWIDTH 0 0
BBX 7 4 -6 11
BITMAP
06F83FC0
0DC0AE20
5F32F600
C608A000
ENDCHAR
STARTCHAR uni030C
ENCODING 780
SWIDTH 0 0
DWIDTH 0 0
BBX 6 4 -5 11
BITMAP
510026
6A3AC2
1FFA10
0B7000
ENDCHAR
STARTCHAR uni030F
ENCODING 783
SWIDTH 0 0
DWIDTH 0 0
BBX 8 4 -7 11
BITMAP
7F84FB00
0BE18F30
02E60CA0
005D02E2
ENDCHAR
STARTCHAR uni0311
ENCODING 785
SWIDTH 0 0
DWIDTH 0 0
BBX 8 3 -7 11
BITMAP
04BEFC50
5FA44DF2
890005A3
ENDCHAR
STARTCHAR uni031B
ENCODING 795
SWIDTH 0 0
DWIDTH 0 0
BBX 4 5 -3 8
BITMAP
03E5
03F6
07E1
3E50
1300
ENDCHAR
STARTCHAR dotbelowcomb
ENCODING 803
SWIDTH 0 0
DWIDTH 0 0
BBX 4 3 -4 -5
BITMAP
4ED2
AFF7
4ED2
ENDCHAR
STARTCHAR uni0324
ENCODING 804
SWIDTH 0 0
DWIDTH 0 0
BBX 7 3 -9 -4
BITMAP
02001100
8F81EE20
7E60CD20
ENDCHAR
STARTCHAR uni0326
ENCODING 806
SWIDTH 0 0
DWIDTH 0 0
BBX 3 4 -5 -5
BITMAP
8E30
8F50
3C00
5100
ENDCHAR
STARTCHAR uni0327
ENCODING 807
SWIDTH 0 0
DWIDTH 0 0
BBX 6 6 -8 -5
BITMAP
005600
00B200
02FFE2
142AF4
1BFF90
002100
ENDCHAR
STARTCHAR uni0328
ENCODING 808
SWIDTH 0 0
DWIDTH 0 0
BBX 6 6 -8 -5
BITMAP
002300
04C100
0E8000
2FB053
0BFFA0
003200
ENDCHAR
STARTCHAR uni032E
ENCODING 814
SWIDTH 0 0
DWIDTH 0 0
BBX 7 3 -9 -4
BITMAP
48000840
4F84AE30
08DEA300
ENDCHAR
STARTCHAR uni0331
ENCODING 817
SWIDTH 0 0
DWIDTH 0 0
BBX 8 2 -10 -4
BITMAP
1FFFFFF6
03333331
ENDCHAR
STARTCHAR uni0335
ENCODING 821
SWIDTH 0 0
DWIDTH 0 0
BBX 8 2 -8 4
BITMAP
8FFFFFF1
23333330
ENDCHAR
STARTCHAR uni0394
ENCODING 916
SWIDTH 619 0
DWIDTH 12 0
BBX 13 15 0 0
BITMAP
00000004FF3000
0000000CFF6000
0000006FDF8000
000001EC5FA000
000008F43FC000
00002FA01FF000
0000BF200EF200
0004F8000CF400
000DE1000AF700
007F600008F900
01EC000006FB00
09F3000003FD00
3FA0000001FF10
AFA9999999FF30
BFFFFFFFFFFF30
ENDCHAR
STARTCHAR uni03A9
ENCODING 937
SWIDTH 745 0
DWIDTH 15 0
BBX 14 15 0 0
BITMAP
00000039DFE920
000008FFCCEFD1
0000AF91001BF8
0008F7000002FD
003FB0000000DF
00AF30000000CF
00ED00000000DD
02FA00000001FA
03F900000005F5
01F90000000BD0
00DC0000005F40
007F300002E700
000CB0003D7000
199AF802EC9980
5FFFF606FFFFC0
ENDCHAR
STARTCHAR uni03BC
ENCODING 956
SWIDTH 505 0
DWIDTH 10 0
BBX 13 14 -2 -4
BITMAP
000BFF20CFF100
000EFE01FFD000
003FFB04FFA000
006FF707FF7000
009FF40AFF3000
00CFF10DFF0000
01FFD02FFC0060
03FFC09FFB0670
07FFFDBEFFDC10
0AFFE916EE9100
0DFF0000000000
1FFC0000000000
4FD60000000000
21000000000000
ENDCHAR
STARTCHAR pi
ENCODING 960
SWIDTH 530 0
DWIDTH 11 0
BBX 12 10 -1 0
BITMAP
1FFFFFFFFFF8
29BFA99BFA93
007F1008F200
00BD000BD000
00EA000EA000
02F7002F7000
05F4006F4000
08F1009F1000
0CC000BE1000
0E90007E8000
ENDCHAR
STARTCHAR uni0400
ENCODING 1024
SWIDTH 459 0
DWIDTH 9 0
BBX 10 20 0 0
BITMAP
000008F600
000002F900
000000BB00
0000005D00
0000000000
00003AEEA1
0004FF74E9
000EF900BC
004FF402E9
005FF40261
001EFA0000
0009FF9000
02CFF70000
0CFF800000
6FFE100000
BFFB000000
CFFA000026
BFFE3016C1
4FFFFEFC10
05CEEB5000
ENDCHAR
STARTCHAR uni0401
ENCODING 1025
SWIDTH 459 0
DWIDTH 9 0
BBX 11 19 0 0
BITMAP
000001100200
00003FD09F80
00002EC07E60
000000000000
00003AEEA100
0004FF74E900
000EF900BC00
004FF402E900
005FF4026100
001EFA000000
0009FF900000
02CFF7000000
0CFF80000000
6FFE10000000
BFFB00000000
CFFA00002600
BFFE3016C100
4FFFFEFC1000
05CEEB500000
ENDCHAR
STARTCHAR uni0402
ENCODING 1026
SWIDTH 725 0
DWIDTH 15 0
BBX 15 19 0 -4
BITMAP
0006ADEFFFFFFF60
03DD64FFEBEFFB10
1EC103FFB0010000
7F5006FF80000000
AF2009FF50000000
AF200CFF20000000
3C300FFFADFC3000
00003FFD54EFC000
00006FF700BFF100
00009FF400CFF100
0000CFF100EFE000
0001FFD002FFB000
0003FFA006FF7000
0006FF700AFF2000
000AFF401EFC0000
000000006FF50000
00000103EFC00000
000009EFFE200000
000003DEB2000000
ENDCHAR
STARTCHAR uni0403
ENCODING 1027
SWIDTH 400 0
DWIDTH 8 0
BBX 13 20 0 0
BITMAP
00000000006710
0000000004F900
000000000BB000
000000004D1000
00000000000000
0005ADEFFFFF90
03DD9FFEDFFE20
1ED15FF8012000
8F808FF5000000
BF50BFF2000000
AF50EFE0000000
3C53FFA0000000
0006FF70000000
0009FF40000000
000CFF10000000
001FFD00000000
004FFA00000000
007FF600000000
00AFF300000000
00DFF000000000
ENDCHAR
STARTCHAR uni0404
ENCODING 1028
SWIDTH 497 0
DWIDTH 10 0
BBX 11 15 0 0
BITMAP
00003AEFD700
0006FFC46F60
004FFD100EA0
01DFF5004F90
06FFC0005810
0CFF70000000
1FFFFFFE0000
5FFE33320000
7FFD00000000
9FFB00000000
9FFB00000000
8FFE00000530
5FFF70028B00
0CFFFFEFB100
019DFEB50000
ENDCHAR
STARTCHAR uni0405
ENCODING 1029
SWIDTH 570 0
DWIDTH 11 0
BBX 11 15 0 0
BITMAP
000029DFD810
0003EFB47FA0
000CFF100EF0
000EFE003FE0
000CFF504A40
0005FFE30000
0000AFFE2000
00000CFFD100
002521DFF900
07FFE14FFF10
1FF8000DFF40
4FF0000CFF20
3FF2002FFB00
0AFC67EFD200
007CEEC70000
ENDCHAR
STARTCHAR uni0406
ENCODING 1030
SWIDTH 374 0
DWIDTH 7 0
BBX 8 15 0 0
BITMAP
00016BEE
005ECFFB
07F65FF8
4FA08FF5
AF40BFF2
BF20EFE0
5E23FFA0
0006FF70
0009FF40
000CFF10
001FFD00
004FF900
007FF600
00AFF300
00DFE000
ENDCHAR
STARTCHAR uni0407
ENCODING 1031
SWIDTH 375 0
DWIDTH 8 0
BBX 10 19 0 0
BITMAP
0000110020
0001EE26FA
0001CD15E8
0000000000
00017CEC00
007ECFF900
09F47FF600
6F80AFF300
CF20DFF000
CF01FFC000
6F15FF9000
0108FF5000
000BFF2000
000EFE0000
002FFB0000
006FF80000
009FF40000
00CFF10000
01FFD00000
ENDCHAR
STARTCHAR uni0408
ENCODING 1032
SWIDTH 536 0
DWIDTH 11 0
BBX 12 20 0 -5
BITMAP
000000039DF7
000001AEDFF4
00001DC1CFF1
0000BF21FFC0
0002FC04FF90
0003FA07FF60
0001CA0BFF30
0000020EFE00
0000002FFC00
0000006FF800
0000009FF500
000000CFF200
000001FFE000
002204FFB000
1CFF97FF7000
7F714BFF3000
9F101EFC0000
6F618FF30000
0AFFFC400000
001210000000
ENDCHAR
STARTCHAR uni0409
ENCODING 1033
SWIDTH 817 0
DWIDTH 16 0
BBX 17 17 -1 -2
BITMAP
000000003AEE600000
00000006EDFF400000
0000006E3CFF100000
000004F51FFD000000
00002EA04FF9000000
0000BF207FF6000000
0006FA00AFFCEEB300
001DF200DFE44DFE10
007FB001FFB005FF70
01EF5004FF8003FF90
07FE0008FF5003FF80
0CFA000BFF2007FF50
2FF5000EFE301DFD00
6FF2002FFB9EFFF400
8FE0005FF83DEC4000
8FC000000000000000
1BD000000000000000
ENDCHAR
STARTCHAR uni040A
ENCODING 1034
SWIDTH 931 0
DWIDTH 19 0
BBX 18 15 0 0
BITMAP
00017BEE002FFC0000
006EBFFB005FF80000
09F55FF8008FF50000
5F908FF500BFF20000
AF40BFF100EFD00000
AF20EFD003FFA00000
3B33FFFFFFFFDDFD70
0006FF833BFF74AFF5
0009FF300DFF101FFB
000CFF001FFD000DFD
001FFC004FF9000EFC
004FF9007FF6003FF9
007FF600AFF520AFF3
00AFF300DFF6FEFF80
00DFE001FFC1BED700
ENDCHAR
STARTCHAR uni040B
ENCODING 1035
SWIDTH 745 0
DWIDTH 15 0
BBX 15 15 0 0
BITMAP
0006ADEFFFFFFF60
03DD64FFEBEFFB10
1EC103FFB0010000
7F5006FF80000000
AF2009FF50000000
AF200CFF20000000
3C300FFF9DFC3000
00003FFD54EFC000
00006FF700BFF100
00009FF400CFF000
0000CFF100FFD000
0001FFD003FFA000
0003FFA006FF7000
0006FF7008FF5000
000AFF4004EF9000
ENDCHAR
STARTCHAR uni040C
ENCODING 1036
SWIDTH 635 0
DWIDTH 13 0
BBX 14 20 0 0
BITMAP
00000000006820
0000000003F900
000000000BC000
000000004D1000
00000000000000
00017CEE007DE4
007ECFFB0AFFF9
0AF55FF88F77C3
6F908FF7F60000
BF30BFFB900000
AF20EFEE100000
1823FFFEEC4000
0006FF61DFD000
0009FF30AFF000
000CFE00CFD000
001FFC01FFA000
004FF905FF6000
007FF608FF3000
00AFF30AFF1000
00DFE006EF6000
ENDCHAR
STARTCHAR uni040D
ENCODING 1037
SWIDTH 705 0
DWIDTH 14 0
BBX 15 20 0 0
BITMAP
00000000DF100000
000000007F300000
000000002F600000
000000000B800000
0000000000000000
00016BEE0007FF90
005EBFFB001EFF60
07F65FF8009FFF20
4FA08FF503FFFE00
AF40BFF20BFFFB00
BF20EFE04FBFF800
5E23FFA0DC9FF500
0006FF76F3CFF100
0009FF5E90FFD000
000CFF9E13FFA000
001FFEF706FF7000
004FFFD00AFF4000
007FFF500DFF1000
00AFFB001FFC0000
00DFF3004FF90000
ENDCHAR
STARTCHAR uni040E
ENCODING 1038
SWIDTH 644 0
DWIDTH 13 0
BBX 15 19 0 0
BITMAP
00000005D7002A00
0000000BFA26D400
00000004DFFC4000
0000000001000000
00016BEF20004F10
005EADFF6000AA00
07F609FF9002F300
4FA005FFD008C000
AF4001FFF10E6000
BF2000CFF55E0000
5E30008FF8B80000
0000004FFDF20000
0000000EFFA00000
0000000BFF400000
00000007FD000000
00000003F6000000
00006C47D0000000
0000DFEF50000000
00007ED600000000
ENDCHAR
STARTCHAR uni040F
ENCODING 1039
SWIDTH 665 0
DWIDTH 13 0
BBX 14 22 0 -7
BITMAP
00016BEE002FFC
005ECFFB005FF8
07F65FF8008FF5
4FA08FF500BFF2
AF40BFF200EFE0
BF20EFE003FFB0
5E23FFA006FF80
0116FF7009FF40
0009FF400CFF10
000CFF101FFD00
001FFD003FFA00
004FF9007FF700
007FF600AFF300
00AFF977EFF100
00DFFFFFFFC000
00001730000000
00009F40000000
0000BFD1000000
00006FF7000000
00000BF8000000
000005E2000000
00000420000000
ENDCHAR
STARTCHAR uni0410
ENCODING 1040
SWIDTH 668 0
DWIDTH 13 0
BBX 14 17 0 -2
BITMAP
00000000018DFA
000000002DEFF9
00000002D98FF6
0000001DB0BFF2
0000009F20EFE0
000005F802FFB0
05BEFFFA56FF80
7FC5AF948EFF50
BF72FF200CFF10
3729FA000FFD00
001FF5003FFA00
007FE0006FF700
00CFA000AFF400
01FF7000DFF100
04FF3001FFC000
03FF2000000000
009E3000000000
ENDCHAR
STARTCHAR uni0411
ENCODING 1041
SWIDTH 638 0
DWIDTH 13 0
BBX 13 15 0 0
BITMAP
0017BDEFFFFF80
04EBBFFDEFFE30
2E90AFF3012000
9F30DFF0000000
CF01FFC0000000
CF04FF80000000
4B18FFCDEC4000
000BFF54BFF300
000EFE002FF900
002FFB000FFB00
005FF8001FFB00
008FF4004FF700
00CFF411BFF200
00EFD7FEFF6000
03FFA2CEC50000
ENDCHAR
STARTCHAR uni0412
ENCODING 1042
SWIDTH 641 0
DWIDTH 13 0
BBX 13 15 0 0
BITMAP
00016BDFEA3000
005ED7447EF300
07F939B707FA00
4FC08FF505FA00
AF50BFF10BF500
BF20EFD2AF7000
6F22FFFFFFA100
0116FF938FFA00
0009FF400DFF00
000CFF100AFF10
001FFC000BFF00
004FF9000EFB00
007FF6307FF500
00AFF6FEFFA000
00DFE1BFD80000
ENDCHAR
STARTCHAR uni0413
ENCODING 1043
SWIDTH 400 0
DWIDTH 8 0
BBX 13 15 0 0
BITMAP
0005ADEFFFFF90
03DD9FFEDFFE20
1ED15FF8012000
8F808FF5000000
BF50BFF2000000
AF50EFE0000000
3C53FFA0000000
0006FF70000000
0009FF40000000
000CFF10000000
001FFD00000000
004FFA00000000
007FF600000000
00AFF300000000
00DFF000000000
ENDCHAR
STARTCHAR uni0414
ENCODING 1044
SWIDTH 669 0
DWIDTH 13 0
BBX 14 15 -1 0
BITMAP
000017BDFEB500
0007EC7447EF90
00AF739B704FF4
06FA08FF600DFA
0BF40CFF300BFE
0AF21FFE000CFF
02924FFB000CFE
00008FF8000EFD
0000CFF5002FFA
0001FFF2005FF6
06EEFFD000AFF1
3F68FFA002FF90
7B08FF7009FE20
5C4EFF949FF400
08EEB46CEC4000
ENDCHAR
STARTCHAR uni0415
ENCODING 1045
SWIDTH 459 0
DWIDTH 9 0
BBX 10 15 0 0
BITMAP
00003AEEA1
0004FF74E9
000EF900BC
004FF402E9
005FF40261
001EFA0000
0009FF9000
02CFF70000
0CFF800000
6FFE100000
BFFB000000
CFFA000026
BFFE3016C1
4FFFFEFC10
05CEEB5000
ENDCHAR
STARTCHAR uni0416
ENCODING 1046
SWIDTH 777 0
DWIDTH 16 0
BBX 18 15 -1 0
BITMAP
0009ED30069B007EE3
002FFFC02FFB09FFF8
000AA7F16FF85F98C2
000001F49FF5CB0000
000000D6CFF5F30000
000000C6EFD8B00000
000000C8FFAD600000
0003BEFEFFEFFD4000
003EFC4AFF75EFD000
00AFF20CFF10BFE000
00EFB01FFD00EFB000
02FF804FF903FF7000
06FF507FF608FF3000
0AFF20BFF20BFF0000
5FE700EFE007FF4000
ENDCHAR
STARTCHAR uni0417
ENCODING 1047
SWIDTH 525 0
DWIDTH 11 0
BBX 11 15 -1 0
BITMAP
000029DED700
0003C64AFF70
000B1002FFC0
00140003FFC0
00000009FF70
0000018FFA00
0000BFFF7000
000034BFF800
0000001EFF30
0000000CFF60
0261000DFF60
1EF3001FFF20
2FD0008FFA00
0DF638FFB100
02AEFDB50000
ENDCHAR
STARTCHAR uni0418
ENCODING 1048
SWIDTH 705 0
DWIDTH 14 0
BBX 15 15 0 0
BITMAP
00016BEE0007FF90
005EBFFB001EFF60
07F65FF8009FFF20
4FA08FF503FFFE00
AF40BFF20BFFFB00
BF20EFE04FBFF800
5E23FFA0DC9FF500
0006FF76F3CFF100
0009FF5E90FFD000
000CFF9E13FFA000
001FFEF706FF7000
004FFFD00AFF4000
007FFF500DFF1000
00AFFB001FFC0000
00DFF3004FF90000
ENDCHAR
STARTCHAR uni0419
ENCODING 1049
SWIDTH 705 0
DWIDTH 14 0
BBX 15 19 0 0
BITMAP
00000008C4005700
0000000FF738D100
00000007EFFA2000
0000000001000000
00016BEE0007FF90
005EBFFB001EFF60
07F65FF8009FFF20
4FA08FF503FFFE00
AF40BFF20BFFFB00
BF20EFE04FBFF800
5E23FFA0DC9FF500
0006FF76F3CFF100
0009FF5E90FFD000
000CFF9E13FFA000
001FFEF706FF7000
004FFFD00AFF4000
007FFF500DFF1000
00AFFB001FFC0000
00DFF3004FF90000
ENDCHAR
STARTCHAR uni041A
ENCODING 1050
SWIDTH 635 0
DWIDTH 13 0
BBX 14 15 0 0
BITMAP
00017CEE007DE4
007ECFFB0AFFF9
0AF55FF88F77C3
6F908FF7F60000
BF30BFFB900000
AF20EFEE100000
1823FFFEEC4000
0006FF61DFD000
0009FF30AFF000
000CFE00CFD000
001FFC01FFA000
004FF905FF6000
007FF608FF3000
00AFF30AFF1000
00DFE006EF6000
ENDCHAR
STARTCHAR uni041B
ENCODING 1051
SWIDTH 549 0
DWIDTH 11 0
BBX 13 17 -1 -2
BITMAP
000000003AEE60
00000006EDFF50
0000006E3CFF10
000004F51FFD00
00002EA03FFA00
0000BF207FF700
0006FA00AFF400
001DF200DFF100
007FB001FFC000
01EF5004FF9000
07FE1008FF6000
0CFA000BFF3000
2FF5000EFE0000
6FF2002FFB0000
8FE0005FF80000
8FC00000000000
1BD00000000000
ENDCHAR
STARTCHAR uni041C
ENCODING 1052
SWIDTH 787 0
DWIDTH 16 0
BBX 15 15 1 0
BITMAP
00018CEF4001EFF0
006E9CFF3006FFD0
06F61FFF200CFFB0
2FB07FFF203FFF90
7F60CFFF10AFFF70
8F43FFFF01FFFF50
2C58FCFF07FDFF30
000DACFE0DBDFF00
004F5DFD4F5FFD00
00AE0DFDAD2FFB00
01E90EFEF74FF900
06F30FFFF16FF700
0BD00FFFA08FF500
2F701FFF40BFF300
7F202FFC00DFF100
ENDCHAR
STARTCHAR uni041D
ENCODING 1053
SWIDTH 665 0
DWIDTH 13 0
BBX 14 15 0 0
BITMAP
00017BEE002FFC
006DAFFB005FF8
08F45FF8008FF5
5F909FF500CFF2
AF40CFF100EFE0
BF20FFD225FFB0
4D33FFFFFFFF80
0006FF955BFF40
0009FF400CFF10
000DFF101FFD00
001FFC004FFA00
004FF9007FF700
007FF600AFF300
00AFF300DFF100
00DFE001FFC000
ENDCHAR
STARTCHAR uni041E
ENCODING 1054
SWIDTH 665 0
DWIDTH 13 0
BBX 14 15 0 0
BITMAP
000038CEFDA200
002AFA644AFE20
03ED34CE30DFA0
1EE24FF5009FE0
8F71EFC0008FF1
AF48FF50009FF1
5F3EFE1000BFF0
015FFA0000EFD0
008FF70002FF90
00BFF40008FF40
00CFF3000DFD00
00CFF2007FF500
00AFF503EF9000
004FFEAEFA0000
0005CEEB500000
ENDCHAR
STARTCHAR uni041F
ENCODING 1055
SWIDTH 688 0
DWIDTH 14 0
BBX 16 15 0 0
BITMAP
0005ADEEDA742247
02CFFFFFFFFFFFF8
1DFA7FFB79DFFFA1
6FB07FF6009FF400
AF40BFF300DFF100
BF20EFE001FFC000
7F22FFB004FF9000
0316FF8008FF5000
0009FF500BFF2000
000CFF100EFE0000
001FFD003FFA0000
004FFA006FF70000
007FF6009FF40000
00AFF300DFF10000
00DFE001FFC00000
ENDCHAR
STARTCHAR uni0420
ENCODING 1056
SWIDTH 573 0
DWIDTH 11 0
BBX 12 15 0 0
BITMAP
00017CEED810
006EB6449FD1
08F638A50AF8
5F909FF406FC
BF30CFF106FC
DF01FFD00AF9
8F04FF902FF2
0217FF60BF60
000BFF9DD500
000EFE530000
002FFB000000
005FF8000000
009FF5000000
00CFF1000000
01FFD0000000
ENDCHAR
STARTCHAR uni0421
ENCODING 1057
SWIDTH 497 0
DWIDTH 10 0
BBX 11 15 0 0
BITMAP
00003AEFD700
0006FFC46F60
004FFD100EA0
01DFF5004F90
06FFD0005810
0CFF70000000
1FFF30000000
5FFF00000000
7FFC00000000
9FFB00000000
9FFB00000000
8FFD00000430
5FFF70018B00
0CFFFEEFB100
019DFEB50000
ENDCHAR
STARTCHAR uni0422
ENCODING 1058
SWIDTH 481 0
DWIDTH 10 0
BBX 15 15 0 0
BITMAP
0016BDEEC8411640
03DC65FFFFFFFF20
1EC004FFECEFE700
8F5007FF90010000
BF100AFF50000000
DF000EFF20000000
9F002FFE00000000
05105FFA00000000
00008FF700000000
0000BFF400000000
0000EFF100000000
0002FFC000000000
0005FF9000000000
0008FF5000000000
000BFF2000000000
ENDCHAR
STARTCHAR uni0423
ENCODING 1059
SWIDTH 644 0
DWIDTH 13 0
BBX 15 15 0 0
BITMAP
00016BEF20004F10
005EADFF6000AA00
07F609FF9002F300
4FA005FFD008C000
AF4001FFF10E6000
BF2000CFF55E0000
5E30008FF8B80000
0000004FFDF20000
0000000EFFA00000
0000000BFF400000
00000007FD000000
00000003F6000000
00006C47D0000000
0000DFEF50000000
00007ED600000000
ENDCHAR
STARTCHAR uni0424
ENCODING 1060
SWIDTH 786 0
DWIDTH 16 0
BBX 16 16 0 0
BITMAP
00028CEFFDA00000
004FE844FFC00000
008F6004FF800000
002B4007FF500000
0000488EFFEB6000
004CC31FFE2AFC10
05FE104FFB00DFA0
1EF7007FF7009FF1
6FF400AFF4009FF1
9FF200DFF100BFE0
9FF301FFC002FF90
5FF805FF900BFE20
0CFF58FF64CFE400
019FFFFFFFE92000
00002EFE31000000
00002FFB00000000
ENDCHAR
STARTCHAR uni0425
ENCODING 1061
SWIDTH 620 0
DWIDTH 12 0
BBX 13 15 0 0
BITMAP
00017CEF102F30
007E9FFF40BA00
09F40CFF74F200
6F8009FFAC8000
CF2006FFFE1000
CF0003FFF60000
6F1000EFF40000
010000BFF70000
000000AFFA0000
000003FFFE0000
00000C9FFF2000
00005D1DFF5000
0000D50AFF8000
0007C007FFB000
001E3004FFE000
ENDCHAR
STARTCHAR uni0426
ENCODING 1062
SWIDTH 692 0
DWIDTH 14 0
BBX 15 19 0 -4
BITMAP
00016BDE002FFC00
006EBFFB005FF800
08F65FF8008FF500
5FA08FF500BFF200
AF40BFF200EFE000
BF20EFE003FFB000
5E23FFA006FF7000
0006FF7009FF4000
0009FF400CFF1000
000CFF101FFD0000
001FFD004FFA0000
004FFA007FF60000
007FF600AFF30000
00AFF840DFF00000
00DFFFFEFFC00000
0010139FFFC30210
00000003DFFFFF10
000000001AFFFA00
0000000000475000
ENDCHAR
STARTCHAR uni0427
ENCODING 1063
SWIDTH 695 0
DWIDTH 14 0
BBX 15 15 0 0
BITMAP
00016BEE0008FF60
004DDFFC000BFF20
05F85FF9000EFE00
3FB08FF5002FFB00
9F50BFF2005FF800
BF30DFF0008FF500
8F20DFE000BFF200
0620AFF415EFD000
00001AEEC9FFA000
0000000006FF7000
000000000AFF4000
000000000DFF1000
000000001FFC0000
000000004FF90000
000000007FF60000
ENDCHAR
STARTCHAR uni0428
ENCODING 1064
SWIDTH 906 0
DWIDTH 18 0
BBX 19 15 0 0
BITMAP
00016BEE00BFF304FF90
005ECFFB00EFE008FF60
07F65FF802FFB00BFF30
4FA08FF505FF800EFE00
AF40BFF208FF502FFB00
BF20EFE00CFF205FF800
5E23FFA00FFE009FF500
0116FF703FFA00CFF200
0009FF406FF700FFD000
000CFF109FF403FFA000
001FFD00DFF106FF7000
004FF901FFD00AFF4000
007FF604FF900DFF1000
00AFF97AFFB77FFD0000
00DFFFFFFFFFFFF90000
ENDCHAR
STARTCHAR uni0429
ENCODING 1065
SWIDTH 934 0
DWIDTH 19 0
BBX 19 19 0 -4
BITMAP
00017BEE00BFF304FF90
006EBFFB00EFE008FF60
07F55FF802FFB00BFF30
4FA08FF505FF800EFE00
AF40BFF208FF502FFB00
BF20EFE00CFF205FF800
5E33FFA00EFD008FF500
0006FF703FFA00CFF200
0009FF406FF700FFE000
000CFF109FF403FFB000
001FFD00DFF106FF7000
004FF901FFD009FF4000
007FF604FF900DFF1000
00AFF969FF601FFD0000
00DFFFFFFFA65FFA0000
0010136AEFFFFFF92020
0000000005AFFFFFFFE0
0000000000016CFFFF70
00000000000000267500
ENDCHAR
STARTCHAR uni042A
ENCODING 1066
SWIDTH 714 0
DWIDTH 14 0
BBX 14 15 0 0
BITMAP
00039DEFE60000
01A943CFF40000
0B9000EFF00000
5F4003FFC00000
AF2006FF800000
BF5009FF500000
4EA00CFFCEFC30
01200FFE45DFE1
00003FFA006FF6
00006FF7003FF8
00009FF4004FF7
0000CFF1008FF4
0001FFD302EFD0
0004FFAAEFFF40
0007FF74DEB300
ENDCHAR
STARTCHAR uni042B
ENCODING 1067
SWIDTH 909 0
DWIDTH 18 0
BBX 19 15 0 0
BITMAP
00017BEE00000003FFA0
006EBFFB00000007FF70
09F55FF80000000AFF30
5F908FF40000000DFF10
BF40BFF10000001FFC00
AF20EFD00000004FF900
3B33FFECED80008FF600
0006FF938FF800BFF300
0009FF300DFE00EFE000
000CFF000BFF12FFB000
001FFC000CFF05FF8000
004FF9001EFC08FF5000
007FF6308FF60CFF2000
00AFF5FEFFB00EFD0000
00DFE09ED8103FFA0000
ENDCHAR
STARTCHAR uni042C
ENCODING 1068
SWIDTH 640 0
DWIDTH 13 0
BBX 13 15 0 0
BITMAP
00017BEE000000
006EBFFB000000
09F55FF8000000
5F908FF4000000
BF40BFF1000000
AF20EFD0000000
3B33FFECED8000
0006FF938FF800
0009FF300DFE00
000CFF000BFF10
001FFC000CFF00
004FF9001EFC00
007FF6308FF600
00AFF5FEFFB000
00DFE09ED81000
ENDCHAR
STARTCHAR uni042D
ENCODING 1069
SWIDTH 544 0
DWIDTH 11 0
BBX 12 15 -1 0
BITMAP
00003ADFD910
0006945CFFD1
00380001FFF6
00500000BFF9
00000000AFFA
00000000AFFA
0000EFFFFFF8
00003333EFF6
00000002FFF2
00000007FFC0
0460000CFF60
1FE1004FFD00
3FA001DFE300
0DC01BFE4000
02ADFD920000
ENDCHAR
STARTCHAR uni042E
ENCODING 1070
SWIDTH 946 0
DWIDTH 19 0
BBX 19 15 0 0
BITMAP
00017BEE0006CFEC7000
006ECFFB0059447FFA00
08F65FF80029EA06FF40
5FA08FF500BFD101FF90
AF40BFF107FF6000EFA0
BF20EFD23EFE0000FFA0
4D33FFFFFFF90001FF90
0006FF95DFF40004FF70
0009FF40EFF10008FF30
000CFF12FFD0000DFE00
001FFC03FFC0004FF700
004FF903FFB000CFE100
007FF601FFE007FF4000
00AFF300AFFAAFF50000
00DFE00018DFD9200000
ENDCHAR
STARTCHAR uni042F
ENCODING 1071
SWIDTH 630 0
DWIDTH 13 0
BBX 15 15 -1 0
BITMAP
0000017BDFEC8200
00004EFA5347EE30
0002FE304BD84FB0
0009F8009FF51FC0
000BF500DFF11C40
0009F801FFD00000
0002DE55FFA00000
0004CFFFFF700000
003FFC5CFF400000
00AFE10EFF100000
00EFA02FFC000000
02FF705FF9000000
05FF308FF6000000
09FE00BFF2000000
5FE600EFE0000000
ENDCHAR
STARTCHAR uni0430
ENCODING 1072
SWIDTH 526 0
DWIDTH 11 0
BBX 13 10 -1 0
BITMAP
0003BEEAFF7000
004FFA4DFF4000
01EFD00CFF1000
08FF600FFD0000
0DFF103FF90000
2FFC007FF60000
3FFB00AFF30620
3FFC03FFF22C00
0DFFDEAFFEE400
03CEB32CEB4000
ENDCHAR
STARTCHAR uni0431
ENCODING 1073
SWIDTH 430 0
DWIDTH 9 0
BBX 13 15 -1 0
BITMAP
00000000001D10
00006EFFFFFC00
0000DFFFFFF700
00009FEDDC7000
00001CD1000000
000001C9000000
0004BEFF400000
007FF84F900000
04FFA00EB00000
0CFF400FA00000
2FFE003F800000
3FFB007F300000
2FFA00CB000000
0DFD49D1000000
02BEE910000000
ENDCHAR
STARTCHAR uni0432
ENCODING 1074
SWIDTH 449 0
DWIDTH 9 0
BBX 12 15 -1 0
BITMAP
000008ED5000
0000AFA7E000
0005FE13F100
000DF804F000
007FF308B000
00DFD00E5000
03FF905D0003
08FF5AFC46B8
0CFF2CFFE720
1FFE002FC000
3FFC001FB000
4FFB003F8000
2FFB007F2000
0BFF56E60000
01AEEB400000
ENDCHAR
STARTCHAR uni0433
ENCODING 1075
SWIDTH 375 0
DWIDTH 8 0
BBX 9 10 -1 0
BITMAP
002AEEA100
02C58FFA00
0B404FFC00
1701BFF900
004DFFD100
06FFFA1000
2FFF600040
6FFA000560
3FFD449700
06DFDA3000
ENDCHAR
STARTCHAR uni0434
ENCODING 1076
SWIDTH 507 0
DWIDTH 10 0
BBX 12 15 -1 -5
BITMAP
0003BEEAFF70
004FFA4DFF40
01EFD00CFF10
08FF501FFD00
0DFF104FF900
2FFC007FF600
3FFB00BFF308
3FFD04FFE068
0DFFEFFFC4C1
03CFC8FFEA10
00018EFF6000
002E9CFF2000
00990EFD0000
009A8FF60000
002CED600000
ENDCHAR
STARTCHAR uni0435
ENCODING 1077
SWIDTH 384 0
DWIDTH 8 0
BBX 10 10 -1 0
BITMAP
0003BEEA00
004FF97F40
01EFC04F40
08FF50BE10
0DFF39F500
2FFFFC4000
3FFC100021
3FFB000390
0DFF547A10
03BEEB5000
ENDCHAR
STARTCHAR uni0436
ENCODING 1078
SWIDTH 882 0
DWIDTH 18 0
BBX 20 10 -1 0
BITMAP
007DEB200DFC007DEB00
06B4BFD01FF908FC7F40
0A204FF25FF63FF24F20
00003FF38FF39FB00100
00004FFFFFFFFF700000
00007FD3EFB5FF500000
3910BF92FF83FF300043
AF02FF26FF42FF5002A0
9F3AF709FF10DFC46B10
2CFD700CFD002BED8100
ENDCHAR
STARTCHAR uni0437
ENCODING 1079
SWIDTH 498 0
DWIDTH 10 0
BBX 11 15 0 -5
BITMAP
0019DEC40000
01C64EFE2000
095009FF6000
1C0008FF7000
66000AFF4000
B2001EFC0000
7002BFE20150
00AFFD100770
0027FF702C10
0000DFE8C300
0005DFF60000
02CAEFF00000
0A71FFB00000
0C8AFF300000
04DFC5000000
ENDCHAR
STARTCHAR uni0438
ENCODING 1080
SWIDTH 505 0
DWIDTH 10 0
BBX 12 10 -1 0
BITMAP
00BFF20CFF10
00EFE01FFD00
03FFB04FFA00
06FF707FF600
09FF40AFF300
0CFF10DFF000
1FFD02FFC008
2FFC0AFFB087
1FFFFAEFFEC0
06EE906EE810
ENDCHAR
STARTCHAR uni0439
ENCODING 1081
SWIDTH 505 0
DWIDTH 10 0
BBX 12 14 -1 0
BITMAP
0003CA000B10
0007FE24C700
0002CFFD7000
000001100000
00BFF20CFF10
00EFE01FFD00
03FFB04FFA00
06FF707FF600
09FF40AFF300
0CFF10DFF000
1FFD02FFC008
2FFC0AFFB087
1FFFFAEFFEC0
06EE906EE810
ENDCHAR
STARTCHAR uni043A
ENCODING 1082
SWIDTH 501 0
DWIDTH 10 0
BBX 12 10 -1 0
BITMAP
00BFF203CE50
00EFE05CBF60
02FFB5D10200
06FFCFA71000
09FFFFFF9000
0CFF62FFC000
1FFD01FFA016
3FFA02FF9086
7FF601FFFDB0
AFF3006DEA10
ENDCHAR
STARTCHAR uni043B
ENCODING 1083
SWIDTH 558 0
DWIDTH 11 0
BBX 13 10 -1 0
BITMAP
0000007DFFF200
000005E5DFD000
00000C50FFA000
00002E03FF7000
00005B07FF4000
0000870AFF1000
4A20C40DFC0190
BF61E11FFC0870
9D2AA00EFFEC00
1BEC2005DEA100
ENDCHAR
STARTCHAR uni043C
ENCODING 1084
SWIDTH 827 0
DWIDTH 17 0
BBX 19 10 -1 0
BITMAP
0000006DF3000DFF7000
000005EFF4006FFF4000
00000D7FF500DFFF1000
00002E2FF606DEFD0000
00005A1FF60D8FF90000
0000870FF76D5FF60000
4B30C40EF8D68FF30720
BF61E10DFED0AFF33C00
9D29A00CFF609FFFF400
1BEB100BFE001BEC4000
ENDCHAR
STARTCHAR uni043D
ENCODING 1085
SWIDTH 507 0
DWIDTH 10 0
BBX 12 10 -1 0
BITMAP
00BFF209FF20
00EFE00CFE00
03FFA01FFB00
06FF704FF800
09FFFFFFF500
0CFF43CFF200
1FFD00DFD004
4FFA01FFB039
7FF700EFD4A1
AFF3005DEB20
ENDCHAR
STARTCHAR uni043E
ENCODING 1086
SWIDTH 439 0
DWIDTH 9 0
BBX 13 10 -1 0
BITMAP
0003AEE9100000
003EFA4F700000
01EFD12EA01910
07FF707FEAA300
0DFF202FA00000
2FFD003F700000
4FFB007F200000
3FFB00DB000000
0DFE4AD2000000
03BEE920000000
ENDCHAR
STARTCHAR uni043F
ENCODING 1087
SWIDTH 505 0
DWIDTH 10 0
BBX 12 10 -1 0
BITMAP
00BFF9DEA100
00EFF78FF600
03FFB04FF800
06FF606FF700
09FF309FF400
0CFF00CFF100
1FFC00FFD003
4FF902FFA039
7FF600EFD4B1
AFF3005DEB20
ENDCHAR
STARTCHAR uni0440
ENCODING 1088
SWIDTH 468 0
DWIDTH 9 0
BBX 11 16 -2 -5
BITMAP
000488300000
000BFF9DEB10
000EFF76FF90
002FFA00EFC0
005FF700EFC0
009FF401FFB0
00CFF104FF80
00FFD009FF40
03FFA04FFC00
07FFECFFE300
0AFFAEEB3000
0DFE00000000
1FFB00000000
5FF800000000
8FF500000000
884000000000
ENDCHAR
STARTCHAR uni0441
ENCODING 1089
SWIDTH 384 0
DWIDTH 8 0
BBX 10 10 -1 0
BITMAP
0003BEE900
004FFA7F40
01EFD04F40
07FF702600
0DFF200000
2FFD000000
3FFB000011
3FFB000290
0DFE547A10
03BEEB5000
ENDCHAR
STARTCHAR uni0442
ENCODING 1090
SWIDTH 752 0
DWIDTH 15 0
BBX 17 10 -1 0
BITMAP
00BFF9DFC38EEA0000
00EFF79FFF69FF5000
03FFB05FFA05FF7000
06FF608FF507FF6000
09FF30BFF20AFF3000
0CFF00EFE00DFF0000
1FFC02FFB01FFC0030
4FF905FF803FF90480
7FF608FF501FFC4B10
AFF30BFF2006DEA200
ENDCHAR
STARTCHAR uni0443
ENCODING 1091
SWIDTH 486 0
DWIDTH 10 0
BBX 12 15 -1 -5
BITMAP
00BFF20CFF10
00EFE01FFD00
03FFB04FFA00
06FF707FF600
09FF40AFF300
0CFF10DFF000
1FFD02FFC044
2FFC0AFF80C2
1FFFFFFF6970
06EE9CFFD600
0004BFFE0000
007C6FFB0000
00F17FF70000
01FAEFE10000
006EEA200000
ENDCHAR
STARTCHAR uni0444
ENCODING 1092
SWIDTH 738 0
DWIDTH 15 0
BBX 15 19 -1 -5
BITMAP
0000000049B20000
00000000BFE00000
00000000EFB00000
00000002FF700000
0003BEEAFF9CEC20
005FFA4DFF85FFA0
01EFC00DFC00CFD0
08FF501FF800CFE0
0EFE004FF500EFD0
2FFC008FF203FFA0
4FFA00BFE009FF60
3FFD05FFB05FFE10
0EFFEFFFFEFFF400
03CFC8FFAEEB3000
000008FF10000000
00000CFD00000000
00000FFA00000000
00003FF600000000
0000585100000000
ENDCHAR
STARTCHAR uni0445
ENCODING 1093
SWIDTH 522 0
DWIDTH 10 0
BBX 12 11 0 0
BITMAP
00000004E900
002BEC25FE00
01B5FFA05D00
0830CFD1D700
1A00AFFAB000
66008FFC1000
A2007FF40000
A003EFF60021
003E7FF800B1
02E60CFD4940
2D7002CEB300
ENDCHAR
STARTCHAR uni0446
ENCODING 1094
SWIDTH 535 0
DWIDTH 11 0
BBX 11 15 -1 -5
BITMAP
00BFF20CFF10
00EFE01FFD00
03FFB04FFA00
06FF707FF600
09FF40AFF300
0CFF10DFF000
1FFD02FFC000
2FFC0AFFB000
1FFFFAEFFE60
06EE906EDC50
000000000D20
000069AACC00
0007FFFFF400
000EFFFD6000
003600000000
ENDCHAR
STARTCHAR uni0447
ENCODING 1095
SWIDTH 505 0
DWIDTH 10 0
BBX 11 10 0 0
BITMAP
0BFF20CFF100
0EFE01FFD000
3FFB04FFA000
6FF707FF6000
7FF72DFF3000
5FFFFFFF0000
0AED7FFC0070
00003FFB0870
00001FFFEC00
000007EE8100
ENDCHAR
STARTCHAR uni0448
ENCODING 1096
SWIDTH 752 0
DWIDTH 15 0
BBX 17 10 -1 0
BITMAP
00BFF20CFF10DFF100
00EFE01FFD01FFC000
03FFB04FFA05FF9000
06FF707FF608FF6000
09FF40AFF30BFF2000
0CFF10DFF00EFE0000
1FFD02FFC03FFB0170
2FFC0AFFB0BFFA0960
1FFFFAEFFF9FFFEB00
06EE906EE807ED8100
ENDCHAR
STARTCHAR uni0449
ENCODING 1097
SWIDTH 782 0
DWIDTH 16 0
BBX 16 15 -1 -5
BITMAP
00BFF20CFF10DFF1
00EFE01FFD01FFC0
03FFB04FFA05FF90
06FF707FF608FF60
09FF40AFF30BFF20
0CFF10DFF00EFE00
1FFD02FFC03FFB00
2FFC0AFFB0BFFA00
1FFFFAEFFF9FFFE5
06EE906EE807ECC4
00000000000001E1
00000000179AADB0
00000000CFFFFF30
00000004FFFFD500
0000000870000000
ENDCHAR
STARTCHAR uni044A
ENCODING 1098
SWIDTH 448 0
DWIDTH 9 0
BBX 10 10 -1 0
BITMAP
03CFFF7000
0CE4BC0000
0BD7F40000
004FECFD50
02EF93BFE0
09FF107FF2
0EFD009FF0
1FFB01EF90
0DFE4BFB10
03BEEC6000
ENDCHAR
STARTCHAR uni044B
ENCODING 1099
SWIDTH 655 0
DWIDTH 13 0
BBX 15 10 -1 0
BITMAP
00BFF000002BF100
00EFC00007EFC000
03FF9004CCFF9000
06FF6EEE34FF6000
09FF228F17FF3000
0CFE007F3AFE0000
0FFB00AF1EFB0190
1FF904FA1FFB0960
0DFEBFD20FFFFC00
03CED92005DEA100
ENDCHAR
STARTCHAR uni044C
ENCODING 1100
SWIDTH 448 0
DWIDTH 9 0
BBX 10 10 -1 0
BITMAP
00BFF20000
00EFE00000
02FFB12000
06FFEFFE60
09FF95DFE0
0CFF107FF2
0FFD00AFE0
1FFC03FF80
0DFFBEFB00
03BEEC6000
ENDCHAR
STARTCHAR uni044D
ENCODING 1101
SWIDTH 413 0
DWIDTH 8 0
BBX 9 10 -1 0
BITMAP
004BEEB300
04C45EFE10
082009FF50
000008FF60
001FFFFF40
00033DFE10
78002FF900
FA009FE200
EC16FE3000
4CFEA20000
ENDCHAR
STARTCHAR uni044E
ENCODING 1102
SWIDTH 675 0
DWIDTH 14 0
BBX 17 10 -1 0
BITMAP
00BFF2005CEE700000
00EFE007FF78F30000
03FFB04FFA06F61590
06FF80CFF30BFEC710
09FFFFFFD005F60000
0CFF38FF9008F30000
1FFD08FF700CD00000
4FFA07FF703F600000
7FF703FFB4DA000000
AFF3005CED70000000
ENDCHAR
STARTCHAR uni044F
ENCODING 1103
SWIDTH 527 0
DWIDTH 11 0
BBX 13 10 -1 0
BITMAP
00018CEFFF7000
001DFC58FF4000
008FF109FF1000
00AFD00DFD0000
008FF41FF90000
001CFFFFF60000
2610E88FF30420
AF64F29FF32D00
AE5CB09FFFF500
2CFC202BED5000
ENDCHAR
STARTCHAR uni0450
ENCODING 1104
SWIDTH 384 0
DWIDTH 8 0
BBX 10 15 -1 0
BITMAP
0000CF3000
00006F5000
00001E8000
000009A000
0000000000
0003BEEA00
004FF97F40
01EFC04F40
08FF50BE10
0DFF39F500
2FFFFC4000
3FFC100021
3FFB000390
0DFF547A10
03BEEB5000
ENDCHAR
STARTCHAR uni0451
ENCODING 1105
SWIDTH 384 0
DWIDTH 8 0
BBX 10 14 -1 0
BITMAP
0000200010
0006FA0CF4
0005E90AE3
0000000000
0003BEEA00
004FF97F40
01EFC04F40
08FF50BE10
0DFF39F500
2FFFFC4000
3FFC100021
3FFB000390
0DFF547A10
03BEEB5000
ENDCHAR
STARTCHAR uni0452
ENCODING 1106
SWIDTH 491 0
DWIDTH 10 0
BBX 12 19 -1 -5
BITMAP
0007AC000000
001FFC000000
005FF9000000
09FFFFFD0000
02CFF5320000
00EFE0000000
02FFDAEE8000
05FFD4BFF300
09FF508FF400
0CFF10BFF100
0FFD00EFC024
3FFA03FF90A3
7FF706FF5790
AFF309FFD700
0003AFFD0000
005E7FF90000
00D44FF50000
00E6BFD00000
005DEB200000
ENDCHAR
STARTCHAR uni0453
ENCODING 1107
SWIDTH 375 0
DWIDTH 8 0
BBX 9 15 -1 0
BITMAP
0000001770
0000007F50
000001E800
000008B000
0000000000
002AEEA100
02C58FFA00
0B404FFC00
1701BFF900
004DFFD100
06FFFA1000
2FFF600040
6FFA000560
3FFD449700
06DFDA3000
ENDCHAR
STARTCHAR uni0454
ENCODING 1108
SWIDTH 384 0
DWIDTH 8 0
BBX 10 10 -1 0
BITMAP
0003BEEA00
004FF97F40
01EFC05F30
07FF500200
0DFFFF6000
2FFD331000
3FFB000031
3FFB000490
0DFF548900
03BEEB5000
ENDCHAR
STARTCHAR uni0455
ENCODING 1109
SWIDTH 382 0
DWIDTH 8 0
BBX 10 11 -1 0
BITMAP
0000245000
0005FFD000
000AFFE000
001CFFF000
0077DFF100
01D1CFF200
0880BFF300
5FB0AFF452
9A40BFFC60
6C47FFC300
08EFD70000
ENDCHAR
STARTCHAR uni0456
ENCODING 1110
SWIDTH 267 0
DWIDTH 5 0
BBX 8 14 -1 0
BITMAP
000AE700
003FFD00
000BE700
00000000
00BFF200
00EFE000
03FFB000
06FF7000
09FF4000
0CFF1000
1FFD0071
2FFC05A0
1FFFEE20
06EE9200
ENDCHAR
STARTCHAR uni0457
ENCODING 1111
SWIDTH 267 0
DWIDTH 5 0
BBX 8 14 -1 0
BITMAP
06E70BD2
08F90DF3
00200110
00000000
00BFF200
00EFE000
03FFB000
06FF7000
09FF4000
0CFF1000
1FFD0071
2FFC05A0
1FFFEE20
06EE9200
ENDCHAR
STARTCHAR uni0458
ENCODING 1112
SWIDTH 240 0
DWIDTH 5 0
BBX 10 19 -4 -5
BITMAP
000001CE50
000005FFB0
000001CE50
0000000000
00000BFF20
00000EFE00
00002FFB00
00006FF800
00009FF500
0000CFF200
0000FFE023
0003FFB084
0007FF83A0
000AFFB910
029FFF2000
5EAFFC0000
E54FF80000
E6BFE20000
5DEB300000
ENDCHAR
STARTCHAR uni0459
ENCODING 1113
SWIDTH 745 0
DWIDTH 15 0
BBX 16 10 -1 0
BITMAP
0000007DFFF20000
000006E6DFD00000
00000D71FFA12000
00003F24FFEFFE50
00007D07FFB7EFE0
0000A90BFF109FF1
2610E60DFD009FE0
AF73F20FFB01EF70
AF6CB00BFD4BFA00
2CEB2002BEEC6000
ENDCHAR
STARTCHAR uni045A
ENCODING 1114
SWIDTH 694 0
DWIDTH 14 0
BBX 15 10 -1 0
BITMAP
00BFF209FF100000
00EFE00CFD000000
03FFA01FFA120000
06FF704FFEFFE400
09FFFFFFF96EFD00
0CFF43CFF109FF10
1FFD00EFD00AFD00
4FFA00FFA02EF700
7FF700CFD4BFA000
AFF3002BEEC60000
ENDCHAR
STARTCHAR uni045B
ENCODING 1115
SWIDTH 505 0
DWIDTH 10 0
BBX 12 14 -1 0
BITMAP
0007AC000000
001FFC000000
005FF9000000
09FFFFFD0000
02CFF5320000
00EFE0000000
02FFDAEE8000
05FFD4CFF300
09FF508FF400
0CFF10BFF200
0FFD00EFD002
3FFA02FFA03A
7FF701FFC4B2
AFF3005DEB30
ENDCHAR
STARTCHAR uni045C
ENCODING 1116
SWIDTH 501 0
DWIDTH 10 0
BBX 12 15 -1 0
BITMAP
000000028600
00000009F300
0000002F6000
000000A90000
000000000000
00BFF203CE50
00EFE05CBF60
02FFB5D10200
06FFCFA71000
09FFFFFF9000
0CFF62FFC000
1FFD01FFA016
3FFA02FF9086
7FF601FFFDB0
AFF3006DEA10
ENDCHAR
STARTCHAR uni045D
ENCODING 1117
SWIDTH 505 0
DWIDTH 10 0
BBX 12 15 -1 0
BITMAP
00005FA00000
00000EC00000
000008E00000
000002F10000
000000000000
00BFF20CFF10
00EFE01FFD00
03FFB04FFA00
06FF707FF600
09FF40AFF300
0CFF10DFF000
1FFD02FFC008
2FFC0AFFB087
1FFFFAEFFEC0
06EE906EE810
ENDCHAR
STARTCHAR uni045E
ENCODING 1118
SWIDTH 486 0
DWIDTH 10 0
BBX 12 19 -1 -5
BITMAP
0003CA000B10
0007FD24C700
0002CFFD6000
000001100000
00BFF20CFF10
00EFE01FFD00
03FFB04FFA00
06FF707FF600
09FF40AFF300
0CFF10DFF000
1FFD02FFC044
2FFC0AFF80C2
1FFFFFFF6970
06EE9CFFD600
0004BFFE0000
007C6FFB0000
00F17FF70000
01FAEFE10000
006EEA200000
ENDCHAR
STARTCHAR uni045F
ENCODING 1119
SWIDTH 505 0
DWIDTH 10 0
BBX 12 15 -1 -5
BITMAP
00BFF20CFF10
00EFE01FFD00
03FFB04FFA00
06FF707FF600
09FF40AFF300
0CFF10DFF000
1FFD02FFC008
2FFC0AFFB087
1FFFFAEFFEC0
06EE916EE810
00003B000000
0000CF500000
0000DFB00000
00005F700000
000018000000
ENDCHAR
STARTCHAR uni0462
ENCODING 1122
SWIDTH 659 0
DWIDTH 13 0
BBX 13 15 0 0
BITMAP
00002FFB000000
00005FF8000000
00007FF6111100
07CEFFFFFFFF50
8FA4FFEBDFEA00
DF13FF90000000
8F16FFDDEC5000
010AFF64BFF400
000DFE002FFA00
001FFC000EFC00
004FF8000FFC00
007FF5004FF800
00BFF510BFF200
00EFE6FEFF7000
02FFB1BED60000
ENDCHAR
STARTCHAR uni0463
ENCODING 1123
SWIDTH 692 0
DWIDTH 14 0
BBX 14 10 -1 0
BITMAP
00BFF9DEB10000
00EFF78FF70000
03FFB04FF80000
06FF606FFDEFC3
09FF309FF74DFC
0CFF00CFE009FF
1FFC00FFC00BFD
4FF901FFA02FF7
7FF600CFD4CFA0
AFF3003BEEB500
ENDCHAR
STARTCHAR uni046A
ENCODING 1130
SWIDTH 834 0
DWIDTH 17 0
BBX 16 15 0 0
BITMAP
000028CEFFFFFFF9
0019FAFFF73337C1
01CE40AFFB002D30
09F6004FFF10C600
0DF1000DFF78A000
0BE00007FFED1000
01517DFFFFFFFEA0
0007FF61FFD07FF6
001EFA04FFA03FF7
004FF507FF705FF6
007FF209FF408FF3
00AFF00CFF10CFE0
00DFC00FFD01FFA0
03FF903FFA03FF90
1BFC206FF701CFD1
ENDCHAR
STARTCHAR uni046B
ENCODING 1131
SWIDTH 750 0
DWIDTH 15 0
BBX 12 10 1 0
BITMAP
017CEFFFFFF6
1DF8DFF536A0
6F606FF70A10
4E501EFC8300
008DEFFFFFD6
06FF49FF1AFF
0BFB0CFD0AFE
0EF80FFA0EFB
3FF53FF72FF7
AFB16FF42EF8
ENDCHAR
STARTCHAR uni0472
ENCODING 1138
SWIDTH 665 0
DWIDTH 13 0
BBX 14 15 0 0
BITMAP
000038CEFDA200
003BFA544AFE20
04EC24CE30CFA0
2ED14FF5009FE0
8F71EFC0009FF1
AF38FF6000AFF1
4E3EFF1001CFF0
004FFCBEFDFFD0
008FFA3223FF90
00BFF40007FF40
00CFF3000DFD00
00CFF2005FF500
00AFF401DF9000
004FFA4CFA0000
0005CEEB500000
ENDCHAR
STARTCHAR uni0473
ENCODING 1139
SWIDTH 439 0
DWIDTH 9 0
BBX 13 10 -1 0
BITMAP
0003AEEA100000
003EFA5F700000
01EFD02EA03A10
07FF606FFC9200
0DFF672FA00000
2FFEBFFF700000
4FFB019F200000
3FFC03FA000000
0DFFCFD2000000
03BEE910000000
ENDCHAR
STARTCHAR uni0474
ENCODING 1140
SWIDTH 668 0
DWIDTH 13 0
BBX 15 15 0 0
BITMAP
00017CEE0002BF70
007E9FFE000CFA00
09F40FFF005FE100
6F800FFF00BF7000
CF200FFF01FE1000
CF000EFF06F80000
6F100EFF19F20000
01000EFF1DA00000
00000DFF2F500000
00000DFF6E000000
00000CFF99000000
00000CFFC4000000
00000CFFE0000000
00000BFF90000000
00000BFF50000000
ENDCHAR
STARTCHAR uni0475
ENCODING 1141
SWIDTH 414 0
DWIDTH 8 0
BBX 9 10 -1 0
BITMAP
00BFF24E90
00EFE06FE0
03FFB004E0
06FF7006C0
09FF400A80
0CFF101F40
1FFD009D00
2FFC06F400
1FFFEF8000
05DFC60000
ENDCHAR
STARTCHAR uni0490
ENCODING 1168
SWIDTH 431 0
DWIDTH 9 0
BBX 13 18 0 0
BITMAP
00000000000010
00000000000390
00000000001BD0
0016ADEFFFFFB0
03DCBFFDEFFD20
1EB08FF5012000
7F50BFF2000000
AF20EFE0000000
BF22FFA0000000
4D36FF70000000
0009FF40000000
000CFF10000000
000FFD00000000
003FFA00000000
007FF700000000
00AFF300000000
00DFF000000000
01FFC000000000
ENDCHAR
STARTCHAR uni0491
ENCODING 1169
SWIDTH 342 0
DWIDTH 7 0
BBX 9 12 -1 0
BITMAP
0000001620
0000005F80
00BFFFFD20
00EFD33000
03FFA00000
06FF700000
09FF400000
0CFF100000
1FFD000000
4FFA000000
7FF6000000
AFF3000000
ENDCHAR
STARTCHAR uni0492
ENCODING 1170
SWIDTH 400 0
DWIDTH 8 0
BBX 13 15 0 0
BITMAP
0005ADEFFFFF90
03DD9FFEDFFE20
1ED15FF8012000
7F808FF5000000
BF50BFF2000000
AF50EFE0000000
4E63FFB0000000
0006FF80000000
03FFFFFF600000
000CFF10000000
001FFD00000000
004FFA00000000
007FF700000000
00AFF300000000
00DFF000000000
ENDCHAR
STARTCHAR uni0493
ENCODING 1171
SWIDTH 375 0
DWIDTH 8 0
BBX 9 10 -1 0
BITMAP
003AEEB200
03C49FFB00
0C204FFB00
1302DFF400
5FFFFFFF10
19FFD43300
2FFE100070
6FFA000750
3FFE549500
06DFDA2000
ENDCHAR
STARTCHAR uni0494
ENCODING 1172
SWIDTH 665 0
DWIDTH 13 0
BBX 13 16 0 -1
BITMAP
0005ADEFFFFF90
02CD9FFEDFFE20
1DE15FF8012000
7F808FF5000000
AF50BFF2000000
BF50EFE0100000
5F53FFEDFFA100
0126FFA57FF900
0009FF4009FF10
000CFF1006FF30
001FFD0006FF40
004FFA0008FF20
007FF7000DFD00
00AFF4319FF500
00DFF4FFFF9000
0000009DB50000
ENDCHAR
STARTCHAR uni0495
ENCODING 1173
SWIDTH 486 0
DWIDTH 10 0
BBX 12 15 -1 -5
BITMAP
009EFFFFFC00
00EFECEFE500
02FFA0010000
05FF77A81000
09FFEFFF9000
0CFF33FFC000
0FFD01FFB044
3FFA04FF70C1
7FF607FF4960
AFF30BFFC500
0004CFFB0000
006E7FF80000
00E35FF30000
01F5CFC00000
007EEA100000
ENDCHAR
STARTCHAR uni0496
ENCODING 1174
SWIDTH 777 0
DWIDTH 16 0
BBX 18 21 -1 -6
BITMAP
0009ED30069B007EE3
002FFFC02FFB09FFF8
000AA7F16FF85F98C2
000001F49FF5CB0000
000000D6CFF5F30000
000000C6EFD8B00000
000000C8FFAD600000
0003BEFEFFEFFD4000
003EFC4AFF75EFD000
00AFF20CFF10BFE000
00EFB01FFD00EFB000
02FF804FF903FF7000
06FF507FF608FF3000
0AFF20BFF20BFF0000
5FE700EFE007FF4000
000000000009E41000
00000000001FF30000
00000000000DFD1000
000000000005FF4000
000000000000BE2000
000000000000940000
ENDCHAR
STARTCHAR uni0497
ENCODING 1175
SWIDTH 882 0
DWIDTH 18 0
BBX 20 15 -1 -5
BITMAP
007DEB200DFC007DEB00
06B4BFD01FF908FC7F40
0A204FF25FF63FF24F20
00003FF38FF39FB00100
00004FFFFFFFFF700000
00007FD3EFB5FF400000
3A10BF92FF83FF300053
AE02FF26FF42FF5003A0
9F2AF709FF10DFD79B10
2CFD700CFD003CFD7000
00000000000002D20000
00000000000009FC0000
00000000000008FF1000
00000000000001E90000
00000000000000600000
ENDCHAR
STARTCHAR uni0498
ENCODING 1176
SWIDTH 525 0
DWIDTH 11 0
BBX 11 21 -1 -6
BITMAP
000029DED700
0003C64AFF70
000B1002FFC0
00140003FFC0
00000009FF70
0000018FFA00
0000BFFF7000
000034BFF800
0000001EFF30
0000000CFF60
0261000DFF60
1EF3001FFF20
2FD0008FFA00
0DF638FFB100
02AEFFB50000
0002E9000000
0005FE200000
0002FFB00000
00009FE00000
00001F900000
000019000000
ENDCHAR
STARTCHAR uni0499
ENCODING 1177
SWIDTH 498 0
DWIDTH 10 0
BBX 11 20 0 -10
BITMAP
0019DEC40000
01C64EFE2000
095009FF6000
1C0008FF7000
66000AFF4000
B2001EFC0000
7002BFE20150
00AFFD100760
0027FF703C10
0000DFE9B200
0016EFF50000
02C8EFF00000
0B53FFB00000
0CBDFF400000
04DFD5000000
007800000000
03FE20000000
03FF60000000
00AE20000000
005300000000
ENDCHAR
STARTCHAR uni049A
ENCODING 1178
SWIDTH 635 0
DWIDTH 13 0
BBX 14 21 0 -6
BITMAP
00006BEE006DE4
004DCFFC07FFF9
05F85FF94F97C3
2EB08FF6DA0000
9F50BFF9E10000
BF30EFFD600000
9F23FFFE100000
1826FFFEEC4000
0009FF61DFE000
000CFF20BFE000
001FFE00DFC000
004FFA02FF8000
007FF706FF4000
00AFF30AFF1000
00DFF009FF5000
00000004F71000
00000009FB0000
00000007FF6000
00000001DFA000
000000006F6000
00000000580000
ENDCHAR
STARTCHAR uni049B
ENCODING 1179
SWIDTH 501 0
DWIDTH 10 0
BBX 12 15 -1 -5
BITMAP
00BFF203CE50
00EFE05CBF60
02FFB5D10200
06FFCFA71000
09FFFFFF9000
0CFF62FFC000
1FFD01FFA017
3FFA02FFA096
7FF601FFFEC0
AFF3007EEA10
0000000B5000
0000006FE100
0000005FF400
0000000BC000
000000051000
ENDCHAR
STARTCHAR uni049C
ENCODING 1180
SWIDTH 721 0
DWIDTH 14 0
BBX 16 15 0 0
BITMAP
00017BEE00019EC1
006ECFFB001CFFF4
09F65FF800BE4AB1
5F908FF506E30000
BF40BFF57D500000
AF20EFE8AB000000
3B23FFFFFFE50000
0006FF9D6FFD0000
0009FF5A0CFE0000
000CFF110DFC0000
001FFC001FF90000
004FF9005FF50000
007FF6009FF20000
00AFF300BFF00000
00DFE0007EF40000
ENDCHAR
STARTCHAR uni049D
ENCODING 1181
SWIDTH 551 0
DWIDTH 11 0
BBX 13 10 -1 0
BITMAP
00BFF2003BE700
00EFE005DAFA00
02FFBD6A102000
06FF9FC8710000
09FF9FFFF90000
0CFFD82FFC0000
1FFFE40FFA0040
3FFAE12FFA1970
7FF7001FFFFC10
AFF40006EEA200
ENDCHAR
STARTCHAR uni04A0
ENCODING 1184
SWIDTH 691 0
DWIDTH 14 0
BBX 15 15 0 0
BITMAP
0017BDEFE106DE50
04EC65FFD08EDFA0
2EB004FFA6E24C40
9F4007FF8E400000
CF100BFFB9000000
CF000EFFE2000000
4B102FFFFFD60000
00005FFA4DFF1000
00008FF509FF2000
0000BFF20AFF0000
0000EFE00DFC0000
0002FFB02FF80000
0005FF806FF50000
0008FF508FF30000
000CFF204EF70000
ENDCHAR
STARTCHAR uni04A1
ENCODING 1185
SWIDTH 676 0
DWIDTH 14 0
BBX 16 10 -1 0
BITMAP
0029CEFE8008EB00
06FD58FF70AEFF10
0EF209FF49C2B900
2FE00DFF8D200000
0CE01FFFFFFD1000
00304FFD5BFF4000
00008FF608FF3052
0000BFF20AFF22C0
0000EFE009FFFF40
0002FFB002BED500
ENDCHAR
STARTCHAR uni04A2
ENCODING 1186
SWIDTH 665 0
DWIDTH 13 0
BBX 15 18 0 -3
BITMAP
00017BEE002FFC00
006EBFFB005FF800
08F55FF8008FF500
5F908FF500CFF200
AF40BFF100EFD000
BF20EFD225FFA000
4D33FFFFFFFF7000
0006FF955BFF4000
0009FF400CFF1000
000CFF101FFC0000
001FFC004FF90000
004FF9007FF50000
007FF600AFF20000
00AFF300DFE00000
00DFE001FFF91000
0000000006FFFD20
0000000000CFFE00
00000000003DD400
ENDCHAR
STARTCHAR uni04A3
ENCODING 1187
SWIDTH 507 0
DWIDTH 10 0
BBX 12 15 -1 -5
BITMAP
00BFF209FF10
00EFE00CFD00
03FFA01FFA00
06FF704FF700
09FFFFFFF400
0CFF43CFF100
1FFD00DFC007
4FFA01FFB078
7FF700EFFED1
AFF3006EFB20
000000097000
0000004FE200
0000004FF500
0000000AD100
000000042000
ENDCHAR
STARTCHAR uni04A4
ENCODING 1188
SWIDTH 689 0
DWIDTH 14 0
BBX 19 15 0 0
BITMAP
00017BEE002DEFFFFF60
006D8FFB005FFDDFFD10
08E36FF8008FF5012000
5F809FF400CFF1000000
AF30CFF100FFD0000000
BF20FFD225FFA0000000
4D33FFFFFFFF70000000
0006FF955BFF40000000
000AFF400CFF10000000
000DFF101FFD00000000
001FFC004FFA00000000
004FF9007FF600000000
007FF600AFF300000000
00AFF300DFF000000000
00DFE001FFC000000000
ENDCHAR
STARTCHAR uni04A5
ENCODING 1189
SWIDTH 681 0
DWIDTH 14 0
BBX 15 10 -1 0
BITMAP
00BFF208EFFFFFE0
00EFE00CFEBEFF70
03FFA01FF9001100
06FF704FF6000000
09FFFFFFF3000000
0CFF43CFF0000000
1FFD00DFC0080000
4FFA01FFB0870000
7FF700EFFEC10000
AFF3005DEA200000
ENDCHAR
STARTCHAR uni04AA
ENCODING 1194
SWIDTH 497 0
DWIDTH 10 0
BBX 11 21 0 -6
BITMAP
00003AEFD600
0006FFC46F60
003FFD100EA0
00DFF5004F90
06FFD0005920
0CFF70000000
1FFF30000000
5FFF00000000
7FFC00000000
9FFB00000000
9FFB00000000
8FFD00000430
5FFF60017C00
0DFFFEDFC200
01AEFFC60000
0005F6000000
0009FD100000
0005FF900000
0000BFB00000
00003F500000
000045000000
ENDCHAR
STARTCHAR uni04AB
ENCODING 1195
SWIDTH 384 0
DWIDTH 8 0
BBX 10 15 -1 -5
BITMAP
0003BEEA00
003FFA7F40
01EFD04F30
07FF601400
0DFF100000
2FFD000000
3FFB000041
3FFC000790
0EFFB9DA00
03CEFC5000
000B600000
005FE10000
004FF50000
000BD10000
0005100000
ENDCHAR
STARTCHAR uni04AE
ENCODING 1198
SWIDTH 620 0
DWIDTH 12 0
BBX 14 15 0 0
BITMAP
00017CEF10008B
007E9FFF4001E4
09F40BFF8006D0
6F8007FFC00C60
CF2004FFF13E10
CF0000EFF49800
6F1000BFF9E200
0100007FFFA000
0000003FFF3000
0000004FFE0000
0000007FFB0000
000000AFF80000
000000EFF40000
000002FFF10000
000005FFD00000
ENDCHAR
STARTCHAR uni04AF
ENCODING 1199
SWIDTH 480 0
DWIDTH 10 0
BBX 9 15 1 -5
BITMAP
DFF004EA00
CFF105FF10
BFF2001E00
9FF4003B00
8FF5009500
6FF602D000
5FF80A5000
4FF95B0000
2FFCD20000
1FFF500000
1FFC000000
4FF9000000
7FF6000000
BFF3000000
DB70000000
ENDCHAR
STARTCHAR uni04B0
ENCODING 1200
SWIDTH 620 0
DWIDTH 12 0
BBX 14 15 0 0
BITMAP
00017CEF10008B
007E9FFF4001E4
09F40BFF8006D0
6F8007FFC00C60
CF2004FFF13E10
CF0000EFF49800
6F1000BFF9E200
0100007FFFA000
0000004FFF3000
00000EFFFFF900
000003AFFE3100
000000AFF80000
000000EFF40000
000002FFF10000
000005FFD00000
ENDCHAR
STARTCHAR uni04B1
ENCODING 1201
SWIDTH 480 0
DWIDTH 10 0
BBX 10 15 0 -5
BITMAP
0DFF004EA0
0CFF105FF1
0BFF2001E0
09FF4003B0
08FF500950
06FF602D00
05FF80A500
04FF95B000
02FFCD2000
CFFFFFC000
34FFF32000
04FF900000
07FF600000
0BFF300000
0DB7000000
ENDCHAR
STARTCHAR uni04B6
ENCODING 1206
SWIDTH 695 0
DWIDTH 14 0
BBX 15 18 0 -3
BITMAP
00016BEE0008FF60
004DDFFC000BFF20
05F85FF9000EFE00
3FB08FF5002FFB00
9F50BFF2005FF800
BF30DFF0008FF400
8F20DFE000BFF100
0620AFF415EFD000
00001AEEDBFFA000
0000000006FF7000
0000000009FF3000
000000000DFF0000
000000001FFC0000
000000004FF90000
000000008FFB2000
0000000011CFFA80
00000000003FFF80
000000000008EB10
ENDCHAR
STARTCHAR uni04B7
ENCODING 1207
SWIDTH 505 0
DWIDTH 10 0
BBX 11 15 0 -5
BITMAP
0BFF20CFF100
0EFE01FFD000
3FFB04FFA000
6FF707FF6000
7FF72DFF3000
5FFFFFFF0000
0AED6FFC0070
00003FFB0770
00001FFFEC00
000007EE9100
000001C50000
000006FE1000
000005FF4000
000000BC0000
000000510000
ENDCHAR
STARTCHAR uni04B8
ENCODING 1208
SWIDTH 715 0
DWIDTH 14 0
BBX 15 15 0 0
BITMAP
00016BEE0002FFC0
005ECFFB0005FF80
07F75FF80008FF50
4FA08FF5000BFF20
AF40BFF2000EFE00
BF20DFE0002FFB00
6F20DFE0935FF800
01109FFAD9EFF400
000019EFE9EFF100
0000000571FFD000
0000000643FFA000
0000000007FF7000
000000000AFF3000
000000000DFF1000
000000001FFC0000
ENDCHAR
STARTCHAR uni04B9
ENCODING 1209
SWIDTH 545 0
DWIDTH 11 0
BBX 12 10 0 0
BITMAP
0BFF200FFD00
0EFE003FFA00
3FFB226FF700
6FF787AFF400
7FF8B9FFF100
5FFFFFFFC000
08EFD7FF9026
000696FF80A4
000534FFFEA0
0000009ED700
ENDCHAR
STARTCHAR uni04BA
ENCODING 1210
SWIDTH 679 0
DWIDTH 14 0
BBX 13 15 0 0
BITMAP
00017BEE000000
006EBFFB000000
09F55FF8000000
5F909FF5000000
BF30CFF1000000
AF20FFD0000000
2A23FFDBEFD500
0006FFA21BFF20
0009FF3007FF50
000DFE0008FF50
001FFC000AFF40
004FF9000DFF10
007FF6001FFD00
00AFF3004FF900
00DFE0007FF600
ENDCHAR
STARTCHAR uni04BB
ENCODING 1211
SWIDTH 505 0
DWIDTH 10 0
BBX 12 14 -1 0
BITMAP
00079B000000
001FFC000000
004FF8000000
007FF5000000
00BFF9DEA100
00EFF78FF600
02FFB04FF800
05FF606FF700
09FF309FF400
0CFF00CFF100
0FFC00FFD003
3FF902FFA039
7FF600EFD4B1
AFF3005DEB20
ENDCHAR
STARTCHAR uni04C0
ENCODING 1216
SWIDTH 375 0
DWIDTH 8 0
BBX 8 15 0 0
BITMAP
00017CEC
007ECFF9
09F47FF6
6F80AFF3
CF20DFF0
CF01FFC0
6F15FF90
0108FF50
000BFF20
000EFE00
002FFB00
006FF800
009FF400
00CFF100
01FFD000
ENDCHAR
STARTCHAR uni04C1
ENCODING 1217
SWIDTH 777 0
DWIDTH 16 0
BBX 18 19 -1 0
BITMAP
00000001BB10093000
00000004FF34AA0000
00000001AFFE800000
000000000010000000
0009ED30069B007EE3
002FFFC02FFB09FFF8
000AA7F16FF85F98C2
000001F49FF5CB0000
000000D6CFF5F30000
000000C6EFD8B00000
000000C8FFAD600000
0003BEFEFFEFFD4000
003EFC4AFF75EFD000
00AFF20CFF10BFE000
00EFB01FFD00EFB000
02FF804FF903FF7000
06FF507FF608FF3000
0AFF20BFF20BFF0000
5FE700EFE007FF4000
ENDCHAR
STARTCHAR uni04C2
ENCODING 1218
SWIDTH 882 0
DWIDTH 18 0
BBX 20 14 -1 0
BITMAP
00000001BB1009300000
00000005FE34AA000000
00000001BFFE80000000
00000000011000000000
007DEB200DFC007DEB00
06B4BFD01FF908FC7F40
0A204FF25FF63FF24F20
00003FF38FF39FB00100
00004FFFFFFFFF700000
00007FD3EFB5FF500000
3910BF92FF83FF300043
AF02FF26FF42FF5002A0
9F3AF709FF10DFC46B10
2CFD700CFD002BED8100
ENDCHAR
STARTCHAR uni04CB
ENCODING 1227
SWIDTH 695 0
DWIDTH 14 0
BBX 15 17 0 -2
BITMAP
00016BEE0008FF60
006EBFFB000BFF20
08F55FF8000EFE00
4F909FF4002FFB00
AF40BFF1005FF800
BF20DFE0009FF500
4D30DFE000CFF100
0000AFFC9CFFD000
00001AEEC9FFA000
0000000006FF7000
000000000AFF3000
000000000DFF1000
000000001FFC0000
000000004FF90000
0002535BFFF60000
0004FFFF82110000
0000AEC400000000
ENDCHAR
STARTCHAR uni04CC
ENCODING 1228
SWIDTH 516 0
DWIDTH 10 0
BBX 11 15 0 -5
BITMAP
08FF509FF400
0BFF20CFF100
0EFE00FFD000
2FFB04FFA000
4FFB1BFF7000
2FFFFFFF4000
07ED8DFF1070
00000FFE03A0
00000EFFDE30
000008FFD400
000000A70000
0079ABF20000
0AFFFFA00000
2FFFE9100000
690000000000
ENDCHAR
STARTCHAR uni04CF
ENCODING 1231
SWIDTH 267 0
DWIDTH 5 0
BBX 8 14 -1 0
BITMAP
00058A00
001FFC00
004FF900
007FF600
00BFF200
00EFE000
02FFB000
05FF7000
09FF4000
0CFF1000
0FFD0061
2FFC16B0
1FFFFE20
06EEA200
ENDCHAR
STARTCHAR uni04D0
ENCODING 1232
SWIDTH 668 0
DWIDTH 13 0
BBX 17 21 0 -2
BITMAP
0000000003CA000B10
0000000008FD25C700
0000000002CFFD6000
000000000001100000
00000000018DFA0000
000000002DEFF90000
00000002D98FF60000
0000001DB0BFF20000
0000009F20EFE00000
000005F802FFB00000
05BEFFFA56FF800000
7FC5AF948EFF500000
BF72FF200CFF100000
3729FA000FFD000000
001FF5003FFA000000
007FE0006FF7000000
00CFA000AFF4000000
01FF7000DFF1000000
04FF3001FFC0000000
03FF20000000000000
009E30000000000000
ENDCHAR
STARTCHAR uni04D1
ENCODING 1233
SWIDTH 526 0
DWIDTH 11 0
BBX 13 14 -1 0
BITMAP
00003CA000B100
00007FE24C7000
00002CFFD70000
00000011000000
0003BEEAFF7000
004FFA4DFF4000
01EFD00CFF1000
08FF600FFD0000
0DFF103FF90000
2FFC007FF60000
3FFB00AFF30620
3FFC03FFF22C00
0DFFDEAFFEE400
03CEB32CEB4000
ENDCHAR
STARTCHAR uni04D2
ENCODING 1234
SWIDTH 668 0
DWIDTH 13 0
BBX 16 21 0 -2
BITMAP
0000000000110020
0000000001EE27FA
0000000001DD15E8
0000000000000000
00000000018DFA00
000000002DEFF900
00000002D98FF600
0000001DB0BFF200
0000009F20EFE000
000005F802FFB000
05BEFFFA56FF8000
7FC5AF948EFF5000
BF72FF200CFF1000
3729FA000FFD0000
001FF5003FFA0000
007FE0006FF70000
00CFA000AFF40000
01FF7000DFF10000
04FF3001FFC00000
03FF200000000000
009E300000000000
ENDCHAR
STARTCHAR uni04D3
ENCODING 1235
SWIDTH 526 0
DWIDTH 11 0
BBX 13 14 -1 0
BITMAP
00000110010000
00001EE26FB000
00000CD24E9000
00000000000000
0003BEEAFF7000
004FFA4DFF4000
01EFD00CFF1000
08FF600FFD0000
0DFF103FF90000
2FFC007FF60000
3FFB00AFF30620
3FFC03FFF22C00
0DFFDEAFFEE400
03CEB32CEB4000
ENDCHAR
STARTCHAR uni04D4
ENCODING 1236
SWIDTH 764 0
DWIDTH 15 0
BBX 19 17 0 -2
BITMAP
00000000018DEA412810
000000002DDFFEFFF800
00000002D98FF6122000
0000001DB0BFF3000000
000000AE20EFF0000000
000005F802FFC0000000
05CFFFF946FF92210000
7FD5AF959EFFFFF60000
CF72FF200CFF65510000
493AFA000FFD00000000
001FF5003FFA00000000
008FE0006FF700000000
00CFA000AFF511110000
02FF7000DFFFFFF80000
04FF3001FFFFFFF50000
03FF2000000000000000
009E2000000000000000
ENDCHAR
STARTCHAR uni04D5
ENCODING 1237
SWIDTH 650 0
DWIDTH 13 0
BBX 15 10 -1 0
BITMAP
0004BEEC58DFC200
003C53AFFFD4E900
0000005FFF30E900
0000007FFA06F400
006CEFFFF66FA000
0AFF94EFFFE70000
1FFC02FFF2000130
2FFB08FFF1001A10
0EFFEEBFF836B200
04DFC31AEEC71000
ENDCHAR
STARTCHAR uni04D6
ENCODING 1238
SWIDTH 459 0
DWIDTH 9 0
BBX 11 19 0 0
BITMAP
00004D8001B0
0000AFB25D50
00003DFFC500
000000110000
00003AEEA100
0004FF74E900
000EF900BC00
004FF402E900
005FF4026100
001EFA000000
0009FF900000
02CFF7000000
0CFF80000000
6FFE10000000
BFFB00000000
CFFA00002600
BFFE3016C100
4FFFFEFC1000
05CEEB500000
ENDCHAR
STARTCHAR uni04D7
ENCODING 1239
SWIDTH 384 0
DWIDTH 8 0
BBX 10 14 -1 0
BITMAP
0007C50048
000DF827D2
0006EFFB30
0000010000
0003BEEA00
004FF97F40
01EFC04F40
08FF50BE10
0DFF39F500
2FFFFC4000
3FFC100021
3FFB000390
0DFF547A10
03BEEB5000
ENDCHAR
STARTCHAR uni04D8
ENCODING 1240
SWIDTH 544 0
DWIDTH 11 0
BBX 11 15 0 0
BITMAP
0017CEEC6000
00BFFFFFF900
01FA437FFF40
0050000AFF90
00000008FFB0
00000008FFB0
00005BDFFFA0
002CFB5EFF80
02EF801FFF40
0CFB005FFE00
5FF400AFF600
8FF002FFC000
7FE00AFE2000
3FF59FE30000
04CFD8100000
ENDCHAR
STARTCHAR uni04D9
ENCODING 1241
SWIDTH 404 0
DWIDTH 8 0
BBX 8 10 0 0
BITMAP
03BEEC40
0D64CFF3
02005FF8
00004FFA
007DFFF9
1CE7AFF5
9F30DFE1
EB05FF60
EC5EF800
5DEB4000
ENDCHAR
STARTCHAR uni04DC
ENCODING 1244
SWIDTH 777 0
DWIDTH 16 0
BBX 18 19 -1 0
BITMAP
000000000100110000
00000000CF53FD0000
00000000AE42EC0000
000000000000000000
0009ED30069B007EE3
002FFFC02FFB09FFF8
000AA7F16FF85F98C2
000001F49FF5CB0000
000000D6CFF5F30000
000000C6EFD8B00000
000000C8FFAD600000
0003BEFEFFEFFD4000
003EFC4AFF75EFD000
00AFF20CFF10BFE000
00EFB01FFD00EFB000
02FF804FF903FF7000
06FF507FF608FF3000
0AFF20BFF20BFF0000
5FE700EFE007FF4000
ENDCHAR
STARTCHAR uni04DD
ENCODING 1245
SWIDTH 882 0
DWIDTH 18 0
BBX 20 14 -1 0
BITMAP
00000000010010000000
00000000CF43FD000000
00000000AE33EB000000
00000000000000000000
007DEB200DFC007DEB00
06B4BFD01FF908FC7F40
0A204FF25FF63FF24F20
00003FF38FF39FB00100
00004FFFFFFFFF700000
00007FD3EFB5FF500000
3910BF92FF83FF300043
AF02FF26FF42FF5002A0
9F3AF709FF10DFC46B10
2CFD700CFD002BED8100
ENDCHAR
STARTCHAR uni04DE
ENCODING 1246
SWIDTH 525 0
DWIDTH 11 0
BBX 12 19 -1 0
BITMAP
000000200110
000007F90DF3
000006E70CE2
000000000000
000029DED700
0003C64AFF70
000B1002FFC0
00140003FFC0
00000009FF70
0000018FFA00
0000BFFF7000
000034BFF800
0000001EFF30
0000000CFF60
0261000DFF60
1EF3001FFF20
2FD0008FFA00
0DF638FFB100
02AEFDB50000
ENDCHAR
STARTCHAR uni04DF
ENCODING 1247
SWIDTH 498 0
DWIDTH 10 0
BBX 11 19 0 -5
BITMAP
000010010000
000DF44FD000
000BE33EB000
000000000000
0019DEC40000
01C64EFE2000
095009FF6000
1C0008FF7000
66000AFF4000
B2001EFC0000
7002BFE20150
00AFFD100770
0027FF702C10
0000DFE8C300
0005DFF60000
02CAEFF00000
0A71FFB00000
0C8AFF300000
04DFC5000000
ENDCHAR
STARTCHAR uni04E2
ENCODING 1250
SWIDTH 705 0
DWIDTH 14 0
BBX 15 18 0 0
BITMAP
0000000DFFFFF800
0000000333333100
0000000000000000
00016BEE0007FF90
005EBFFB001EFF60
07F65FF8009FFF20
4FA08FF503FFFE00
AF40BFF20BFFFB00
BF20EFE04FBFF800
5E23FFA0DC9FF500
0006FF76F3CFF100
0009FF5E90FFD000
000CFF9E13FFA000
001FFEF706FF7000
004FFFD00AFF4000
007FFF500DFF1000
00AFFB001FFC0000
00DFF3004FF90000
ENDCHAR
STARTCHAR uni04E3
ENCODING 1251
SWIDTH 505 0
DWIDTH 10 0
BBX 12 13 -1 0
BITMAP
0005FFFFFF10
000133333300
000000000000
00BFF20CFF10
00EFE01FFD00
03FFB04FFA00
06FF707FF600
09FF40AFF300
0CFF10DFF000
1FFD02FFC008
2FFC0AFFB087
1FFFFAEFFEC0
06EE906EE810
ENDCHAR
STARTCHAR uni04E4
ENCODING 1252
SWIDTH 705 0
DWIDTH 14 0
BBX 15 19 0 0
BITMAP
0000000020011000
00000007F90DF300
00000006E70CE200
0000000000000000
00016BEE0007FF90
005EBFFB001EFF60
07F65FF8009FFF20
4FA08FF503FFFE00
AF40BFF20BFFFB00
BF20EFE04FBFF800
5E23FFA0DC9FF500
0006FF76F3CFF100
0009FF5E90FFD000
000CFF9E13FFA000
001FFEF706FF7000
004FFFD00AFF4000
007FFF500DFF1000
00AFFB001FFC0000
00DFF3004FF90000
ENDCHAR
STARTCHAR uni04E5
ENCODING 1253
SWIDTH 505 0
DWIDTH 10 0
BBX 12 14 -1 0
BITMAP
000011001000
0001EE26FB00
0000CD24E900
000000000000
00BFF20CFF10
00EFE01FFD00
03FFB04FFA00
06FF707FF600
09FF40AFF300
0CFF10DFF000
1FFD02FFC008
2FFC0AFFB087
1FFFFAEFFEC0
06EE906EE810
ENDCHAR
STARTCHAR uni04E6
ENCODING 1254
SWIDTH 665 0
DWIDTH 13 0
BBX 14 19 0 0
BITMAP
00000001100100
0000000DF35FC0
0000000CE24EA0
00000000000000
000038CEFDA200
002AFA644AFE20
03ED34CE30DFA0
1EE24FF5009FE0
8F71EFC0008FF1
AF48FF50009FF1
5F3EFE1000BFF0
015FFA0000EFD0
008FF70002FF90
00BFF40008FF40
00CFF3000DFD00
00CFF2007FF500
00AFF503EF9000
004FFEAEFA0000
0005CEEB500000
ENDCHAR
STARTCHAR uni04E7
ENCODING 1255
SWIDTH 439 0
DWIDTH 9 0
BBX 13 14 -1 0
BITMAP
00000100100000
0000CF44FD0000
0000BE33EB0000
00000000000000
0003AEE9100000
003EFA4F700000
01EFD12EA01910
07FF707FEAA300
0DFF202FA00000
2FFD003F700000
4FFB007F200000
3FFB00DB000000
0DFE4AD2000000
03BEE920000000
ENDCHAR
STARTCHAR uni04E8
ENCODING 1256
SWIDTH 665 0
DWIDTH 13 0
BBX 14 15 0 0
BITMAP
000038CEFDA200
002BFA644AFE20
04EC24DE30CFA0
2EE15FF5009FE0
8F71EFC0008FF1
AF38FF50009FF1
5E3EFE0000BFF0
004FFFFFFFFFD0
008FF70003FF90
00BFF40007FF40
00CFF3000DFD00
00CFF2005FF500
00AFF401DF9000
004FFB4CFA0000
0005CEEB500000
ENDCHAR
STARTCHAR uni04E9
ENCODING 1257
SWIDTH 439 0
DWIDTH 9 0
BBX 13 10 -1 0
BITMAP
0003AEE9100000
003EFA4F700000
01EFD12EA01910
07FF707FEAA300
0DFFFFFFF00000
2FFF336F900000
4FFB007F200000
3FFB00DB000000
0DFE4AD2000000
03BEE920000000
ENDCHAR
STARTCHAR uni04EE
ENCODING 1262
SWIDTH 644 0
DWIDTH 13 0
BBX 15 18 0 0
BITMAP
00000009FFFFFC00
0000000233333200
0000000000000000
00016BEF20004F10
005EADFF6000AA00
07F609FF9002F300
4FA005FFD008C000
AF4001FFF10E6000
BF2000CFF55E0000
5E30008FF8B80000
0000004FFDF20000
0000000EFFA00000
0000000BFF400000
00000007FD000000
00000003F6000000
00006C47D0000000
0000DFEF50000000
00007ED600000000
ENDCHAR
STARTCHAR uni04EF
ENCODING 1263
SWIDTH 486 0
DWIDTH 10 0
BBX 12 18 -1 -5
BITMAP
0005FFFFFF10
000133333300
000000000000
00BFF20CFF10
00EFE01FFD00
03FFB04FFA00
06FF707FF600
09FF40AFF300
0CFF10DFF000
1FFD02FFC044
2FFC0AFF80C2
1FFFFFFF6970
06EE9CFFD600
0004BFFE0000
007C6FFB0000
00F17FF70000
01FAEFE10000
006EEA200000
ENDCHAR
STARTCHAR uni04F0
ENCODING 1264
SWIDTH 644 0
DWIDTH 13 0
BBX 15 19 0 0
BITMAP
0000000010002000
00000003FD09F700
00000003EB08E600
0000000000000000
00016BEF20004F10
005EADFF6000AA00
07F609FF9002F300
4FA005FFD008C000
AF4001FFF10E6000
BF2000CFF55E0000
5E30008FF8B80000
0000004FFDF20000
0000000EFFA00000
0000000BFF400000
00000007FD000000
00000003F6000000
00006C47D0000000
0000DFEF50000000
00007ED600000000
ENDCHAR
STARTCHAR uni04F1
ENCODING 1265
SWIDTH 486 0
DWIDTH 10 0
BBX 12 19 -1 -5
BITMAP
000011002000
0001EE26FA00
0001CD15E900
000000000000
00BFF20CFF10
00EFE01FFD00
03FFB04FFA00
06FF707FF600
09FF40AFF300
0CFF10DFF000
1FFD02FFC044
2FFC0AFF80C2
1FFFFFFF6970
06EE9CFFD600
0004BFFE0000
007C6FFB0000
00F17FF70000
01FAEFE10000
006EEA200000
ENDCHAR
STARTCHAR uni04F2
ENCODING 1266
SWIDTH 644 0
DWIDTH 13 0
BBX 15 20 0 0
BITMAP
000000000AF56F80
000000002F90DC00
000000009D15F300
00000001E30C6000
0000000000000000
00016BEF20004F10
005EADFF6000AA00
07F609FF9002F300
4FA005FFD008C000
AF4001FFF10E6000
BF2000CFF55E0000
5E30008FF8B80000
0000004FFDF20000
0000000EFFA00000
0000000BFF400000
00000007FD000000
00000003F6000000
00006C47D0000000
0000DFEF50000000
00007ED600000000
ENDCHAR
STARTCHAR uni04F3
ENCODING 1267
SWIDTH 486 0
DWIDTH 10 0
BBX 12 20 -1 -5
BITMAP
000006F83FC0
00000DC0AE20
00005F32F600
0000C608A000
000000000000
00BFF20CFF10
00EFE01FFD00
03FFB04FFA00
06FF707FF600
09FF40AFF300
0CFF10DFF000
1FFD02FFC044
2FFC0AFF80C2
1FFFFFFF6970
06EE9CFFD600
0004BFFE0000
007C6FFB0000
00F17FF70000
01FAEFE10000
006EEA200000
ENDCHAR
STARTCHAR uni04F4
ENCODING 1268
SWIDTH 695 0
DWIDTH 14 0
BBX 15 19 0 0
BITMAP
0000000020001000
00000007F90DF400
00000005E80BE300
0000000000000000
00016BEE0008FF60
004DDFFC000BFF20
05F85FF9000EFE00
3FB08FF5002FFB00
9F50BFF2005FF800
BF30DFF0008FF500
8F20DFE000BFF200
0620AFF415EFD000
00001AEEC9FFA000
0000000006FF7000
000000000AFF4000
000000000DFF1000
000000001FFC0000
000000004FF90000
000000007FF60000
ENDCHAR
STARTCHAR uni04F5
ENCODING 1269
SWIDTH 505 0
DWIDTH 10 0
BBX 11 14 0 0
BITMAP
000110020000
002EE17F9000
001DD16E7000
000000000000
0BFF20CFF100
0EFE01FFD000
3FFB04FFA000
6FF707FF6000
7FF72DFF3000
5FFFFFFF0000
0AED7FFC0070
00003FFB0870
00001FFFEC00
000007EE8100
ENDCHAR
STARTCHAR uni04F6
ENCODING 1270
SWIDTH 442 0
DWIDTH 9 0
BBX 13 18 0 -3
BITMAP
0006ADEFFFFF90
03DD9FFEDFFE20
1ED15FF8012000
8F808FF5000000
BF50BFF2000000
AF50EFD0000000
2B53FFA0000000
0006FF70000000
0009FF40000000
000DFF10000000
001FFC00000000
004FF900000000
007FF600000000
00BFF300000000
00EFF700000000
0013EFDA500000
00008FFF300000
00001CE7000000
ENDCHAR
STARTCHAR uni04F7
ENCODING 1271
SWIDTH 375 0
DWIDTH 8 0
BBX 9 15 -1 -5
BITMAP
002AEEB200
02C58FFA00
0B304FFC00
1401BFF700
004DFFA000
06FFE50000
2FFD100190
6FFB002B30
3FFFCCE400
07DFC81000
002D100000
00AFA00000
00AFE00000
002F900000
0007000000
ENDCHAR
STARTCHAR uni04F8
ENCODING 1272
SWIDTH 909 0
DWIDTH 18 0
BBX 19 19 0 0
BITMAP
00000000001000200000
0000000004FC0AF60000
0000000003EB08E50000
00000000000000000000
00017BEE00000003FFA0
006EBFFB00000007FF70
09F55FF80000000AFF30
5F908FF40000000DFF10
BF40BFF10000001FFC00
AF20EFD00000004FF900
3B33FFECED80008FF600
0006FF938FF800BFF300
0009FF300DFE00EFE000
000CFF000BFF12FFB000
001FFC000CFF05FF8000
004FF9001EFC08FF5000
007FF6308FF60CFF2000
00AFF5FEFFB00EFD0000
00DFE09ED8103FFA0000
ENDCHAR
STARTCHAR uni04F9
ENCODING 1273
SWIDTH 642 0
DWIDTH 13 0
BBX 15 13 -1 0
BITMAP
000006D51BB10000
000009F82FE10000
0000003002100000
009CB000001AA000
00EFB00006EFA000
02FF8003CDFF7000
05FF6CCD46FF3000
09FF24AE09FF0000
0CFE008F1CFC0000
0FFB00BE1FF80360
1FF904F93FF80B20
0DFEBFD12FFFE900
03CED91007EE8000
ENDCHAR
STARTCHAR uni051A
ENCODING 1306
SWIDTH 665 0
DWIDTH 13 0
BBX 14 17 0 -2
BITMAP
000038CEFDA200
002AFA644AFE20
03DD34CE30DFA0
1DE24FF6009FE0
7F81DFD0008FF1
AF48FF60009FF1
7F3EFF1000AFF0
045FFB0000DFD0
008FF80002FFA0
00BFF50006FF50
00CFF3000CFE10
00CFF2004FF700
00AFFBC9DFC000
004FFA6FFD2000
0005CEEDFA0000
00000002FFD910
000000005DE700
ENDCHAR
STARTCHAR uni051B
ENCODING 1307
SWIDTH 486 0
DWIDTH 10 0
BBX 11 15 -1 -5
BITMAP
0003BEEAFF70
004FFA4DFF40
01EFD00CFF10
08FF501FFC00
0DFF104FF900
2FFC007FF600
3FFB00BFF300
3FFD04FFE000
0DFFEFFFB000
03CFC8FF8000
000008FF5000
00000CFF2000
00000FFD0000
00003FFA0000
000049510000
ENDCHAR
STARTCHAR uni051C
ENCODING 1308
SWIDTH 962 0
DWIDTH 19 0
BBX 21 15 0 0
BITMAP
00017CEE0000DFD0000E70
007E9FFE0003FFD0004F10
09F40FFF0008FFD0009B00
6F800FFF000DFFE000E500
CF200FFF003FFFE004E000
CF000EFF008BFFE00A9000
6F100EFF10D5FFE00E3000
01000EFF14E0FFF05D0000
00000DFF1990EFF0A70000
00000DFF1E30EFF1E20000
00000CFF5C00EFF5B00000
00000CFFB700DFFB600000
00000CFFF100DFFE100000
00000BFFB000DFF9000000
00000BFF5000CFF4000000
ENDCHAR
STARTCHAR uni051D
ENCODING 1309
SWIDTH 661 0
DWIDTH 13 0
BBX 14 10 -1 0
BITMAP
00BFF20CFF15E8
00EFE01FFD07FD
03FFB04FFA005D
06FF707FF6007B
09FF40AFF300B7
0CFF10DFF002F3
1FFD02FFC00AC0
2FFC0AFFB07F40
1FFFFBFFFEF700
06EE916EFC5000
ENDCHAR
STARTCHAR uni0524
ENCODING 1316
SWIDTH 742 0
DWIDTH 15 0
BBX 16 18 0 -3
BITMAP
0005ADEEDA742247
02CFFFFFFFFFFFF8
1DFC8FFB79DFFFA1
6FB07FF6009FF400
AF50AFF300DFF100
BF20EFE001FFC000
7F22FFB005FF9000
0315FF8008FF5000
0009FF500BFF2000
000CFF100FFD0000
000FFD003FFA0000
003FFA007FF70000
007FF600AFF30000
00AFF300EFF00000
00DFE002FFE50000
0000000007FFED20
0000000000CFFD00
00000000003ED400
ENDCHAR
STARTCHAR uni0525
ENCODING 1317
SWIDTH 505 0
DWIDTH 10 0
BBX 12 15 -1 -5
BITMAP
00BFF9DEB100
00EFF78FF700
03FFB04FF800
06FF606FF600
09FF309FF300
0CFF00CFE000
1FFC00FFB019
4FF902FFB1A5
7FF600EFFFB0
AFF3006EE810
000000097000
0000004FE200
0000004FF600
0000000BE100
000000053000
ENDCHAR
STARTCHAR uni1E0C
ENCODING 7692
SWIDTH 663 0
DWIDTH 13 0
BBX 13 20 0 -5
BITMAP
00017BDFEB4000
006ED7448FF700
08F838A506FF30
5FB09FF401FF90
BF40CFF100DFC0
DF11FFD000DFD0
9F04FFA000EFC0
0517FF6001FFB0
000BFF3004FF80
000EFF0007FF40
002FFC000CFE00
005FF8003FF700
009FF500BFD100
00CFF84AFE3000
01FFE9DFB30000
00000000000000
00000000000000
0000BE60000000
0003FFD0000000
0000BE60000000
ENDCHAR
STARTCHAR uni1E0D
ENCODING 7693
SWIDTH 525 0
DWIDTH 11 0
BBX 13 19 -1 -5
BITMAP
0000000049B400
00000000BFF200
00000000EFE000
00000002FFB000
0003BEEAFF8000
004FFB4DFF5000
01EFD00CFF2000
08FF700FFE0000
0DFF203FFB0000
2FFD006FF80000
3FFB009FF50100
3FFB00DFF20A10
0DFE49FFF67600
03CFD64DEC5000
00000000000000
00000000000000
000AE700000000
003FFE00000000
000AE700000000
ENDCHAR
STARTCHAR uni1E20
ENCODING 7712
SWIDTH 578 0
DWIDTH 12 0
BBX 12 23 0 -5
BITMAP
00002FFFFFF4
000013333330
000000000000
00004ADEEA20
001AFFB54DD1
00CFF90009F4
08FFC0000DF3
1EFF40002A70
5FFD00000000
8FF900002430
9FF80000AFB0
8FF70001EF80
4FFA0008FF50
0CFF516FFF10
02BFFF9CFD00
0001210FFA00
0002203FF600
00AFF97FF300
06F714AFD000
09F101EF7000
06F719FC0000
008FFFB10000
000121000000
ENDCHAR
STARTCHAR uni1E21
ENCODING 7713
SWIDTH 507 0
DWIDTH 10 0
BBX 12 19 -1 -5
BITMAP
0000EFFFFF70
000033333310
000000000000
000000000000
0003BEEAFF70
004FFA4DFF40
01EFD00CFF10
08FF501FFD00
0DFF104FF900
2FFC007FF600
3FFB00BFF308
3FFD04FFE068
0DFFEFFFC4C1
03CFC8FFEA10
00018EFF6000
002E9CFF2000
00990EFD0000
009A8FF60000
002CED600000
ENDCHAR
STARTCHAR uni1E24
ENCODING 7716
SWIDTH 665 0
DWIDTH 13 0
BBX 14 20 0 -5
BITMAP
00005BEE001FFC
003CFFFC004FF8
04EFAFF9007FF5
1EF46FF600AFF2
8F909FF300DFE0
BF40DFF101FFB0
AF21FFD225FF80
3C34FFFFFFFF40
0008FF955CFF10
000BFF300DFD00
000EFE002FFA00
003FFB005FF700
006FF7009FF300
00AFF400CFF100
00DFF001FFC000
00000000000000
00000000000000
00005EC1000000
0000BFF5000000
00005EC1000000
ENDCHAR
STARTCHAR uni1E25
ENCODING 7717
SWIDTH 505 0
DWIDTH 10 0
BBX 12 19 -1 -5
BITMAP
00079B000000
001FFC000000
004FF8000000
007FF5000000
00BFF9DEA100
00EFF78FF600
02FFB04FF800
05FF606FF700
09FF309FF400
0CFF00CFF100
0FFC00FFD003
3FF902FFA039
7FF600EFD4B1
AFF3005DEB20
000000000000
000000000000
001CE4000000
006FFB000000
001CE5000000
ENDCHAR
STARTCHAR uni1E2A
ENCODING 7722
SWIDTH 665 0
DWIDTH 13 0
BBX 14 20 0 -5
BITMAP
00017BEE002FFC
006DAFFB005FF8
08F45FF8008FF5
5F909FF500CFF2
AF40CFF100EFE0
BF20FFD225FFB0
4D33FFFFFFFF80
0006FF955BFF40
0009FF400CFF10
000DFF101FFD00
001FFC004FFA00
004FF9007FF700
007FF600AFF300
00AFF300DFF100
00DFE001FFC000
00000000000000
00383002830000
003FA01BE10000
0007EFFA200000
00000100000000
ENDCHAR
STARTCHAR uni1E2B
ENCODING 7723
SWIDTH 505 0
DWIDTH 10 0
BBX 12 19 -1 -5
BITMAP
00079B000000
001FFC000000
004FF8000000
007FF5000000
00BFF9DEA100
00EFF78FF600
02FFB04FF800
05FF606FF700
09FF309FF400
0CFF00CFF100
0FFC00FFD003
3FF902FFA039
7FF600EFD4B1
AFF3005DEB20
000000000000
086000760000
0CE207F50000
03DFFC500000
000110000000
ENDCHAR
STARTCHAR uni1E36
ENCODING 7734
SWIDTH 379 0
DWIDTH 8 0
BBX 14 20 0 -5
BITMAP
00027CEC000000
007EBFF9000000
09E47FF6000000
6F70AFF3000000
CF20DFE0000000
CF02FFB0000000
5E15FF80000000
0008FF50000000
000CFF10000000
000FFD00000000
003FFA00000000
006FF700000000
00AFF300000000
00DFF000000000
01FFF920000000
0003BFE7000000
000005EFD50000
03DD203DFFFDD2
09FF8001BFFFD0
03DD300007DE40
ENDCHAR
STARTCHAR uni1E37
ENCODING 7735
SWIDTH 293 0
DWIDTH 6 0
BBX 8 19 -1 -5
BITMAP
00000120
0006EF70
000AFF40
000DFF10
002FFC00
005FF900
009FF500
00CFF200
01FFE000
04FFA000
07FF7000
09FF4067
08FFB9B0
01BED710
00000000
00000000
0AE80000
2FFE0000
0AE80000
ENDCHAR
STARTCHAR uni1E42
ENCODING 7746
SWIDTH 787 0
DWIDTH 16 0
BBX 15 20 1 -5
BITMAP
00018CEF4001EFF0
006E9CFF3006FFD0
06F61FFF200CFFB0
2FB07FFF203FFF90
7F60CFFF10AFFF70
8F43FFFF01FFFF50
2C58FCFF07FDFF30
000DACFE0DBDFF00
004F5DFD4F5FFD00
00AE0DFDAD2FFB00
01E90EFEF74FF900
06F30FFFF16FF700
0BD00FFFA08FF500
2F701FFF40BFF300
7F202FFC00DFF100
0000000000000000
0000000000000000
00006EB000000000
0000DFF300000000
00007EB000000000
ENDCHAR
STARTCHAR uni1E43
ENCODING 7747
SWIDTH 752 0
DWIDTH 15 0
BBX 17 15 -1 -5
BITMAP
00BFF9DFC38EEA0000
00EFF79FFF69FF5000
03FFB05FFA05FF7000
06FF608FF507FF6000
09FF30BFF20AFF3000
0CFF00EFE00DFF0000
1FFC02FFB01FFC0030
4FF905FF803FF90480
7FF608FF501FFC4B10
AFF30BFF2006DEA200
000000000000000000
000000000000000000
00001CE50000000000
00005FFB0000000000
00001CE50000000000
ENDCHAR
STARTCHAR uni1E44
ENCODING 7748
SWIDTH 668 0
DWIDTH 13 0
BBX 15 19 0 0
BITMAP
0000000007EB0000
000000000DFF3000
0000000007EB0000
0000000000000000
0006BEFB0000AF40
02CEAFFF1000DF10
1DE36FFF4001FC00
7F709FFF8004F900
CF30DFFFB007F600
CF21FEEFE00BF200
7F44FBAFF30EE000
0338F76FF62FB000
000BF43FF95F8000
000EF00EFD8F4000
002FC00BFFCF1000
006F8007FFFD0000
009F5004FFFA0000
00CF1001FFF60000
01FD0000CFF30000
ENDCHAR
STARTCHAR uni1E45
ENCODING 7749
SWIDTH 505 0
DWIDTH 10 0
BBX 12 15 -1 0
BITMAP
000002CE4000
000006FFA000
000002CE4000
000000000000
000000000000
00BFF9DEA100
00EFF78FF600
03FFB04FF800
06FF606FF700
09FF309FF400
0CFF00CFF100
1FFC00FFD003
4FF902FFA039
7FF600EFD4B1
AFF3005DEB20
ENDCHAR
STARTCHAR uni1E46
ENCODING 7750
SWIDTH 668 0
DWIDTH 13 0
BBX 15 20 0 -5
BITMAP
0006BEFB0000AF40
02CEAFFF1000DF10
1DE36FFF4001FC00
7F709FFF8004F900
CF30DFFFB007F600
CF21FEEFE00BF200
7F44FBAFF30EE000
0338F76FF62FB000
000BF43FF95F8000
000EF00EFD8F4000
002FC00BFFCF1000
006F8007FFFD0000
009F5004FFFA0000
00CF1001FFF60000
01FD0000CFF30000
0000000000000000
0000000000000000
00003DD300000000
00008FF800000000
00003DD300000000
ENDCHAR
STARTCHAR uni1E47
ENCODING 7751
SWIDTH 505 0
DWIDTH 10 0
BBX 12 15 -1 -5
BITMAP
00BFF9DEA100
00EFF78FF600
03FFB04FF800
06FF606FF700
09FF309FF400
0CFF00CFF100
1FFC00FFD003
4FF902FFA039
7FF600EFD4B1
AFF3005DEB20
000000000000
000000000000
000AE7000000
003FFE000000
000AE7000000
ENDCHAR
STARTCHAR uni1E5A
ENCODING 7770
SWIDTH 601 0
DWIDTH 12 0
BBX 12 20 0 -5
BITMAP
00016BEFD810
004DD7447FD1
05F938A509F8
3FB09FF407FA
AF50CFF109F7
DF11FFD02EE2
BF04FFA3DE40
3B17FFFFFD40
000BFF75EFC0
000EFF10CFD0
002FFC00EFA0
005FF904FF60
009FF509FF20
00CFF20CFF00
01FFD008FF30
000000000000
000000000000
00006EB00000
0000CFF40000
00006EB10000
ENDCHAR
STARTCHAR uni1E5B
ENCODING 7771
SWIDTH 376 0
DWIDTH 8 0
BBX 9 15 -1 -5
BITMAP
00BFF5CE60
00EFFCDFB0
03FFB04D50
06FF700000
09FF400000
0CFF100000
1FFD000000
4FFA000000
7FF7000000
AFF3000000
0000000000
0000000000
7EA0000000
EFF2000000
7EA0000000
ENDCHAR
STARTCHAR uni1E60
ENCODING 7776
SWIDTH 570 0
DWIDTH 11 0
BBX 11 20 0 0
BITMAP
0000000BE600
0000003FFD00
0000000BE700
000000000000
000000000000
000029DFD810
0003EFB47FA0
000CFF100EF0
000EFE003FE0
000CFF504A40
0005FFE30000
0000AFFE2000
00000CFFD100
002521DFF900
07FFE14FFF10
1FF8000DFF40
4FF0000CFF20
3FF2002FFB00
0AFC67EFD200
007CEEC70000
ENDCHAR
STARTCHAR uni1E61
ENCODING 7777
SWIDTH 382 0
DWIDTH 8 0
BBX 10 15 -1 0
BITMAP
00002DD300
00008FF900
00003DD300
0000000000
0001577000
0006FFD000
000BFFE000
002CEFF000
0087DFF100
01E1CFF200
0990BFF300
6FB0AFF432
9B50BFFA70
6C47FFD300
08EFD80000
ENDCHAR
STARTCHAR uni1E62
ENCODING 7778
SWIDTH 570 0
DWIDTH 11 0
BBX 11 20 0 -5
BITMAP
000029DFD810
0003EFB47FA0
000CFF100EF0
000EFE003FE0
000CFF504A40
0005FFE30000
0000AFFE2000
00000CFFD100
002521DFF900
07FFE14FFF10
1FF8000DFF40
4FF0000CFF20
3FF2002FFB00
0AFC67EFD200
007CEEC70000
000000000000
000000000000
002DD3000000
007FF9000000
002DD3000000
ENDCHAR
STARTCHAR uni1E63
ENCODING 7779
SWIDTH 382 0
DWIDTH 8 0
BBX 10 15 -1 -5
BITMAP
00029BB000
0008FFE000
000DFFF000
005AEFF000
00C4CFF200
05C0BFF300
3E90AFF400
9E90BFF791
6B46FFE600
08EED81000
0000000000
0000000000
09E8000000
1FFF000000
09E9000000
ENDCHAR
STARTCHAR uni1E6C
ENCODING 7788
SWIDTH 481 0
DWIDTH 10 0
BBX 15 20 0 -5
BITMAP
0016BDEEC8411640
03DC65FFFFFFFF20
1EC004FFECEFE700
8F5007FF90010000
BF100AFF50000000
DF000EFF20000000
9F002FFE00000000
05105FFA00000000
00008FF700000000
0000BFF400000000
0000EFF100000000
0002FFC000000000
0005FF9000000000
0008FF5000000000
000BFF2000000000
0000000000000000
0000000000000000
001CE40000000000
006FFA0000000000
002CE40000000000
ENDCHAR
STARTCHAR uni1E6D
ENCODING 7789
SWIDTH 267 0
DWIDTH 5 0
BBX 8 18 -1 -5
BITMAP
001CEC00
005FF800
008FF500
05FFFF60
01EFF310
01FFC000
05FF8000
08FF5000
0CFF2000
0FFD0061
2FFC04B0
1FFFDE20
06EEA200
00000000
00000000
7EA00000
EFF20000
7EA00000
ENDCHAR
STARTCHAR Wgrave
ENCODING 7808
SWIDTH 962 0
DWIDTH 19 0
BBX 21 20 0 0
BITMAP
000000000004FB00000000
000000000000ED00000000
000000000000AF00000000
0000000000006F20000000
0000000000000000000000
00017CEE0000DFD0000E70
007E9FFE0003FFD0004F10
09F40FFF0008FFD0009B00
6F800FFF000DFFE000E500
CF200FFF003FFFE004E000
CF000EFF008BFFE00A9000
6F100EFF10D5FFE00E3000
01000EFF14E0FFF05D0000
00000DFF1990EFF0A70000
00000DFF1E30EFF1E20000
00000CFF5C00EFF5B00000
00000CFFB700DFFB600000
00000CFFF100DFFE100000
00000BFFB000DFF9000000
00000BFF5000CFF4000000
ENDCHAR
STARTCHAR wgrave
ENCODING 7809
SWIDTH 661 0
DWIDTH 13 0
BBX 14 15 -1 0
BITMAP
000000AF600000
0000005F800000
0000001FA00000
0000000CC00000
00000000000000
00BFF20CFF15E8
00EFE01FFD07FD
03FFB04FFA005D
06FF707FF6007B
09FF40AFF300B7
0CFF10DFF002F3
1FFD02FFC00AC0
2FFC0AFFB07F40
1FFFFBFFFEF700
06EE916EFC5000
ENDCHAR
STARTCHAR Wacute
ENCODING 7810
SWIDTH 962 0
DWIDTH 19 0
BBX 21 20 0 0
BITMAP
0000000000000028600000
00000000000000AF400000
00000000000003F9000000
0000000000000AD1000000
0000000000000000000000
00017CEE0000DFD0000E70
007E9FFE0003FFD0004F10
09F40FFF0008FFD0009B00
6F800FFF000DFFE000E500
CF200FFF003FFFE004E000
CF000EFF008BFFE00A9000
6F100EFF10D5FFE00E3000
01000EFF14E0FFF05D0000
00000DFF1990EFF0A70000
00000DFF1E30EFF1E20000
00000CFF5C00EFF5B00000
00000CFFB700DFFB600000
00000CFFF100DFFE100000
00000BFFB000DFF9000000
00000BFF5000CFF4000000
ENDCHAR
STARTCHAR wacute
ENCODING 7811
SWIDTH 661 0
DWIDTH 13 0
BBX 14 15 -1 0
BITMAP
000000000AF500
000000002FB000
000000008F3000
00000001E90000
00000000200000
00BFF20CFF15E8
00EFE01FFD07FD
03FFB04FFA005D
06FF707FF6007B
09FF40AFF300B7
0CFF10DFF002F3
1FFD02FFC00AC0
2FFC0AFFB07F40
1FFFFBFFFEF700
06EE916EFC5000
ENDCHAR
STARTCHAR Wdieresis
ENCODING 7812
SWIDTH 962 0
DWIDTH 19 0
BBX 21 19 0 0
BITMAP
0000000000011002000000
00000000003FD09F700000
00000000002EC07E600000
0000000000000000000000
00017CEE0000DFD0000E70
007E9FFE0003FFD0004F10
09F40FFF0008FFD0009B00
6F800FFF000DFFE000E500
CF200FFF003FFFE004E000
CF000EFF008BFFE00A9000
6F100EFF10D5FFE00E3000
01000EFF14E0FFF05D0000
00000DFF1990EFF0A70000
00000DFF1E30EFF1E20000
00000CFF5C00EFF5B00000
00000CFFB700DFFB600000
00000CFFF100DFFE100000
00000BFFB000DFF9000000
00000BFF5000CFF4000000
ENDCHAR
STARTCHAR wdieresis
ENCODING 7813
SWIDTH 661 0
DWIDTH 13 0
BBX 14 14 -1 0
BITMAP
000005E90AE400
000006FB0CF500
00000020001000
00000000000000
00BFF20CFF15E8
00EFE01FFD07FD
03FFB04FFA005D
06FF707FF6007B
09FF40AFF300B7
0CFF10DFF002F3
1FFD02FFC00AC0
2FFC0AFFB07F40
1FFFFBFFFEF700
06EE916EFC5000
ENDCHAR
STARTCHAR uni1E8E
ENCODING 7822
SWIDTH 620 0
DWIDTH 12 0
BBX 14 19 0 0
BITMAP
0000000009E800
000000001FFF00
000000000AE900
00000000000000
00017CEF10008B
007E9FFF4001E4
09F40BFF8006D0
6F8007FFC00C60
CF2004FFF13E10
CF0000EFF49800
6F1000BFF9E200
0100007FFFA000
0000003FFF3000
0000004FFE0000
0000007FFB0000
000000AFF80000
000000EFF40000
000002FFF10000
000005FFD00000
ENDCHAR
STARTCHAR uni1E8F
ENCODING 7823
SWIDTH 505 0
DWIDTH 10 0
BBX 12 20 -1 -5
BITMAP
000004EC1000
00000AFF6000
000004EC1000
000000000000
000000000000
00BFF20CFF10
00EFE01FFD00
03FFB04FFA00
06FF707FF600
09FF40AFF300
0CFF10DFF000
1FFD02FFC044
2FFC0AFF80C2
1FFFFFFF6970
06EE9CFFD600
0004BFFE0000
007C6FFB0000
00F17FF70000
01FAEFE10000
006EEA200000
ENDCHAR
STARTCHAR uni1E92
ENCODING 7826
SWIDTH 542 0
DWIDTH 11 0
BBX 11 24 0 -5
BITMAP
000000003FC0
00000000BF30
00000003F700
000000057000
006DFFFFFFC0
02FD434EFF40
03FD007FFC00
005201EFF400
000007FFC000
00001EFF4000
00007FFC0000
0001EFF40000
0007FFC00000
001EFF400000
008FFC000000
01EFF4004300
08FFC002FE00
1EFF7335FC00
8FFFFFFFB200
000000000000
000000000000
001CE5000000
005FFC000000
001CE5000000
ENDCHAR
STARTCHAR uni1E93
ENCODING 7827
SWIDTH 428 0
DWIDTH 9 0
BBX 9 15 0 -5
BITMAP
01CFFFFF40
0BF45FFB00
0BD0AFF200
0004FF9000
000CFE1000
006FF70000
01EFD00000
08FF51C700
2FFD45F900
BFFFFFB100
0000000000
0000000000
0AE7000000
2FFE000000
0AE7000000
ENDCHAR
STARTCHAR uni1E97
ENCODING 7831
SWIDTH 267 0
DWIDTH 5 0
BBX 8 16 -1 0
BITMAP
009E44EA
00BF65FC
00020210
002DFC00
005FF800
008FF500
05FFFF60
01EFF310
01FFC000
05FF8000
08FF5000
0CFF2000
0FFD0061
2FFC04B0
1FFFDE20
06EEA200
ENDCHAR
STARTCHAR uni1E9E
ENCODING 7838
SWIDTH 559 0
DWIDTH 11 0
BBX 14 20 -2 -5
BITMAP
0000007DFFFFFB
000008FF63DFF4
00003FFA04FFC0
00009FF40CFF40
0000EFE04FFC00
0003FFA0BFF500
0006FF74FFC000
000AFF33EF9000
000DFF006FF500
001FFC001FFC00
004FF9000DFE00
007FF5000DFE00
00AFF2002FF900
00DFE364CFD100
01FFA3DFD91000
05FF7000000000
08FF4000000000
0BFF1000000000
0EFC0000000000
17300000000000
ENDCHAR
STARTCHAR uni1EA0
ENCODING 7840
SWIDTH 668 0
DWIDTH 13 0
BBX 14 20 0 -5
BITMAP
00000000018DFA
000000002DEFF9
00000002D98FF6
0000001DB0BFF2
0000009F20EFE0
000005F802FFB0
05BEFFFA56FF80
7FC5AF948EFF50
BF71EF200CFF10
3728FB000FFD00
000EF6003FFA00
005FF1006FF700
00AFC000AFF400
00EF8000DFF100
03FF5001FFC000
04FF2000000000
02FF1000000000
005B209E800000
000001FFF00000
0000009E800000
ENDCHAR
STARTCHAR uni1EA1
ENCODING 7841
SWIDTH 526 0
DWIDTH 11 0
BBX 13 15 -1 -5
BITMAP
0003BEEAFF7000
004FFA4DFF4000
01EFD00CFF1000
08FF600FFD0000
0DFF103FF90000
2FFC007FF60000
3FFB00AFF30620
3FFC03FFF22C00
0DFFDEAFFEE400
03CEB32CEB4000
00000000000000
00000000000000
000AE700000000
003FFE00000000
000AE700000000
ENDCHAR
STARTCHAR uni1EA2
ENCODING 7842
SWIDTH 668 0
DWIDTH 13 0
BBX 15 22 0 -2
BITMAP
00000000001BED40
0000000000064CC0
0000000000001B70
000000000005C300
0000000000012000
00000000018DFA00
000000002DEFF900
00000002D98FF600
0000001DB0BFF200
0000009F20EFE000
000005F802FFB000
05BEFFFA56FF8000
7FC5AF948EFF5000
BF72FF200CFF1000
3729FA000FFD0000
001FF5003FFA0000
007FE0006FF70000
00CFA000AFF40000
01FF7000DFF10000
04FF3001FFC00000
03FF200000000000
009E300000000000
ENDCHAR
STARTCHAR uni1EA3
ENCODING 7843
SWIDTH 526 0
DWIDTH 11 0
BBX 13 15 -1 0
BITMAP
0000007EE90000
000000249E1000
0000000F820000
00000003000000
00000000000000
0003BEEAFF7000
004FFA4DFF4000
01EFD00CFF1000
08FF600FFD0000
0DFF103FF90000
2FFC007FF60000
3FFB00AFF30620
3FFC03FFF22C00
0DFFDEAFFEE400
03CEB32CEB4000
ENDCHAR
STARTCHAR uni1EA4
ENCODING 7844
SWIDTH 668 0
DWIDTH 13 0
BBX 17 22 0 -2
BITMAP
000000000000000270
000000000000150A80
000000000003CE4C00
00000000008A278000
000000000000000000
00000000018DFA0000
000000002DEFF90000
00000002D98FF60000
0000001DB0BFF20000
0000009F20EFE00000
000005F802FFB00000
05BEFFFA56FF800000
7FC5AF948EFF500000
BF72FF200CFF100000
3729FA000FFD000000
001FF5003FFA000000
007FE0006FF7000000
00CFA000AFF4000000
01FF7000DFF1000000
04FF3001FFC0000000
03FF20000000000000
009E30000000000000
ENDCHAR
STARTCHAR uni1EA5
ENCODING 7845
SWIDTH 526 0
DWIDTH 11 0
BBX 13 18 -1 0
BITMAP
00000000000570
00000000002F70
00000000009B00
00000004B08200
0000005FF20000
000005D6960000
00001710050000
00000000000000
0003BEEAFF7000
004FFA4DFF4000
01EFD00CFF1000
08FF600FFD0000
0DFF103FF90000
2FFC007FF60000
3FFB00AFF30620
3FFC03FFF22C00
0DFFDEAFFEE400
03CEB32CEB4000
ENDCHAR
STARTCHAR uni1EA6
ENCODING 7846
SWIDTH 668 0
DWIDTH 13 0
BBX 17 22 0 -2
BITMAP
000000000000004C00
000000000000291F10
000000000005DE2B30
00000000008B278000
000000000010001000
00000000018DFA0000
000000002DEFF90000
00000002D98FF60000
0000001DB0BFF20000
0000009F20EFE00000
000005F802FFB00000
05BEFFFA56FF800000
7FC5AF948EFF500000
BF72FF200CFF100000
3729FA000FFD000000
001FF5003FFA000000
007FE0006FF7000000
00CFA000AFF4000000
01FF7000DFF1000000
04FF3001FFC0000000
03FF20000000000000
009E30000000000000
ENDCHAR
STARTCHAR uni1EA7
ENCODING 7847
SWIDTH 526 0
DWIDTH 11 0
BBX 13 17 -1 0
BITMAP
0000000004F300
0000000000E600
00000004C09900
0000005FF20000
000006B3770000
00001500040000
00000000000000
0003BEEAFF7000
004FFA4DFF4000
01EFD00CFF1000
08FF600FFD0000
0DFF103FF90000
2FFC007FF60000
3FFB00AFF30620
3FFC03FFF22C00
0DFFDEAFFEE400
03CEB32CEB4000
ENDCHAR
STARTCHAR uni1EA8
ENCODING 7848
SWIDTH 668 0
DWIDTH 13 0
BBX 18 22 0 -2
BITMAP
000000000000006EB0
0000000000001724E2
000000000003DF3FD0
00000000006D7A8800
000000000020012000
00000000018DFA0000
000000002DEFF90000
00000002D98FF60000
0000001DB0BFF20000
0000009F20EFE00000
000005F802FFB00000
05BEFFFA56FF800000
7FC5AF948EFF500000
BF72FF200CFF100000
3729FA000FFD000000
001FF5003FFA000000
007FE0006FF7000000
00CFA000AFF4000000
01FF7000DFF1000000
04FF3001FFC0000000
03FF20000000000000
009E30000000000000
ENDCHAR
STARTCHAR uni1EA9
ENCODING 7849
SWIDTH 526 0
DWIDTH 11 0
BBX 13 17 -1 0
BITMAP
0000000005EC10
00000000014D30
00000004C0D600
0000005FF22000
000005D5860000
00001600050000
00000000000000
0003BEEAFF7000
004FFA4DFF4000
01EFD00CFF1000
08FF600FFD0000
0DFF103FF90000
2FFC007FF60000
3FFB00AFF30620
3FFC03FFF22C00
0DFFDEAFFEE400
03CEB32CEB4000
ENDCHAR
STARTCHAR uni1EAA
ENCODING 7850
SWIDTH 668 0
DWIDTH 13 0
BBX 17 22 0 -2
BITMAP
000000000001673110
000000000017BFE900
000000000004DE2000
00000000008A278000
000000000000000000
00000000018DFA0000
000000002DEFF90000
00000002D98FF60000
0000001DB0BFF20000
0000009F20EFE00000
000005F802FFB00000
05BEFFFA56FF800000
7FC5AF948EFF500000
BF72FF200CFF100000
3729FA000FFD000000
001FF5003FFA000000
007FE0006FF7000000
00CFA000AFF4000000
01FF7000DFF1000000
04FF3001FFC0000000
03FF20000000000000
009E30000000000000
ENDCHAR
STARTCHAR uni1EAB
ENCODING 7851
SWIDTH 526 0
DWIDTH 11 0
BBX 13 17 -1 0
BITMAP
0000005CEC9200
00000000120000
00000004B00000
0000005FF20000
000005D6960000
00001710050000
00000000000000
0003BEEAFF7000
004FFA4DFF4000
01EFD00CFF1000
08FF600FFD0000
0DFF103FF90000
2FFC007FF60000
3FFB00AFF30620
3FFC03FFF22C00
0DFFDEAFFEE400
03CEB32CEB4000
ENDCHAR
STARTCHAR uni1EAC
ENCODING 7852
SWIDTH 668 0
DWIDTH 13 0
BBX 16 24 0 -5
BITMAP
0000000000002C40
000000000004EF90
00000000006D74D0
0000000002600041
00000000018DFA00
000000002DEFF900
00000002D98FF600
0000001DB0BFF200
0000009F20EFE000
000005F802FFB000
05BEFFFA56FF8000
7FC5AF948EFF5000
BF71EF200CFF1000
3728FB000FFD0000
000EF6003FFA0000
005FF1006FF70000
00AFC000AFF40000
00EF8000DFF10000
03FF5001FFC00000
04FF200000000000
02FF100000000000
005B209E80000000
000001FFF0000000
0000009E80000000
ENDCHAR
STARTCHAR uni1EAD
ENCODING 7853
SWIDTH 526 0
DWIDTH 11 0
BBX 13 20 -1 -5
BITMAP
00000004D00000
0000005FF40000
000006E9A80000
000059201A0000
00000000000000
0003BEEAFF7000
004FFA4DFF4000
01EFD00CFF1000
08FF600FFD0000
0DFF103FF90000
2FFC007FF60000
3FFB00AFF30620
3FFC03FFF22C00
0DFFDEAFFEE400
03CEB32CEB4000
00000000000000
00000000000000
000AE700000000
003FFE00000000
000AE700000000
ENDCHAR
STARTCHAR uni1EAE
ENCODING 7854
SWIDTH 668 0
DWIDTH 13 0
BBX 16 22 0 -2
BITMAP
0000000000000570
0000000000001E50
0000000000838A47
0000000000DA03D8
00000000004CEC60
00000000018DFA00
000000002DEFF900
00000002D98FF600
0000001DB0BFF200
0000009F20EFE000
000005F802FFB000
05BEFFFA56FF8000
7FC5AF948EFF5000
BF72FF200CFF1000
3729FA000FFD0000
001FF5003FFA0000
007FE0006FF70000
00CFA000AFF40000
01FF7000DFF10000
04FF3001FFC00000
03FF200000000000
009E300000000000
ENDCHAR
STARTCHAR uni1EAF
ENCODING 7855
SWIDTH 526 0
DWIDTH 11 0
BBX 13 17 -1 0
BITMAP
00000000DA0000
00000005E20000
0000000B800000
00007F444D9000
00001AEEC70000
00000000000000
00000000000000
0003BEEAFF7000
004FFA4DFF4000
01EFD00CFF1000
08FF600FFD0000
0DFF103FF90000
2FFC007FF60000
3FFB00AFF30620
3FFC03FFF22C00
0DFFDEAFFEE400
03CEB32CEB4000
ENDCHAR
STARTCHAR uni1EB0
ENCODING 7856
SWIDTH 668 0
DWIDTH 13 0
BBX 16 22 0 -2
BITMAP
000000000004D300
000000000001F500
0000000000A4B759
0000000000DB03E7
00000000003CEC60
00000000018DFA00
000000002DEFF900
00000002D98FF600
0000001DB0BFF200
0000009F20EFE000
000005F802FFB000
05BEFFFA56FF8000
7FC5AF948EFF5000
BF72FF200CFF1000
3729FA000FFD0000
001FF5003FFA0000
007FE0006FF70000
00CFA000AFF40000
01FF7000DFF10000
04FF3001FFC00000
03FF200000000000
009E300000000000
ENDCHAR
ENDFONT
